<svg width="312" height="782" viewBox="0 0 312 782" fill="none" xmlns="http://www.w3.org/2000/svg">
<path d="M192.777 139.089L160.234 140.195L158.612 103.533L191.155 102.427L192.777 139.089Z" fill="#6C63FF"/>
<path d="M44.354 230.825C44.354 230.825 -0.712502 211.958 0.00860214 228.252C0.729702 244.546 45.4357 255.266 45.4357 255.266L44.354 230.825Z" fill="#FFB9B9"/>
<path d="M99.7421 692.467C99.7421 692.467 76.1559 738.145 73.9215 740.261C71.6872 742.376 56.3172 763.297 67.9396 762.902C79.562 762.507 107.005 751.376 127.204 734.371C147.404 717.366 174.035 687.903 171.621 685.945C169.206 683.988 152.664 678.43 152.664 678.43L99.7421 692.467Z" fill="#EDEDED"/>
<path d="M197.174 732.694C197.174 732.694 195.75 753.14 191.462 761.445C187.174 769.75 187.714 781.971 199.337 781.576C210.959 781.181 240.997 776.081 240.997 776.081C240.997 776.081 242.781 763.781 240.366 761.823C237.952 759.865 227.662 737.777 232.041 731.509C236.419 725.24 197.174 732.694 197.174 732.694Z" fill="#EDEDED"/>
<path d="M211.749 68.0708C211.749 68.0708 236.526 101.906 246.184 109.737C255.843 117.568 228.67 134.81 228.67 134.81L180.036 140.542C180.036 140.542 180.648 101.765 178.144 97.7702C175.639 93.7757 211.749 68.0708 211.749 68.0708Z" fill="#FFB9B9"/>
<path d="M169.477 112.343C169.477 112.343 179.497 128.321 188.794 128.005C198.092 127.689 246.185 109.736 248.239 103.547C250.294 97.3577 264.169 147.882 264.169 147.882L146.489 329.345L117.784 311.962L131.693 205.419L143.116 147.915L169.477 112.343Z" fill="#EDEDED"/>
<path d="M252.579 274.745C247.885 283.35 244.953 292.322 245.36 301.508C245.378 301.916 245.396 302.323 245.437 302.729C246.551 321.58 254.476 343.382 257.319 359.237C259.383 370.61 258.795 378.912 251.199 380.863C232.784 385.568 253.885 388.931 182.637 409.71C111.389 430.49 98.9555 412.554 98.7753 408.48C98.595 404.407 108.865 373.46 106.451 371.503C104.036 369.545 72.6651 397.129 63.1869 393.371C53.7087 389.613 62.1053 368.93 62.1053 368.93C62.1053 368.93 83.4572 325.368 83.0065 315.184C82.5558 305 115.35 256.97 115.35 256.97L137.655 129.743C137.655 129.743 146.232 113.133 157.764 110.701C169.296 108.269 178.865 114.064 178.865 114.064L159.567 151.436L139.206 217.403L142.613 241.765C142.613 241.765 166.289 198.124 181.839 181.277C197.389 164.43 230.544 124.547 230.544 124.547C230.544 124.547 238.284 101.662 232.441 94.8231C226.597 87.964 256.815 86.9372 269.7 115.057C276.528 129.96 287.615 152.185 294.561 172.878C300.749 191.209 303.673 208.347 297.542 218.142C288.17 233.106 264.597 252.776 252.579 274.745Z" fill="#2F2E41"/>
<path opacity="0.1" d="M297.542 218.142C288.17 233.106 264.597 252.776 252.579 274.745C249.44 264.836 245.611 254.584 245.611 254.584C245.611 254.584 230.924 185.729 274.368 167.934C281.566 167.324 288.766 169.087 294.561 172.878C300.749 191.209 303.673 208.346 297.542 218.142Z" fill="black"/>
<path d="M125.08 213.803L88.2492 223.214L37.1106 224.951L31.8497 263.887L115.892 269.19C115.892 269.19 136.883 217.481 125.08 213.803Z" fill="#2F2E41"/>
<path opacity="0.1" d="M245.438 302.729C246.552 321.58 254.477 343.382 257.321 359.237C241.624 372.254 226.698 383.735 221.073 383.926C209.45 384.321 190.764 382.916 183.881 385.19C176.998 387.464 172.961 348.844 172.961 348.844C172.961 348.844 177.069 336.465 195.394 329.723C207.763 325.162 231.474 312.791 245.438 302.729Z" fill="black"/>
<path d="M273.827 155.714C273.827 155.714 313.163 150.297 311.038 207.485C308.913 264.672 315.184 301.176 299.364 311.913C283.543 322.649 232.153 371.311 220.531 371.706C208.908 372.101 190.222 370.696 183.339 372.97C176.456 375.244 172.419 336.624 172.419 336.624C172.419 336.624 176.527 324.246 194.852 317.503C213.178 310.761 256.351 286.856 255.991 278.709C255.63 270.562 245.07 242.363 245.07 242.363C245.07 242.363 230.383 173.508 273.827 155.714Z" fill="#2F2E41"/>
<path d="M177.063 118.171C148.798 118.171 125.886 98.0942 125.886 73.3284C125.886 48.5625 148.798 28.4858 177.063 28.4858C205.327 28.4858 228.24 48.5625 228.24 73.3284C228.24 98.0942 205.327 118.171 177.063 118.171Z" fill="#FFB9B9"/>
<path d="M142.604 9.05631C141.369 9.9882 139.891 10.6382 138.301 10.9484C137.502 11.0731 136.68 10.916 136.013 10.5114C135.347 10.1067 134.89 9.48738 134.742 8.78858C133.571 10.9163 132.25 13.1839 129.86 14.2757C127.469 15.3675 123.773 14.452 123.428 12.1092C123.079 13.888 122.181 15.5492 120.831 16.9125C119.348 18.1517 116.658 18.4644 115.363 17.0727C116.41 22.0858 115.764 27.2413 116.093 32.3295C116.421 37.4177 117.97 42.812 122.357 46.1578C128.756 51.0374 138.377 49.8331 146.794 48.9086C148.066 48.6746 149.387 48.7379 150.623 49.0922C153.775 50.2687 153.632 54.1126 153.674 57.1138C153.931 62.3799 156.31 67.3957 160.388 71.2706C164.465 75.1456 169.978 77.6289 175.948 78.2795C179.289 78.7314 182.697 78.0024 185.425 76.2529C187.814 74.4781 189.035 71.5854 191.773 70.2522C196.228 68.0835 201.63 71.2463 204.886 74.6804C208.143 78.1146 211.352 82.3389 216.397 82.9675C223.07 83.7989 228.151 77.8408 230.645 72.3546C234.085 64.6653 235.733 56.4503 235.492 48.194C235.251 39.9378 233.125 31.8074 229.241 24.2822C215.31 -2.32789 167.718 -6.5368 142.604 9.05631Z" fill="#2F2E41"/>
<path d="M69.0797 368.693C69.0797 368.693 47.8179 414.291 39.9622 447.196C32.1065 480.1 20.1427 525.383 35.5318 557.497C50.9209 589.611 94.6736 683.996 95.1243 694.18C95.575 704.364 91.3768 714.706 100.675 714.39C109.973 714.074 160.57 700.116 162.624 693.927C164.678 687.737 145.362 672.075 145.362 672.075L97.6618 541.107L147.429 455.783L183.326 583.072L190.357 741.94C190.357 741.94 224.864 732.608 229.873 740.597C229.873 740.597 245.333 721.714 247.297 713.488C249.261 705.262 239.996 548.51 239.996 548.51C239.996 548.51 271.67 369.968 246.101 370.837C220.531 371.706 120.379 317.994 69.0797 368.693Z" fill="#2F2E41"/>
<path d="M185.138 344.716C185.138 344.716 135.865 351.879 147.111 364.871C158.357 377.863 202.007 364.204 202.007 364.204L185.138 344.716Z" fill="#FFB9B9"/>
</svg>
