<svg width="347" height="614" viewBox="0 0 347 614" fill="none" xmlns="http://www.w3.org/2000/svg">
<path d="M282.197 0.429688H66.852C33.3595 0.429688 6.20837 27.5795 6.20837 61.0706V553.133C6.20837 586.624 33.3595 613.774 66.852 613.774H282.197C315.689 613.774 342.84 586.624 342.84 553.133V61.0706C342.84 27.5795 315.689 0.429688 282.197 0.429688Z" fill="#3F3D56"/>
<path d="M336.448 60.3595V552.419C336.431 566.991 330.634 580.961 320.33 591.265C310.026 601.569 296.055 607.365 281.482 607.382H66.1407C51.568 607.365 37.5969 601.569 27.2925 591.265C16.988 580.961 11.1915 566.991 11.1747 552.419V60.3595C11.1916 45.7875 16.988 31.8171 27.2925 21.5131C37.5969 11.2091 51.568 5.41287 66.1407 5.396H94.3V15.1228C94.3003 19.5263 96.0498 23.7493 99.1636 26.8631C102.278 29.9768 106.501 31.7262 110.904 31.7264H236.718C241.122 31.7262 245.345 29.9768 248.459 26.8631C251.573 23.7493 253.322 19.5263 253.322 15.1228V5.396H281.482C296.055 5.41287 310.026 11.2091 320.33 21.5131C330.634 31.8171 336.431 45.7875 336.448 60.3595Z" fill="white"/>
<path d="M319.089 430.019H31.0402V545.487H319.089V430.019Z" fill="#3F3D56"/>
<path d="M147.013 501.523C154.554 529.397 180.381 546.659 180.381 546.659C180.381 546.659 193.983 518.73 186.443 490.856C178.903 462.983 153.075 445.72 153.075 445.72C153.075 445.72 139.473 473.649 147.013 501.523Z" fill="white"/>
<path d="M158.095 495.532C178.786 515.674 181.313 546.636 181.313 546.636C181.313 546.636 150.294 544.943 129.603 524.801C108.912 504.659 106.385 473.697 106.385 473.697C106.385 473.697 137.404 475.39 158.095 495.532Z" fill="#0066E0"/>
<path d="M215.612 501.523C208.071 529.397 182.244 546.659 182.244 546.659C182.244 546.659 168.642 518.73 176.182 490.856C183.723 462.983 209.55 445.72 209.55 445.72C209.55 445.72 223.152 473.649 215.612 501.523Z" fill="white"/>
<path d="M204.531 495.532C183.84 515.674 181.313 546.636 181.313 546.636C181.313 546.636 212.332 544.943 233.023 524.801C253.714 504.659 256.241 473.697 256.241 473.697C256.241 473.697 225.222 475.39 204.531 495.532Z" fill="#0066E0"/>
<path d="M183.583 19.2497H151.572C150.887 19.2497 150.231 18.9778 149.747 18.4937C149.262 18.0096 148.99 17.353 148.99 16.6683C148.99 15.9837 149.262 15.3271 149.747 14.843C150.231 14.3589 150.887 14.0869 151.572 14.0869H183.583C184.268 14.0869 184.924 14.3589 185.408 14.843C185.893 15.3271 186.165 15.9837 186.165 16.6683C186.165 17.353 185.893 18.0096 185.408 18.4937C184.924 18.9778 184.268 19.2497 183.583 19.2497Z" fill="white"/>
<path d="M200.105 18.7333C201.245 18.7333 202.17 17.8087 202.17 16.6682C202.17 15.5276 201.245 14.603 200.105 14.603C198.964 14.603 198.039 15.5276 198.039 16.6682C198.039 17.8087 198.964 18.7333 200.105 18.7333Z" fill="white"/>
<path d="M4.13045 133.66C3.03537 133.659 1.9855 133.223 1.21116 132.449C0.436827 131.675 0.00125717 130.625 0 129.53V121.269C0 120.174 0.435168 119.123 1.20978 118.349C1.98439 117.574 3.03499 117.139 4.13045 117.139C5.22591 117.139 6.27651 117.574 7.05112 118.349C7.82573 119.123 8.2609 120.174 8.2609 121.269V129.53C8.25965 130.625 7.82408 131.675 7.04974 132.449C6.2754 133.223 5.22553 133.659 4.13045 133.66Z" fill="#3F3D56"/>
<path d="M4.13045 176.017C3.03537 176.016 1.9855 175.58 1.21116 174.806C0.436826 174.032 0.00125172 172.982 0 171.887V149.148C0 148.053 0.435168 147.002 1.20978 146.228C1.98439 145.453 3.03499 145.018 4.13045 145.018C5.22591 145.018 6.27651 145.453 7.05112 146.228C7.82573 147.002 8.2609 148.053 8.2609 149.148V171.887C8.25965 172.982 7.82408 174.032 7.04974 174.806C6.2754 175.58 5.22553 176.016 4.13045 176.017Z" fill="#3F3D56"/>
<path d="M4.13045 210.069C3.03537 210.068 1.9855 209.633 1.21116 208.858C0.436826 208.084 0.00125172 207.034 0 205.939V183.201C0 182.105 0.435168 181.055 1.20978 180.28C1.98439 179.505 3.03499 179.07 4.13045 179.07C5.22591 179.07 6.27651 179.505 7.05112 180.28C7.82573 181.055 8.2609 182.105 8.2609 183.201V205.939C8.25965 207.034 7.82408 208.084 7.04974 208.858C6.2754 209.633 5.22553 210.068 4.13045 210.069Z" fill="#3F3D56"/>
<path d="M342.828 191.484C341.733 191.482 340.683 191.047 339.908 190.272C339.134 189.498 338.699 188.448 338.697 187.353V131.87C338.697 130.775 339.132 129.724 339.907 128.949C340.682 128.175 341.732 127.74 342.828 127.74C343.923 127.74 344.974 128.175 345.748 128.949C346.523 129.724 346.958 130.775 346.958 131.87V187.353C346.957 188.448 346.521 189.498 345.747 190.272C344.973 191.047 343.923 191.482 342.828 191.484Z" fill="#3F3D56"/>
<path d="M260.733 562.869H88.1527V574.043H260.733V562.869Z" fill="#F0F0F0"/>
<path d="M315.363 91.0659H111.743V102.24H315.363V91.0659Z" fill="black" fill-opacity="0.2"/>
<path d="M234.661 205.291H31.0402V216.465H234.661V205.291Z" fill="black" fill-opacity="0.2"/>
<path d="M315.363 319.518H111.743V330.692H315.363V319.518Z" fill="black" fill-opacity="0.2"/>
<path d="M315.363 113.415H111.743V124.589H315.363V113.415Z" fill="black" fill-opacity="0.2"/>
<path d="M234.661 227.64H31.0402V238.814H234.661V227.64Z" fill="black" fill-opacity="0.2"/>
<path d="M315.363 341.866H111.743V353.04H315.363V341.866Z" fill="black" fill-opacity="0.2"/>
<path d="M315.363 135.763H111.743V146.937H315.363V135.763Z" fill="black" fill-opacity="0.2"/>
<path d="M234.661 249.989H31.0402V261.163H234.661V249.989Z" fill="black" fill-opacity="0.2"/>
<path d="M315.363 364.215H111.743V375.389H315.363V364.215Z" fill="black" fill-opacity="0.2"/>
<path d="M53.3882 141.971H80.7031L94.3606 118.381L80.7031 94.7905H53.3882L39.7307 118.381L53.3882 141.971Z" fill="#0066E0"/>
<path d="M84.0654 150.661H50.0269C49.6815 150.661 49.3423 150.569 49.0431 150.395C48.744 150.221 48.4954 149.971 48.3222 149.67L31.303 119.992C31.1308 119.69 31.0402 119.348 31.0402 119.001C31.0402 118.653 31.1308 118.311 31.303 118.01L48.3223 88.3312C48.4954 88.0303 48.744 87.7805 49.0431 87.6066C49.3423 87.4327 49.6815 87.3409 50.0269 87.3403H84.0655C84.4109 87.3409 84.7501 87.4327 85.0492 87.6066C85.3484 87.7804 85.5969 88.0303 85.7701 88.3312L102.789 118.01C102.962 118.311 103.052 118.653 103.052 119.001C103.052 119.348 102.962 119.69 102.789 119.992L85.7701 149.67C85.5969 149.971 85.3483 150.221 85.0492 150.395C84.75 150.569 84.4108 150.661 84.0654 150.661ZM50.0269 88.1331C49.8197 88.1334 49.6161 88.1885 49.4366 88.2928C49.2572 88.3971 49.108 88.547 49.0041 88.7276L31.9848 118.406C31.8815 118.587 31.8272 118.792 31.8272 119.001C31.8272 119.209 31.8816 119.414 31.9849 119.595L49.0041 149.274C49.108 149.455 49.2572 149.605 49.4366 149.709C49.6161 149.813 49.8197 149.868 50.0269 149.869H84.0654C84.2727 149.868 84.4762 149.813 84.6557 149.709C84.8351 149.605 84.9843 149.455 85.0882 149.274L102.108 119.595C102.211 119.414 102.265 119.209 102.265 119.001C102.265 118.792 102.211 118.587 102.108 118.406L85.0882 88.7276C84.9843 88.547 84.8352 88.3971 84.6557 88.2928C84.4762 88.1884 84.2727 88.1334 84.0654 88.133L50.0269 88.1331Z" fill="#CCCCCC" stroke="black" stroke-opacity="0.2"/>
<path d="M67.021 109.391C66.3697 108.721 65.5901 108.184 64.7267 107.809C63.8634 107.434 62.9332 107.23 61.9894 107.208C61.0455 107.186 60.1064 107.346 59.2258 107.68C58.3451 108.014 57.5402 108.514 56.8569 109.153C56.1736 109.792 55.6254 110.556 55.2436 111.402C54.8617 112.249 54.6538 113.161 54.6315 114.086C54.6093 115.011 54.7732 115.932 55.1139 116.795C55.4546 117.658 55.9655 118.447 56.6173 119.117C56.6959 119.197 56.7764 119.276 56.8588 119.353L67.2654 129.555L77.4276 119.593C78.7539 118.229 79.4836 116.411 79.4607 114.528C79.4379 112.644 78.6644 110.843 77.3054 109.511C75.9464 108.179 74.1098 107.421 72.1881 107.398C70.2663 107.376 68.4119 108.091 67.021 109.391Z" fill="white"/>
<path d="M265.699 256.197H293.014L306.672 232.607L293.014 209.017H265.699L252.042 232.607L265.699 256.197Z" fill="#0066E0"/>
<path d="M296.376 264.888H262.338C261.992 264.887 261.653 264.795 261.354 264.622C261.055 264.448 260.806 264.198 260.633 263.897L243.614 234.218C243.442 233.917 243.351 233.575 243.351 233.227C243.351 232.879 243.442 232.538 243.614 232.236L260.633 202.558C260.806 202.257 261.055 202.007 261.354 201.833C261.653 201.659 261.992 201.567 262.338 201.567H296.376C296.722 201.567 297.061 201.659 297.36 201.833C297.659 202.007 297.908 202.257 298.081 202.558L315.1 232.236C315.272 232.538 315.363 232.879 315.363 233.227C315.363 233.575 315.272 233.917 315.1 234.218L298.081 263.897C297.908 264.198 297.659 264.448 297.36 264.622C297.061 264.796 296.722 264.887 296.376 264.888ZM262.338 202.36C262.13 202.36 261.927 202.415 261.747 202.519C261.568 202.624 261.419 202.774 261.315 202.954L244.296 232.633C244.192 232.814 244.138 233.019 244.138 233.227C244.138 233.436 244.192 233.641 244.296 233.822L261.315 263.501C261.419 263.681 261.568 263.831 261.747 263.935C261.927 264.04 262.13 264.095 262.338 264.095H296.376C296.583 264.095 296.787 264.04 296.966 263.935C297.146 263.831 297.295 263.681 297.399 263.501L314.418 233.822C314.522 233.641 314.576 233.436 314.576 233.227C314.576 233.019 314.522 232.814 314.418 232.633L297.399 202.954C297.295 202.774 297.146 202.624 296.966 202.519C296.787 202.415 296.583 202.36 296.376 202.36H262.338Z" fill="#CCCCCC" stroke="black" stroke-opacity="0.2"/>
<path d="M279.978 218.95C277.4 218.95 274.88 219.751 272.736 221.251C270.592 222.752 268.921 224.885 267.934 227.381C266.947 229.876 266.689 232.622 267.192 235.272C267.695 237.921 268.937 240.354 270.76 242.264C272.583 244.174 274.906 245.475 277.435 246.002C279.964 246.529 282.585 246.259 284.967 245.225C287.349 244.191 289.386 242.441 290.818 240.195C292.251 237.949 293.015 235.308 293.015 232.607C293.015 230.814 292.678 229.038 292.023 227.381C291.368 225.724 290.407 224.218 289.197 222.95C287.986 221.682 286.549 220.676 284.967 219.989C283.386 219.303 281.69 218.95 279.978 218.95ZM279.978 223.047C280.752 223.047 281.508 223.287 282.151 223.737C282.794 224.188 283.296 224.828 283.592 225.576C283.888 226.325 283.965 227.149 283.814 227.943C283.663 228.738 283.291 229.468 282.744 230.041C282.197 230.614 281.5 231.005 280.741 231.163C279.983 231.321 279.196 231.24 278.482 230.93C277.767 230.619 277.156 230.094 276.727 229.42C276.297 228.747 276.067 227.955 276.067 227.144C276.067 226.058 276.48 225.015 277.213 224.247C277.946 223.479 278.941 223.047 279.978 223.047ZM279.978 242.771C278.433 242.764 276.914 242.362 275.55 241.6C274.187 240.838 273.022 239.739 272.156 238.398C272.219 235.667 277.371 234.163 279.978 234.163C282.586 234.163 287.738 235.667 287.8 238.398C286.934 239.738 285.768 240.836 284.405 241.598C283.043 242.36 281.523 242.763 279.978 242.771Z" fill="white"/>
<path d="M53.3882 370.423H80.7031L94.3606 347.454L80.7031 324.484H53.3882L39.7307 347.454L53.3882 370.423Z" fill="#0066E0"/>
<path d="M84.0654 379.114H50.027C49.6816 379.113 49.3423 379.022 49.0432 378.848C48.7441 378.674 48.4955 378.424 48.3223 378.123L31.303 348.444C31.1308 348.143 31.0402 347.801 31.0402 347.453C31.0402 347.105 31.1308 346.764 31.3031 346.462L48.3223 316.784C48.4955 316.483 48.7441 316.233 49.0432 316.059C49.3423 315.885 49.6816 315.794 50.027 315.793H84.0655C84.4109 315.794 84.7501 315.885 85.0493 316.059C85.3484 316.233 85.597 316.483 85.7701 316.784L102.789 346.462C102.962 346.764 103.052 347.105 103.052 347.453C103.052 347.801 102.962 348.143 102.789 348.444L85.7701 378.123C85.5969 378.424 85.3483 378.674 85.0492 378.848C84.7501 379.022 84.4108 379.113 84.0654 379.114ZM50.027 316.586C49.8197 316.586 49.6162 316.641 49.4367 316.745C49.2572 316.85 49.1081 317 49.0041 317.18L31.9849 346.859C31.8816 347.04 31.8272 347.245 31.8272 347.453C31.8272 347.662 31.8816 347.867 31.985 348.048L49.0041 377.727C49.1081 377.907 49.2572 378.057 49.4367 378.161C49.6162 378.266 49.8197 378.321 50.027 378.321H84.0654C84.2727 378.321 84.4762 378.266 84.6557 378.161C84.8352 378.057 84.9843 377.907 85.0882 377.727L102.108 348.048C102.211 347.867 102.265 347.662 102.265 347.453C102.265 347.245 102.211 347.04 102.108 346.859L85.0882 317.18C84.9843 317 84.8352 316.85 84.6557 316.745C84.4762 316.641 84.2727 316.586 84.0655 316.586H50.027Z" fill="#CCCCCC" stroke="black" stroke-opacity="0.2"/>
<path d="M75.7373 343.746C75.7373 348.209 67.0462 358.007 67.0462 358.007C67.0462 358.007 58.3551 348.209 58.3551 343.746C58.3542 342.685 58.5781 341.634 59.014 340.653C59.4499 339.672 60.0893 338.781 60.8956 338.03C61.702 337.279 62.6596 336.683 63.7137 336.276C64.7678 335.869 65.8978 335.659 67.0391 335.658C68.1804 335.657 69.3108 335.865 70.3656 336.271C71.4204 336.676 72.379 337.271 73.1867 338.02C73.9944 338.77 74.6354 339.661 75.073 340.641C75.5107 341.621 75.7364 342.672 75.7373 343.733L75.7373 343.746Z" fill="white"/>
<path d="M66.4255 348.074C68.1398 348.074 69.5295 346.406 69.5295 344.349C69.5295 342.292 68.1398 340.625 66.4255 340.625C64.7112 340.625 63.3215 342.292 63.3215 344.349C63.3215 346.406 64.7112 348.074 66.4255 348.074Z" fill="#0066E0"/>
<path d="M66.4255 362.973C68.1398 362.973 69.5295 361.583 69.5295 359.869C69.5295 358.155 68.1398 356.765 66.4255 356.765C64.7112 356.765 63.3215 358.155 63.3215 359.869C63.3215 361.583 64.7112 362.973 66.4255 362.973Z" fill="#0066E0"/>
</svg>
