<svg width="571" height="431" viewBox="0 0 571 431" fill="none" xmlns="http://www.w3.org/2000/svg">
<rect width="545.234" height="430.392" rx="75" fill="#2F2E41"/>
<path d="M214.345 56.8379C216.675 56.8379 218.564 54.7602 218.564 52.1971C218.564 49.6341 216.675 47.5564 214.345 47.5564C212.015 47.5564 210.127 49.6341 210.127 52.1971C210.127 54.7602 212.015 56.8379 214.345 56.8379Z" fill="#F2F2F2"/>
<path d="M55.5984 174.262C56.5304 174.262 57.286 173.507 57.286 172.575C57.286 171.643 56.5304 170.887 55.5984 170.887C54.6664 170.887 53.9109 171.643 53.9109 172.575C53.9109 173.507 54.6664 174.262 55.5984 174.262Z" fill="#F2F2F2"/>
<path d="M320.543 258.639C321.475 258.639 322.231 257.884 322.231 256.952C322.231 256.02 321.475 255.264 320.543 255.264C319.611 255.264 318.856 256.02 318.856 256.952C318.856 257.884 319.611 258.639 320.543 258.639Z" fill="#F2F2F2"/>
<path d="M271.183 155.699C272.348 155.699 273.292 154.755 273.292 153.59C273.292 152.425 272.348 151.48 271.183 151.48C270.018 151.48 269.073 152.425 269.073 153.59C269.073 154.755 270.018 155.699 271.183 155.699Z" fill="#F2F2F2"/>
<path d="M479.125 77.7127C480.057 77.7127 480.812 76.9572 480.812 76.0252C480.812 75.0932 480.057 74.3376 479.125 74.3376C478.193 74.3376 477.437 75.0932 477.437 76.0252C477.437 76.9572 478.193 77.7127 479.125 77.7127Z" fill="#F2F2F2"/>
<path d="M139.133 201.262H137.445V202.106H139.133V201.262Z" fill="#F2F2F2"/>
<path d="M482.548 240.92H480.86V241.764H482.548V240.92Z" fill="#F2F2F2"/>
<path d="M375.387 103.386H373.7V104.23H375.387V103.386Z" fill="#F2F2F2"/>
<path d="M407.451 304.203H404.076V429.082H407.451V304.203Z" fill="#0066E0"/>
<path d="M436.981 319.671C437.182 363.242 406.548 398.706 406.548 398.706C406.548 398.706 375.589 363.526 375.388 319.955C375.187 276.384 405.821 240.92 405.821 240.92C405.821 240.92 436.781 276.1 436.981 319.671Z" fill="#3F3D56"/>
<path d="M172.883 304.203H169.507V429.082H172.883V304.203Z" fill="#3F3D56"/>
<path d="M202.415 282.123C202.615 325.927 171.981 361.58 171.981 361.58C171.981 361.58 141.022 326.213 140.821 282.408C140.62 238.604 171.255 202.951 171.255 202.951C171.255 202.951 202.214 238.318 202.415 282.123Z" fill="#3F3D56"/>
<path d="M134.069 267.077H129.85V429.081H134.069V267.077Z" fill="#3F3D56"/>
<path d="M172.038 249.595C172.299 306.215 132.433 352.298 132.433 352.298C132.433 352.298 92.1437 306.584 91.8825 249.965C91.6213 193.345 131.488 147.262 131.488 147.262C131.488 147.262 171.777 192.976 172.038 249.595Z" fill="#3F3D56"/>
<path d="M97.7871 304.203H94.412V429.082H97.7871V304.203Z" fill="#3F3D56"/>
<path d="M126.475 282.123C126.676 325.927 96.0418 361.58 96.0418 361.58C96.0418 361.58 65.0824 326.213 64.8817 282.408C64.681 238.604 95.3151 202.951 95.3151 202.951C95.3151 202.951 126.274 238.318 126.475 282.123Z" fill="#3F3D56"/>
<path d="M423 373.5L376 327C375.859 329.174 375.99 324.779 376 327C376.199 370.503 406.212 398.706 406.212 398.706C415.128 387.563 417.669 386.776 423 373.5Z" fill="#0066E0"/>
<path d="M74.8065 419.061C76.5424 425.585 82.488 429.626 82.488 429.626C82.488 429.626 85.6193 423.089 83.8834 416.565C82.1476 410.041 76.202 406 76.202 406C76.202 406 73.0707 412.537 74.8065 419.061Z" fill="#3F3D56"/>
<path d="M77.2285 417.801C82.1216 422.461 82.7192 429.625 82.7192 429.625C82.7192 429.625 75.3837 429.233 70.4907 424.573C65.5976 419.913 65 412.749 65 412.749C65 412.749 72.3355 413.141 77.2285 417.801Z" fill="#3F3D56"/>
<path d="M446.839 415.454C442.129 420.345 441.85 427.943 441.85 427.943C441.85 427.943 449.208 427.612 453.917 422.722C458.627 417.831 458.906 410.233 458.906 410.233C458.906 410.233 451.548 410.564 446.839 415.454Z" fill="#0066E0"/>
<path d="M449.121 416.885C447.531 423.453 441.626 427.552 441.626 427.552C441.626 427.552 438.298 421.004 439.887 414.436C441.476 407.869 447.381 403.769 447.381 403.769C447.381 403.769 450.71 410.318 449.121 416.885Z" fill="#0066E0"/>
<path opacity="0.1" d="M270.988 225.578L270.987 225.578L252.227 207.317L252.058 207.361L244.546 200.132L244.184 200.02L244.575 199.862L164.684 122.1L87.5297 46.9998L48.2157 69.076L45.0001 69.8296L92.1141 145.104L270.42 430H481L270.988 225.578Z" fill="#F2F2F2"/>
<path d="M64.46 78.0727C78.6731 78.0727 90.1951 66.3618 90.1951 51.9157C90.1951 37.4696 78.6731 25.7588 64.46 25.7588C50.247 25.7588 38.725 37.4696 38.725 51.9157C38.725 66.3618 50.247 78.0727 64.46 78.0727Z" fill="#F2F2F2"/>
<path d="M112 177L197.5 314C199.433 306.079 202.417 289.846 202.416 281.692C202.318 260.429 194.899 241.166 187.323 227.005L183.32 228L187.085 226.563C182.623 218.147 177.31 210.211 171.228 202.882C171.228 202.882 169.02 205.438 165.795 210.018C154.426 173.122 131.669 147.262 131.669 147.262C124.566 155.966 117.331 167.109 112 177Z" fill="#0066E0"/>
<path d="M397.002 389.148L382.224 382.615V376.999L387.491 376.969C388.308 376.964 389.103 376.703 389.765 376.223C390.427 375.742 390.921 375.066 391.18 374.289L394.88 363.167C395.076 362.578 395.129 361.95 395.036 361.336C394.942 360.722 394.704 360.139 394.342 359.635C393.98 359.131 393.503 358.721 392.951 358.438C392.399 358.155 391.788 358.007 391.169 358.007H382.224V352.781H393.453C394.338 352.781 395.197 352.48 395.889 351.928C396.582 351.375 397.067 350.604 397.265 349.739L399.813 338.633C399.945 338.059 399.946 337.462 399.815 336.887C399.685 336.313 399.427 335.775 399.061 335.314C398.695 334.852 398.229 334.48 397.699 334.224C397.17 333.968 396.589 333.835 396.001 333.835H382.224V332.529C382.224 332.186 382.157 331.846 382.026 331.529C381.895 331.212 381.703 330.924 381.461 330.681C381.218 330.438 380.931 330.246 380.615 330.114C380.298 329.983 379.959 329.916 379.617 329.916C379.274 329.916 378.935 329.983 378.619 330.114C378.302 330.246 378.015 330.438 377.773 330.681C377.53 330.924 377.338 331.212 377.207 331.529C377.076 331.846 377.009 332.186 377.009 332.529V333.835H284.648V332.529C284.648 331.836 284.374 331.171 283.885 330.681C283.396 330.191 282.732 329.916 282.041 329.916C281.349 329.916 280.686 330.191 280.197 330.681C279.708 331.171 279.433 331.836 279.433 332.529V333.835H268.482C267.893 333.835 267.313 333.968 266.783 334.224C266.253 334.48 265.788 334.852 265.421 335.314C265.055 335.775 264.797 336.313 264.667 336.887C264.537 337.462 264.538 338.059 264.669 338.633L267.217 349.739C267.415 350.604 267.9 351.375 268.593 351.928C269.285 352.48 270.144 352.781 271.029 352.781H279.433V358.007H273.314C272.697 358.007 272.089 358.153 271.54 358.434C270.99 358.714 270.515 359.12 270.152 359.619C269.789 360.119 269.549 360.697 269.451 361.307C269.354 361.917 269.401 362.541 269.59 363.129L273.367 374.873C273.622 375.666 274.122 376.357 274.796 376.845C275.469 377.334 276.28 377.595 277.112 377.59L279.433 377.577V382.615L267.48 389.148C266.967 389.148 266.458 389.25 265.983 389.447C265.509 389.644 265.078 389.932 264.714 390.296C264.351 390.66 264.063 391.092 263.866 391.568C263.67 392.043 263.569 392.553 263.569 393.068C263.569 394.108 263.981 395.105 264.714 395.84C265.448 396.575 266.443 396.988 267.48 396.988H279.433V425.733C279.433 426.426 279.708 427.091 280.197 427.581C280.686 428.071 281.349 428.346 282.041 428.346C282.732 428.346 283.396 428.071 283.885 427.581C284.374 427.091 284.648 426.426 284.648 425.733V396.988H377.009V425.733C377.009 426.426 377.283 427.091 377.773 427.581C378.262 428.071 378.925 428.346 379.617 428.346C380.308 428.346 380.971 428.071 381.461 427.581C381.95 427.091 382.224 426.426 382.224 425.733V396.988H397.002C398.039 396.988 399.034 396.575 399.768 395.84C400.502 395.105 400.914 394.108 400.914 393.068C400.914 392.553 400.813 392.043 400.616 391.568C400.419 391.092 400.131 390.66 399.768 390.296C399.405 389.932 398.974 389.644 398.499 389.447C398.024 389.25 397.516 389.148 397.002 389.148ZM284.648 352.781H377.009V358.007H284.648V352.781ZM284.648 382.615V377.548L377.009 377.028V382.615H284.648Z" fill="#E6E6E6"/>
<path d="M332.961 417.722L329.133 418.84L323.041 404.466L328.69 402.816L332.961 417.722Z" fill="#9E616A"/>
<path d="M343.151 365.428L339.09 369.672C339.09 369.672 317.7 378.957 317.7 383.732C317.7 388.507 322.845 409.198 325.011 410.79C326.315 411.754 325.726 412.792 326.373 414.262L333.945 411.585C333.945 411.585 333.404 409.994 333.945 409.198C334.487 408.402 333.945 407.872 333.945 407.872C333.945 407.872 333.133 408.137 333.404 407.341C333.675 406.545 333.675 406.28 333.404 406.015C333.133 405.749 332.321 403.362 332.321 403.362C332.321 403.362 332.592 393.812 328.801 390.364C328.801 390.364 346.4 385.323 348.566 381.875C350.732 378.426 351.274 365.959 351.274 365.959L343.151 365.428Z" fill="#2F2E41"/>
<path d="M347.873 401.29L342.883 404.625L353.236 416.55L356.617 414.29L347.873 401.29Z" fill="#9E616A"/>
<path d="M355.245 358.164C352.616 352.622 360.631 369.008 359.57 374.083C358.741 378.045 343.265 390.661 343.265 390.661C347.928 392.647 350.914 401.72 350.914 401.72C350.914 401.72 352.471 403.696 352.811 403.856C353.151 404.015 353.24 404.265 353.26 405.103C353.28 405.942 353.939 405.422 353.939 405.422C353.939 405.422 354.618 405.742 354.389 406.67C354.159 407.598 355.198 408.916 355.198 408.916L349.461 414.261C348.366 413.093 348.22 411.606 346.69 411.132C344.154 410.353 332.401 392.598 330.783 388.107C329.165 383.616 345.74 367.785 345.74 367.785L347.147 359.951L355.245 358.164Z" fill="#2F2E41"/>
<path d="M345.402 331.855L341.791 334.527L332.199 336.996C332.199 336.996 335.636 360.438 334.014 362.014C332.392 363.591 333.855 363.633 333.529 365.681C333.203 367.729 332.411 371.927 332.411 371.927C343.36 377.56 352.8 377.711 360.382 371.119C360.479 370.712 360.43 370.284 360.243 369.907C360.055 369.53 359.741 369.227 359.352 369.048C357.941 368.32 360.653 364.923 359.499 364.355C358.346 363.788 359.968 358.861 359.968 358.861L363.484 342.732L354.133 335.622L352.711 332.293L345.402 331.855Z" fill="#0066E0"/>
<path d="M350.512 352.457C351.355 352.457 352.038 351.945 352.038 351.313C352.038 350.681 351.355 350.168 350.512 350.168C349.669 350.168 348.986 350.681 348.986 351.313C348.986 351.945 349.669 352.457 350.512 352.457Z" fill="#F2F2F2"/>
<path d="M349.369 329.565C353.372 329.565 356.618 326.491 356.618 322.698C356.618 318.905 353.372 315.831 349.369 315.831C345.365 315.831 342.12 318.905 342.12 322.698C342.12 326.491 345.365 329.565 349.369 329.565Z" fill="#9E616A"/>
<path opacity="0.1" d="M360.429 350.876L360.937 351.693L361.192 347.878L360.429 350.876Z" fill="black"/>
<path d="M333.003 336.442C333.003 336.442 331.531 336.144 330.648 338.829C329.765 341.515 325.331 355.655 325.331 357.445C325.331 359.236 346.695 363.138 346.695 363.138L344.597 355.678L334.892 352.601L333.003 336.442Z" fill="#0066E0"/>
<path d="M347.841 361.614C349.737 361.614 351.274 360.247 351.274 358.561C351.274 356.876 349.737 355.509 347.841 355.509C345.944 355.509 344.407 356.876 344.407 358.561C344.407 360.247 345.944 361.614 347.841 361.614Z" fill="#9E616A"/>
<path opacity="0.1" d="M336.017 349.404L336.297 352.826L345.173 357.034L337.278 352.251L336.017 349.404Z" fill="black"/>
<path d="M355.855 347.432H355.745V344.331C355.745 344.095 355.7 343.862 355.613 343.644C355.526 343.427 355.399 343.229 355.238 343.062C355.077 342.895 354.886 342.763 354.675 342.673C354.465 342.583 354.24 342.536 354.012 342.536H347.668C347.441 342.536 347.215 342.583 347.005 342.673C346.795 342.763 346.604 342.895 346.443 343.062C346.282 343.229 346.154 343.427 346.067 343.644C345.98 343.862 345.935 344.095 345.935 344.331V361.343C345.935 361.579 345.98 361.812 346.067 362.03C346.154 362.248 346.282 362.446 346.443 362.612C346.604 362.779 346.795 362.911 347.005 363.002C347.215 363.092 347.441 363.138 347.668 363.138H354.012C354.24 363.138 354.465 363.092 354.675 363.002C354.886 362.911 355.077 362.779 355.238 362.612C355.399 362.446 355.526 362.248 355.613 362.03C355.7 361.812 355.745 361.579 355.745 361.343V349.639H355.855V347.432Z" fill="#F0F0F0"/>
<path d="M363.204 342.536C363.204 342.536 364.107 343.147 364.709 345.894C365.312 348.641 369.227 359.019 367.721 361.46C366.215 363.902 365.771 366.508 360.651 362.846L353.566 356.272L358.686 351.388L360.794 352.914L363.204 342.536Z" fill="#0066E0"/>
<path d="M350.894 350.167C351.947 350.167 352.801 349.655 352.801 349.022C352.801 348.39 351.947 347.878 350.894 347.878C349.84 347.878 348.986 348.39 348.986 349.022C348.986 349.655 349.84 350.167 350.894 350.167Z" fill="#0066E0"/>
<path d="M355.092 355.509C356.777 355.509 358.144 353.971 358.144 352.075C358.144 350.179 356.777 348.641 355.092 348.641C353.406 348.641 352.039 350.179 352.039 352.075C352.039 353.971 353.406 355.509 355.092 355.509Z" fill="#9E616A"/>
<path opacity="0.1" d="M334.49 360.086L345.172 362.631L334.772 363.139L334.49 360.086Z" fill="black"/>
<path d="M355.259 318.324C355.259 318.324 357.123 314.721 353.022 314.394C353.022 314.394 349.526 311.187 345.962 313.808C345.962 313.808 344.018 313.808 342.955 316.031C342.955 316.031 341.426 315.445 341.09 317.014C341.09 317.014 339.972 320.289 341.09 323.237C342.209 326.185 342.581 326.512 342.581 326.512C342.581 326.512 341.796 322.854 346.27 322.527C350.745 322.199 354.85 319.366 355.223 322.968C355.595 326.571 356.005 324.944 356.005 324.944C356.005 324.944 359.547 319.798 355.259 318.324Z" fill="#2F2E41"/>
<path d="M424.981 310.489H366.845C365.954 310.489 365.099 310.838 364.469 311.459C363.838 312.08 363.484 312.923 363.484 313.801V327.579C363.484 328.457 363.838 329.299 364.469 329.92C365.099 330.541 365.954 330.89 366.845 330.89H367.698V333.379C367.698 333.53 367.744 333.678 367.829 333.804C367.914 333.929 368.035 334.027 368.177 334.085C368.318 334.143 368.474 334.158 368.624 334.128C368.775 334.099 368.913 334.026 369.021 333.919L372.095 330.89H424.981C425.872 330.89 426.727 330.541 427.358 329.92C427.988 329.299 428.342 328.457 428.342 327.579V313.801C428.342 313.366 428.255 312.935 428.086 312.534C427.917 312.132 427.67 311.767 427.358 311.459C427.045 311.152 426.675 310.908 426.267 310.741C425.86 310.575 425.423 310.489 424.981 310.489Z" fill="#3F3D56"/>
<path d="M424.407 328.802H366.653C366.217 328.802 365.799 328.633 365.491 328.331C365.183 328.03 365.009 327.622 365.009 327.196V313.623C365.009 313.197 365.183 312.788 365.491 312.487C365.799 312.186 366.217 312.016 366.653 312.016H410.517C414.636 312.02 418.584 313.621 421.496 316.467C424.408 319.313 426.047 323.171 426.051 327.196C426.051 327.622 425.877 328.03 425.569 328.331C425.261 328.633 424.843 328.802 424.407 328.802Z" fill="white"/>
<path d="M404.514 314.672H380.414C379.905 314.672 379.493 315.115 379.493 315.661V315.972C379.493 316.518 379.905 316.961 380.414 316.961H404.514C405.023 316.961 405.436 316.518 405.436 315.972V315.661C405.436 315.115 405.023 314.672 404.514 314.672Z" fill="#0066E0"/>
<path d="M409.904 319.949H375.15C374.633 319.949 374.214 320.392 374.214 320.939V321.249C374.214 321.796 374.633 322.239 375.15 322.239H409.904C410.421 322.239 410.84 321.796 410.84 321.249V320.939C410.84 320.392 410.421 319.949 409.904 319.949Z" fill="#E6E6E6"/>
<path d="M409.904 324.57H375.15C374.633 324.57 374.214 325.013 374.214 325.559V325.869C374.214 326.416 374.633 326.859 375.15 326.859H409.904C410.421 326.859 410.84 326.416 410.84 325.869V325.559C410.84 325.013 410.421 324.57 409.904 324.57Z" fill="#E6E6E6"/>
<path d="M460.831 266.234H415.69C415.347 266.234 415.008 266.298 414.691 266.421C414.375 266.545 414.087 266.726 413.845 266.954C413.603 267.182 413.41 267.453 413.279 267.751C413.148 268.049 413.081 268.369 413.081 268.691V278.914C413.081 279.236 413.148 279.556 413.279 279.854C413.41 280.152 413.603 280.423 413.845 280.651C414.087 280.879 414.375 281.06 414.691 281.184C415.008 281.307 415.347 281.371 415.69 281.371H416.353V283.217C416.353 283.329 416.388 283.439 416.454 283.532C416.52 283.625 416.614 283.698 416.724 283.741C416.834 283.784 416.955 283.795 417.072 283.773C417.188 283.751 417.296 283.697 417.38 283.618L419.767 281.371H460.831C461.174 281.371 461.513 281.307 461.83 281.184C462.146 281.06 462.434 280.879 462.676 280.651C462.918 280.423 463.111 280.152 463.242 279.854C463.373 279.556 463.44 279.236 463.44 278.914V268.691C463.44 268.369 463.373 268.049 463.242 267.751C463.111 267.453 462.918 267.182 462.676 266.954C462.434 266.726 462.146 266.545 461.83 266.421C461.513 266.298 461.174 266.234 460.831 266.234Z" fill="#F2F2F2"/>
<path d="M460.639 280.731H415.88C415.542 280.731 415.218 280.592 414.979 280.346C414.741 280.099 414.606 279.765 414.606 279.416V268.311C414.606 267.963 414.741 267.629 414.979 267.382C415.218 267.136 415.542 266.997 415.88 266.997H449.875C453.067 267 456.127 268.31 458.384 270.638C460.64 272.967 461.91 276.124 461.914 279.416C461.913 279.765 461.779 280.099 461.54 280.346C461.301 280.592 460.977 280.731 460.639 280.731Z" fill="white"/>
<path d="M451.901 275.39H424.62C424.146 275.39 423.763 275.903 423.763 276.535V276.535C423.763 277.167 424.146 277.679 424.62 277.679H451.901C452.374 277.679 452.758 277.167 452.758 276.535C452.758 275.903 452.374 275.39 451.901 275.39Z" fill="#E6E6E6"/>
<path d="M359.989 283.784H405.13C405.473 283.784 405.812 283.85 406.129 283.979C406.445 284.108 406.733 284.297 406.975 284.535C407.218 284.773 407.41 285.055 407.541 285.366C407.672 285.677 407.74 286.011 407.74 286.347V297.014C407.74 297.351 407.672 297.684 407.541 297.995C407.41 298.306 407.218 298.589 406.975 298.827C406.733 299.065 406.445 299.254 406.129 299.383C405.812 299.512 405.473 299.578 405.13 299.578H404.468V301.505C404.468 301.622 404.432 301.736 404.366 301.834C404.3 301.931 404.206 302.007 404.096 302.051C403.986 302.096 403.865 302.108 403.748 302.085C403.632 302.062 403.524 302.006 403.44 301.923L401.053 299.578H359.989C359.646 299.578 359.307 299.512 358.99 299.383C358.674 299.254 358.386 299.065 358.144 298.827C357.902 298.589 357.709 298.306 357.578 297.995C357.447 297.684 357.38 297.351 357.38 297.014V286.347C357.38 286.011 357.447 285.677 357.578 285.366C357.709 285.055 357.902 284.773 358.144 284.535C358.386 284.297 358.674 284.108 358.99 283.979C359.307 283.85 359.646 283.784 359.989 283.784Z" fill="#F2F2F2"/>
<path d="M359.668 296.966C359.671 293.673 360.92 290.516 363.141 288.188C365.361 285.86 368.372 284.55 371.512 284.546H404.959C405.291 284.547 405.61 284.685 405.845 284.932C406.08 285.178 406.212 285.512 406.212 285.861V296.966C406.212 297.315 406.08 297.649 405.845 297.895C405.61 298.142 405.291 298.28 404.959 298.281H360.921C360.589 298.28 360.27 298.142 360.035 297.895C359.8 297.649 359.668 297.315 359.668 296.966Z" fill="white"/>
<path d="M373.456 289.124H391.664C392.114 289.124 392.479 288.783 392.479 288.361C392.479 287.94 392.114 287.598 391.664 287.598H373.456C373.006 287.598 372.641 287.94 372.641 288.361C372.641 288.783 373.006 289.124 373.456 289.124Z" fill="#E6E6E6"/>
<path d="M368.92 292.177H396.201C396.674 292.177 397.058 291.835 397.058 291.414V291.414C397.058 290.992 396.674 290.651 396.201 290.651H368.92C368.446 290.651 368.063 290.992 368.063 291.414C368.063 291.835 368.446 292.177 368.92 292.177Z" fill="#E6E6E6"/>
<path d="M368.92 295.992H396.201C396.674 295.992 397.058 295.65 397.058 295.229C397.058 294.808 396.674 294.466 396.201 294.466H368.92C368.446 294.466 368.063 294.808 368.063 295.229C368.063 295.65 368.446 295.992 368.92 295.992Z" fill="#E6E6E6"/>
<path d="M335.252 420.548L320.909 423.418L320.872 423.242C320.567 421.807 320.862 420.312 321.692 419.088C322.523 417.863 323.822 417.009 325.302 416.713L325.303 416.713L327.512 414.261L332.81 415.21L334.062 414.96L335.252 420.548Z" fill="#2F2E41"/>
<path d="M360.433 419.132L346.344 424.18L346.28 424.002C345.756 422.555 345.832 420.96 346.49 419.568C347.148 418.176 348.335 417.102 349.789 416.58L349.789 416.58L351.66 413.715L357.164 413.938L358.394 413.497L360.433 419.132Z" fill="#2F2E41"/>
</svg>
