<svg width="390" height="294" viewBox="0 0 390 294" fill="none" xmlns="http://www.w3.org/2000/svg">
<rect width="390" height="292" fill="#2F2E41"/>
<path d="M164.5 1C3.71912 1 -126.759 131.073 -128 292H457C455.759 131.073 325.281 1 164.5 1Z" fill="#2F2E41"/>
<path d="M149.273 35.1936C150.768 35.1936 151.981 33.8601 151.981 32.2151C151.981 30.5701 150.768 29.2366 149.273 29.2366C147.777 29.2366 146.565 30.5701 146.565 32.2151C146.565 33.8601 147.777 35.1936 149.273 35.1936Z" fill="#F2F2F2"/>
<path d="M58.8336 128.34C59.4318 128.34 59.9167 127.855 59.9167 127.257C59.9167 126.659 59.4318 126.174 58.8336 126.174C58.2355 126.174 57.7505 126.659 57.7505 127.257C57.7505 127.855 58.2355 128.34 58.8336 128.34Z" fill="#F2F2F2"/>
<path d="M228.88 182.495C229.478 182.495 229.963 182.01 229.963 181.411C229.963 180.813 229.478 180.328 228.88 180.328C228.282 180.328 227.797 180.813 227.797 181.411C227.797 182.01 228.282 182.495 228.88 182.495Z" fill="#F2F2F2"/>
<path d="M378.348 127.257C378.946 127.257 379.431 126.772 379.431 126.173C379.431 125.575 378.946 125.09 378.348 125.09C377.75 125.09 377.265 125.575 377.265 126.173C377.265 126.772 377.75 127.257 378.348 127.257Z" fill="#F2F2F2"/>
<path d="M7.92868 139.171C8.52686 139.171 9.01177 138.686 9.01177 138.087C9.01177 137.489 8.52686 137.004 7.92868 137.004C7.3305 137.004 6.84558 137.489 6.84558 138.087C6.84558 138.686 7.3305 139.171 7.92868 139.171Z" fill="#F2F2F2"/>
<path d="M197.2 116.426C197.948 116.426 198.554 115.819 198.554 115.072C198.554 114.324 197.948 113.718 197.2 113.718C196.452 113.718 195.846 114.324 195.846 115.072C195.846 115.819 196.452 116.426 197.2 116.426Z" fill="#F2F2F2"/>
<path d="M235.379 33.028C235.977 33.028 236.462 32.5431 236.462 31.9449C236.462 31.3467 235.977 30.8618 235.379 30.8618C234.78 30.8618 234.295 31.3467 234.295 31.9449C234.295 32.5431 234.78 33.028 235.379 33.028Z" fill="#F2F2F2"/>
<path d="M29.5905 80.1423H27.9658V80.6839H29.5905V80.1423Z" fill="#F2F2F2"/>
<path d="M112.448 145.669H111.365V146.21H112.448V145.669Z" fill="#F2F2F2"/>
<path d="M332.857 171.122H331.774V171.664H332.857V171.122Z" fill="#F2F2F2"/>
<path d="M264.08 82.8501H262.997V83.3916H264.08V82.8501Z" fill="#F2F2F2"/>
<path d="M4.13739 211.739H1.97119V291.888H4.13739V211.739Z" fill="#3F3D56"/>
<path d="M22.55 197.567C22.6788 225.681 3.01731 248.564 3.01731 248.564C3.01731 248.564 -16.853 225.864 -16.9818 197.75C-17.1106 169.635 2.55088 146.753 2.55088 146.753C2.55088 146.753 22.4212 169.452 22.55 197.567Z" fill="#3F3D56"/>
<path d="M3.05412 176.69C3.22173 213.029 -22.3651 242.607 -22.3651 242.607C-22.3651 242.607 -48.2237 213.266 -48.3913 176.927C-48.559 140.588 -22.9721 111.01 -22.9721 111.01C-22.9721 111.01 2.8865 140.351 3.05412 176.69Z" fill="#3F3D56"/>
<path d="M284.66 211.739H282.494V291.888H284.66V211.739Z" fill="#0066E0"/>
<path d="M303.612 221.666C303.741 249.63 284.08 272.392 284.08 272.392C284.08 272.392 264.21 249.813 264.081 221.848C263.952 193.883 283.613 171.122 283.613 171.122C283.613 171.122 303.484 193.701 303.612 221.666Z" fill="#3F3D56"/>
<path d="M134.109 211.739H131.943V291.888H134.109V211.739Z" fill="#3F3D56"/>
<path d="M153.063 197.567C153.192 225.681 133.531 248.564 133.531 248.564C133.531 248.564 113.66 225.864 113.532 197.75C113.403 169.635 133.064 146.753 133.064 146.753C133.064 146.753 152.934 169.452 153.063 197.567Z" fill="#3F3D56"/>
<path d="M109.198 187.91H106.49V291.887H109.198V187.91Z" fill="#3F3D56"/>
<path d="M133.567 176.69C133.735 213.029 108.148 242.607 108.148 242.607C108.148 242.607 82.2892 213.266 82.1215 176.927C81.9539 140.588 107.541 111.01 107.541 111.01C107.541 111.01 133.399 140.351 133.567 176.69Z" fill="#3F3D56"/>
<path d="M85.9114 211.739H83.7452V291.888H85.9114V211.739Z" fill="#3F3D56"/>
<path d="M104.324 197.567C104.452 225.681 84.7909 248.564 84.7909 248.564C84.7909 248.564 64.9206 225.864 64.7918 197.75C64.663 169.635 84.3244 146.753 84.3244 146.753C84.3244 146.753 104.195 169.452 104.324 197.567Z" fill="#3F3D56"/>
<path d="M297.656 248.754L264.212 217.695C264.121 219.091 264.074 220.502 264.081 221.927C264.208 249.848 283.864 272.392 283.864 272.392C289.587 265.24 294.234 257.275 297.656 248.754Z" fill="#0066E0"/>
<path d="M45.6318 284.566C46.7459 288.753 50.5619 291.346 50.5619 291.346C50.5619 291.346 52.5716 287.151 51.4576 282.963C50.3435 278.776 46.5275 276.183 46.5275 276.183C46.5275 276.183 44.5178 280.378 45.6318 284.566Z" fill="#3F3D56"/>
<path d="M374.998 279.661C371.712 285.329 373.019 292.182 373.019 292.182C373.019 292.182 379.654 289.845 382.94 284.177C386.226 278.508 384.918 271.655 384.918 271.655C384.918 271.655 378.283 273.992 374.998 279.661Z" fill="#3F3D56"/>
<path d="M47.1861 283.757C50.3266 286.748 50.7102 291.346 50.7102 291.346C50.7102 291.346 46.0021 291.094 42.8617 288.103C39.7212 285.113 39.3376 280.515 39.3376 280.515C39.3376 280.515 44.0457 280.766 47.1861 283.757Z" fill="#3F3D56"/>
<path d="M377.523 280.46C377.683 287.016 373.177 292.342 373.177 292.342C373.177 292.342 368.412 287.039 368.252 280.483C368.093 273.927 372.598 268.601 372.598 268.601C372.598 268.601 377.364 273.904 377.523 280.46Z" fill="#3F3D56"/>
<path d="M309.939 283.141C306.916 286.28 306.737 291.157 306.737 291.157C306.737 291.157 311.459 290.944 314.482 287.806C317.505 284.667 317.684 279.79 317.684 279.79C317.684 279.79 312.962 280.002 309.939 283.141Z" fill="#0066E0"/>
<path d="M311.404 284.06C310.384 288.275 306.594 290.906 306.594 290.906C306.594 290.906 304.458 286.703 305.478 282.488C306.498 278.272 310.288 275.641 310.288 275.641C310.288 275.641 312.424 279.844 311.404 284.06Z" fill="#0066E0"/>
<path d="M95.6597 128.954L151.198 212.822C152.438 207.738 153.065 202.523 153.064 197.29C153.001 183.643 148.239 171.28 143.377 162.191L140.808 162.83L143.224 161.908C140.361 156.506 136.95 151.413 133.047 146.708C133.047 146.708 131.63 148.349 129.56 151.288C122.263 127.608 107.657 111.01 107.657 111.01C103.098 116.597 99.0811 122.605 95.6597 128.954Z" fill="#0066E0"/>
<path opacity="0.1" d="M203.788 161.502L203.787 161.501L191.204 149.779L191.091 149.807L186.053 145.166L185.809 145.094L186.072 144.993L132.487 95.0749L80.7377 46.8649L54.3688 61.0365L52.212 61.5203L83.8126 109.842L203.407 292.728H344.648L203.788 161.502Z" fill="#F2F2F2"/>
<path d="M64.5209 66.6036C73.6431 66.6036 81.0381 59.0873 81.0381 49.8156C81.0381 40.5438 73.6431 33.0276 64.5209 33.0276C55.3987 33.0276 48.0037 40.5438 48.0037 49.8156C48.0037 59.0873 55.3987 66.6036 64.5209 66.6036Z" fill="#F2F2F2"/>
<path d="M277.953 266.258L268.468 262.065V258.46L271.849 258.441C272.373 258.438 272.883 258.27 273.308 257.962C273.733 257.653 274.05 257.219 274.216 256.721L276.591 249.582C276.717 249.204 276.751 248.801 276.691 248.407C276.631 248.013 276.478 247.639 276.246 247.316C276.013 246.992 275.707 246.729 275.353 246.547C274.999 246.366 274.607 246.271 274.209 246.271H268.468V242.916H275.675C276.243 242.916 276.794 242.723 277.239 242.369C277.683 242.014 277.995 241.519 278.122 240.964L279.757 233.836C279.842 233.468 279.842 233.085 279.759 232.716C279.675 232.347 279.51 232.001 279.274 231.706C279.039 231.41 278.741 231.171 278.401 231.006C278.06 230.842 277.688 230.757 277.31 230.757H268.468V229.918C268.468 229.698 268.425 229.48 268.341 229.276C268.257 229.073 268.134 228.888 267.978 228.732C267.823 228.576 267.638 228.453 267.435 228.369C267.232 228.284 267.014 228.241 266.795 228.241C266.575 228.241 266.357 228.284 266.154 228.369C265.951 228.453 265.767 228.576 265.611 228.732C265.456 228.888 265.332 229.073 265.248 229.276C265.164 229.48 265.121 229.698 265.121 229.918V230.757H205.842V229.918C205.842 229.473 205.666 229.047 205.352 228.732C205.038 228.418 204.613 228.241 204.169 228.241C203.725 228.241 203.299 228.418 202.985 228.732C202.671 229.047 202.495 229.473 202.495 229.918V230.757H195.466C195.089 230.757 194.716 230.842 194.376 231.006C194.036 231.171 193.737 231.41 193.502 231.706C193.267 232.001 193.101 232.347 193.018 232.716C192.934 233.085 192.935 233.468 193.019 233.836L194.655 240.964C194.782 241.519 195.093 242.014 195.538 242.369C195.982 242.723 196.533 242.916 197.102 242.916H202.495V246.271H198.568C198.172 246.271 197.782 246.365 197.429 246.544C197.076 246.724 196.771 246.985 196.538 247.305C196.305 247.626 196.151 247.997 196.089 248.389C196.026 248.78 196.057 249.181 196.178 249.558L198.602 257.095C198.765 257.604 199.086 258.048 199.519 258.361C199.951 258.675 200.472 258.843 201.005 258.84L202.495 258.831V262.065L194.824 266.258C194.494 266.258 194.167 266.323 193.863 266.449C193.558 266.575 193.281 266.761 193.048 266.994C192.815 267.228 192.63 267.505 192.504 267.811C192.378 268.116 192.313 268.443 192.313 268.773C192.313 269.441 192.577 270.08 193.048 270.552C193.519 271.024 194.158 271.289 194.824 271.289H202.495V289.738C202.495 290.183 202.671 290.61 202.985 290.924C203.299 291.239 203.725 291.416 204.169 291.416C204.613 291.416 205.038 291.239 205.352 290.924C205.666 290.61 205.842 290.183 205.842 289.738V271.289H265.121V289.738C265.121 290.183 265.297 290.61 265.611 290.924C265.925 291.239 266.351 291.416 266.795 291.416C267.239 291.416 267.664 291.239 267.978 290.924C268.292 290.61 268.468 290.183 268.468 289.738V271.289H277.953C278.619 271.289 279.257 271.024 279.728 270.552C280.199 270.08 280.464 269.441 280.464 268.773C280.464 268.443 280.399 268.116 280.272 267.811C280.146 267.505 279.961 267.228 279.728 266.994C279.495 266.761 279.218 266.575 278.914 266.449C278.609 266.323 278.283 266.258 277.953 266.258ZM205.842 242.916H265.121V246.271H205.842V242.916ZM205.842 262.065V258.812L265.121 258.479V262.065H205.842Z" fill="#E6E6E6"/>
<path d="M236.851 284.597L234.394 285.314L230.484 276.089L234.11 275.03L236.851 284.597Z" fill="#9E616A"/>
<path d="M243.391 251.033L240.784 253.758C240.784 253.758 227.056 259.717 227.056 262.781C227.056 265.846 230.358 279.126 231.748 280.147C232.585 280.766 232.207 281.432 232.622 282.376L237.483 280.658C237.483 280.658 237.135 279.637 237.483 279.126C237.83 278.615 237.483 278.275 237.483 278.275C237.483 278.275 236.961 278.445 237.135 277.934C237.309 277.423 237.309 277.253 237.135 277.083C236.961 276.912 236.44 275.38 236.44 275.38C236.44 275.38 236.614 269.251 234.181 267.038C234.181 267.038 245.476 263.803 246.866 261.589C248.257 259.376 248.604 251.374 248.604 251.374L243.391 251.033Z" fill="#2F2E41"/>
<path d="M246.421 274.05L243.218 276.191L249.863 283.845L252.033 282.394L246.421 274.05Z" fill="#9E616A"/>
<path d="M251.153 246.371C249.466 242.815 254.61 253.331 253.929 256.588C253.397 259.131 243.464 267.229 243.464 267.229C246.457 268.503 248.373 274.326 248.373 274.326C248.373 274.326 249.373 275.595 249.591 275.697C249.809 275.8 249.866 275.96 249.879 276.498C249.892 277.036 250.315 276.703 250.315 276.703C250.315 276.703 250.751 276.908 250.604 277.503C250.456 278.099 251.123 278.945 251.123 278.945L247.441 282.376C246.738 281.626 246.644 280.671 245.663 280.367C244.035 279.868 236.491 268.472 235.453 265.589C234.415 262.707 245.052 252.547 245.052 252.547L245.956 247.518L251.153 246.371Z" fill="#2F2E41"/>
<path d="M244.836 229.485L242.518 231.2L236.362 232.785C236.362 232.785 238.568 247.83 237.527 248.842C236.486 249.854 237.425 249.881 237.215 251.196C237.006 252.51 236.498 255.204 236.498 255.204C243.525 258.82 249.584 258.917 254.45 254.686C254.512 254.424 254.481 254.15 254.36 253.908C254.24 253.666 254.038 253.472 253.789 253.356C252.883 252.889 254.624 250.709 253.884 250.345C253.143 249.98 254.184 246.819 254.184 246.819L256.441 236.467L250.439 231.903L249.527 229.766L244.836 229.485Z" fill="#0066E0"/>
<path d="M248.115 242.708C248.656 242.708 249.095 242.38 249.095 241.974C249.095 241.568 248.656 241.239 248.115 241.239C247.574 241.239 247.136 241.568 247.136 241.974C247.136 242.38 247.574 242.708 248.115 242.708Z" fill="#F2F2F2"/>
<path d="M247.381 228.016C249.951 228.016 252.034 226.042 252.034 223.608C252.034 221.174 249.951 219.201 247.381 219.201C244.812 219.201 242.729 221.174 242.729 223.608C242.729 226.042 244.812 228.016 247.381 228.016Z" fill="#9E616A"/>
<path opacity="0.1" d="M254.48 241.693L254.807 242.218L254.97 239.769L254.48 241.693Z" fill="black"/>
<path d="M236.878 232.43C236.878 232.43 235.933 232.239 235.367 233.962C234.8 235.686 231.954 244.761 231.954 245.91C231.954 247.059 245.666 249.564 245.666 249.564L244.319 244.776L238.09 242.801L236.878 232.43Z" fill="#0066E0"/>
<path d="M246.401 248.585C247.618 248.585 248.605 247.708 248.605 246.626C248.605 245.544 247.618 244.667 246.401 244.667C245.184 244.667 244.197 245.544 244.197 246.626C244.197 247.708 245.184 248.585 246.401 248.585Z" fill="#9E616A"/>
<path opacity="0.1" d="M238.812 240.749L238.991 242.946L244.688 245.646L239.621 242.577L238.812 240.749Z" fill="black"/>
<path d="M251.544 239.483H251.473V237.493C251.473 237.342 251.445 237.192 251.389 237.052C251.333 236.912 251.251 236.785 251.148 236.678C251.044 236.571 250.922 236.487 250.787 236.429C250.652 236.371 250.507 236.341 250.361 236.341H246.289C246.143 236.341 245.999 236.371 245.864 236.429C245.729 236.487 245.606 236.571 245.503 236.678C245.4 236.785 245.318 236.912 245.262 237.052C245.206 237.192 245.177 237.342 245.177 237.493V248.412C245.177 248.563 245.206 248.713 245.262 248.853C245.318 248.992 245.4 249.119 245.503 249.226C245.606 249.333 245.729 249.418 245.864 249.476C245.999 249.534 246.143 249.564 246.289 249.564H250.361C250.507 249.564 250.652 249.534 250.787 249.476C250.922 249.418 251.044 249.333 251.148 249.226C251.251 249.119 251.333 248.992 251.389 248.853C251.445 248.713 251.473 248.563 251.473 248.412V240.9H251.544V239.483Z" fill="#F0F0F0"/>
<path d="M256.26 236.341C256.26 236.341 256.84 236.733 257.226 238.496C257.613 240.259 260.126 246.92 259.159 248.487C258.193 250.054 257.908 251.727 254.622 249.376L250.074 245.157L253.36 242.022L254.714 243.002L256.26 236.341Z" fill="#0066E0"/>
<path d="M248.36 241.238C249.036 241.238 249.584 240.91 249.584 240.504C249.584 240.098 249.036 239.769 248.36 239.769C247.684 239.769 247.136 240.098 247.136 240.504C247.136 240.91 247.684 241.238 248.36 241.238Z" fill="#0066E0"/>
<path d="M251.054 244.667C252.136 244.667 253.013 243.68 253.013 242.463C253.013 241.246 252.136 240.26 251.054 240.26C249.972 240.26 249.095 241.246 249.095 242.463C249.095 243.68 249.972 244.667 251.054 244.667Z" fill="#9E616A"/>
<path opacity="0.1" d="M237.831 247.605L244.688 249.238L238.012 249.564L237.831 247.605Z" fill="black"/>
<path d="M251.161 220.802C251.161 220.802 252.358 218.49 249.726 218.279C249.726 218.279 247.482 216.221 245.194 217.903C245.194 217.903 243.947 217.903 243.264 219.33C243.264 219.33 242.283 218.954 242.068 219.961C242.068 219.961 241.35 222.063 242.068 223.955C242.786 225.847 243.024 226.057 243.024 226.057C243.024 226.057 242.52 223.709 245.392 223.499C248.264 223.289 250.899 221.47 251.138 223.783C251.377 226.095 251.64 225.05 251.64 225.05C251.64 225.05 253.913 221.748 251.161 220.802Z" fill="#2F2E41"/>
<path d="M295.91 215.773H258.598C258.026 215.773 257.477 215.997 257.072 216.395C256.668 216.794 256.441 217.335 256.441 217.898V226.741C256.441 227.305 256.668 227.846 257.072 228.244C257.477 228.643 258.026 228.867 258.598 228.867H259.145V230.464C259.145 230.561 259.174 230.656 259.229 230.737C259.284 230.817 259.361 230.88 259.452 230.917C259.543 230.954 259.643 230.964 259.74 230.945C259.836 230.926 259.925 230.879 259.994 230.811L261.967 228.867H295.91C296.483 228.867 297.031 228.643 297.436 228.244C297.84 227.846 298.067 227.305 298.067 226.741V217.898C298.067 217.619 298.012 217.343 297.903 217.085C297.795 216.827 297.636 216.593 297.436 216.395C297.235 216.198 296.998 216.042 296.736 215.935C296.474 215.828 296.194 215.773 295.91 215.773Z" fill="#3F3D56"/>
<path d="M295.542 227.526H258.475C258.195 227.526 257.927 227.417 257.729 227.224C257.531 227.03 257.42 226.768 257.419 226.495V217.783C257.42 217.51 257.531 217.248 257.729 217.055C257.927 216.861 258.195 216.752 258.475 216.752H286.627C289.271 216.755 291.805 217.783 293.674 219.609C295.543 221.436 296.595 223.912 296.597 226.495C296.597 226.768 296.486 227.03 296.288 227.224C296.09 227.417 295.822 227.526 295.542 227.526Z" fill="white"/>
<path d="M282.774 218.457H267.307C266.98 218.457 266.715 218.741 266.715 219.092V219.291C266.715 219.642 266.98 219.926 267.307 219.926H282.774C283.101 219.926 283.366 219.642 283.366 219.291V219.092C283.366 218.741 283.101 218.457 282.774 218.457Z" fill="#0066E0"/>
<path d="M286.233 221.844H263.928C263.596 221.844 263.327 222.129 263.327 222.479V222.679C263.327 223.029 263.596 223.314 263.928 223.314H286.233C286.565 223.314 286.834 223.029 286.834 222.679V222.479C286.834 222.129 286.565 221.844 286.233 221.844Z" fill="#E6E6E6"/>
<path d="M286.233 224.809H263.928C263.596 224.809 263.327 225.094 263.327 225.444V225.644C263.327 225.994 263.596 226.279 263.928 226.279H286.233C286.565 226.279 286.834 225.994 286.834 225.644V225.444C286.834 225.094 286.565 224.809 286.233 224.809Z" fill="#E6E6E6"/>
<path d="M318.92 187.369H289.948C289.728 187.369 289.51 187.41 289.307 187.489C289.104 187.568 288.919 187.685 288.763 187.831C288.608 187.977 288.485 188.151 288.4 188.343C288.316 188.534 288.273 188.739 288.273 188.946V195.507C288.273 195.714 288.316 195.919 288.4 196.11C288.485 196.302 288.608 196.476 288.763 196.622C288.919 196.768 289.104 196.885 289.307 196.964C289.51 197.043 289.728 197.084 289.948 197.084H290.373V198.269C290.373 198.341 290.396 198.411 290.438 198.471C290.48 198.531 290.541 198.578 290.611 198.605C290.682 198.633 290.76 198.64 290.835 198.626C290.909 198.612 290.978 198.577 291.032 198.526L292.564 197.084H318.92C319.14 197.084 319.358 197.043 319.561 196.964C319.764 196.885 319.949 196.768 320.104 196.622C320.26 196.476 320.383 196.302 320.467 196.11C320.552 195.919 320.595 195.714 320.595 195.507V188.946C320.595 188.739 320.552 188.534 320.467 188.343C320.383 188.151 320.26 187.977 320.104 187.831C319.949 187.685 319.764 187.568 319.561 187.489C319.358 187.41 319.14 187.369 318.92 187.369Z" fill="#F2F2F2"/>
<path d="M318.797 196.673H290.07C289.853 196.673 289.645 196.584 289.492 196.426C289.338 196.268 289.252 196.053 289.252 195.83V188.702C289.252 188.478 289.338 188.264 289.492 188.106C289.645 187.948 289.853 187.859 290.07 187.858H311.888C313.937 187.861 315.901 188.701 317.349 190.196C318.798 191.69 319.613 193.716 319.615 195.83C319.615 196.053 319.528 196.268 319.375 196.426C319.222 196.584 319.014 196.673 318.797 196.673Z" fill="white"/>
<path d="M313.188 193.246H295.678C295.375 193.246 295.128 193.574 295.128 193.98V193.98C295.128 194.386 295.375 194.715 295.678 194.715H313.188C313.492 194.715 313.738 194.386 313.738 193.98C313.738 193.574 313.492 193.246 313.188 193.246Z" fill="#E6E6E6"/>
<path d="M254.198 198.632H283.17C283.39 198.632 283.608 198.675 283.811 198.758C284.014 198.84 284.199 198.961 284.355 199.114C284.51 199.267 284.633 199.448 284.718 199.648C284.802 199.848 284.845 200.062 284.845 200.278V207.124C284.845 207.34 284.802 207.554 284.718 207.754C284.633 207.953 284.51 208.135 284.355 208.287C284.199 208.44 284.014 208.561 283.811 208.644C283.608 208.727 283.39 208.769 283.17 208.769H282.745V210.006C282.745 210.081 282.722 210.155 282.68 210.217C282.638 210.279 282.577 210.328 282.507 210.357C282.436 210.386 282.358 210.393 282.283 210.378C282.209 210.364 282.14 210.328 282.086 210.275L280.554 208.769H254.198C253.978 208.769 253.76 208.727 253.557 208.644C253.354 208.561 253.169 208.44 253.014 208.287C252.858 208.135 252.735 207.953 252.651 207.754C252.567 207.554 252.523 207.34 252.523 207.124V200.278C252.523 200.062 252.567 199.848 252.651 199.648C252.735 199.448 252.858 199.267 253.014 199.114C253.169 198.961 253.354 198.84 253.557 198.758C253.76 198.675 253.978 198.632 254.198 198.632Z" fill="#F2F2F2"/>
<path d="M253.991 207.093C253.993 204.98 254.795 202.954 256.22 201.459C257.645 199.965 259.578 199.124 261.593 199.122H283.06C283.273 199.122 283.478 199.211 283.629 199.369C283.779 199.528 283.864 199.742 283.864 199.966V207.093C283.864 207.317 283.779 207.532 283.629 207.69C283.478 207.848 283.273 207.937 283.06 207.937H254.796C254.583 207.937 254.378 207.848 254.227 207.69C254.076 207.532 253.991 207.317 253.991 207.093Z" fill="white"/>
<path d="M262.841 202.06H274.527C274.816 202.06 275.05 201.841 275.05 201.571C275.05 201.3 274.816 201.081 274.527 201.081H262.841C262.552 201.081 262.317 201.3 262.317 201.571C262.317 201.841 262.552 202.06 262.841 202.06Z" fill="#E6E6E6"/>
<path d="M259.929 204.02H277.438C277.742 204.02 277.988 203.801 277.988 203.53V203.53C277.988 203.26 277.742 203.04 277.438 203.04H259.929C259.625 203.04 259.379 203.26 259.379 203.53C259.379 203.801 259.625 204.02 259.929 204.02Z" fill="#E6E6E6"/>
<path d="M259.929 206.469H277.438C277.742 206.469 277.988 206.249 277.988 205.979C277.988 205.708 277.742 205.489 277.438 205.489H259.929C259.625 205.489 259.379 205.708 259.379 205.979C259.379 206.249 259.625 206.469 259.929 206.469Z" fill="#E6E6E6"/>
<path d="M238.321 286.41L229.115 288.252L229.091 288.139C228.895 287.218 229.085 286.259 229.618 285.473C230.151 284.687 230.985 284.139 231.935 283.948L231.935 283.948L233.353 282.375L236.754 282.984L237.557 282.824L238.321 286.41Z" fill="#2F2E41"/>
<path d="M254.482 285.502L245.439 288.742L245.398 288.628C245.062 287.699 245.111 286.675 245.533 285.782C245.956 284.889 246.717 284.199 247.651 283.864L247.651 283.864L248.851 282.026L252.384 282.169L253.174 281.886L254.482 285.502Z" fill="#2F2E41"/>
</svg>
