<svg width="451" height="558" viewBox="0 0 451 558" fill="none" xmlns="http://www.w3.org/2000/svg">
<path d="M189.756 419.986C294.555 419.986 379.511 335.029 379.511 230.23C379.511 125.431 294.555 40.4742 189.756 40.4742C84.9565 40.4742 0 125.431 0 230.23C0 335.029 84.9565 419.986 189.756 419.986Z" fill="#E6E6E6"/>
<path d="M353.028 230.23C353.047 255.707 347.096 280.835 335.651 303.597C324.207 326.359 307.587 346.123 287.126 361.302C285.758 362.326 284.363 363.324 282.96 364.294C255.598 383.314 223.073 393.508 189.75 393.508C156.427 393.508 123.902 383.314 96.5405 364.294C95.1372 363.324 93.7427 362.326 92.3747 361.302C71.9274 346.109 55.3183 326.343 43.8751 303.584C32.432 280.825 26.4722 255.704 26.4722 230.23C26.4722 204.756 32.432 179.635 43.8751 156.876C55.3183 134.117 71.9274 114.351 92.3747 99.1573C93.7427 98.1335 95.1372 97.1362 96.5405 96.1653C123.902 77.1458 156.427 66.9518 189.75 66.9518C223.073 66.9518 255.598 77.1458 282.96 96.1653C284.363 97.1362 285.758 98.1335 287.126 99.1573C307.587 114.337 324.207 134.101 335.651 156.863C347.096 179.625 353.047 204.752 353.028 230.23Z" fill="white"/>
<path d="M189.753 379.388C272.13 379.388 338.91 312.608 338.91 230.231C338.91 147.854 272.13 81.0747 189.753 81.0747C107.376 81.0747 40.5962 147.854 40.5962 230.231C40.5962 312.608 107.376 379.388 189.753 379.388Z" fill="#0066E0"/>
<path opacity="0.2" d="M190.144 81.4902C187.883 81.4902 185.636 81.5494 183.399 81.6489C221.098 84.9616 256.127 102.481 281.391 130.656C306.656 158.832 320.265 195.558 319.462 233.394C318.658 271.229 303.503 307.344 277.066 334.423C250.63 361.501 214.888 377.518 177.083 379.228C181.388 379.602 185.742 379.804 190.144 379.804C229.703 379.804 267.642 364.089 295.614 336.117C323.586 308.144 339.301 270.206 339.301 230.647C339.301 191.088 323.586 153.15 295.614 125.177C267.642 97.2049 229.703 81.4902 190.144 81.4902Z" fill="black"/>
<path d="M190.194 70.4806C188.907 70.4828 187.674 70.995 186.764 71.9049C185.854 72.8147 185.342 74.0481 185.34 75.3348V96.5168C185.34 97.8042 185.851 99.0389 186.762 99.9493C187.672 100.86 188.907 101.371 190.194 101.371C191.481 101.371 192.716 100.86 193.627 99.9493C194.537 99.0389 195.048 97.8042 195.048 96.5168V75.3348C195.046 74.0481 194.534 72.8147 193.624 71.9049C192.714 70.995 191.481 70.4828 190.194 70.4806Z" fill="white"/>
<path d="M287.127 99.161C285.759 98.1373 284.364 97.1399 282.961 96.1691C282.119 96.1142 281.277 96.2799 280.518 96.6498C279.76 97.0198 279.111 97.5811 278.636 98.2785L266.712 115.78C265.988 116.844 265.716 118.152 265.956 119.417C266.196 120.681 266.928 121.799 267.992 122.523C269.056 123.248 270.364 123.52 271.629 123.28C272.893 123.04 274.011 122.307 274.735 121.243L286.659 103.742C287.112 103.078 287.393 102.311 287.475 101.511C287.556 100.711 287.437 99.903 287.127 99.161Z" fill="white"/>
<path d="M341.302 178.965C341.062 178.375 340.709 177.837 340.261 177.384C339.814 176.931 339.282 176.57 338.695 176.322C338.108 176.075 337.478 175.945 336.841 175.942C336.204 175.938 335.573 176.059 334.983 176.299L315.354 184.269C314.163 184.754 313.213 185.693 312.713 186.878C312.213 188.064 312.204 189.399 312.689 190.591C313.173 191.783 314.11 192.734 315.295 193.235C316.48 193.736 317.816 193.746 319.008 193.262L338.637 185.293C339.828 184.805 340.777 183.865 341.276 182.679C341.776 181.493 341.785 180.157 341.302 178.965Z" fill="white"/>
<path d="M112.795 115.78L100.871 98.2785C100.396 97.5811 99.7473 97.0198 98.9889 96.6498C98.2305 96.2799 97.3887 96.1142 96.5466 96.1691C95.1433 97.1399 93.7488 98.1373 92.3808 99.161C92.0707 99.903 91.9511 100.711 92.0328 101.511C92.1145 102.311 92.3949 103.078 92.8486 103.742L104.772 121.243C105.497 122.307 106.614 123.04 107.879 123.28C109.143 123.52 110.451 123.248 111.515 122.523C112.579 121.799 113.312 120.681 113.552 119.417C113.792 118.152 113.519 116.844 112.795 115.78Z" fill="white"/>
<path d="M64.1508 184.268L44.5221 176.298C43.3296 175.814 41.9935 175.823 40.8078 176.324C39.622 176.824 38.6837 177.776 38.1992 178.968C37.7148 180.161 37.7238 181.497 38.2243 182.683C38.7248 183.868 39.6758 184.807 40.8682 185.292L60.4969 193.261C61.6892 193.744 63.0246 193.734 64.2096 193.233C65.3946 192.733 66.3322 191.782 66.8165 190.59C67.3007 189.398 67.292 188.062 66.7921 186.877C66.2923 185.692 65.3423 184.753 64.1508 184.268Z" fill="white"/>
<path d="M190.194 359.091C188.907 359.093 187.674 359.605 186.764 360.515C185.854 361.425 185.342 362.659 185.34 363.945V385.127C185.34 386.415 185.851 387.649 186.762 388.56C187.672 389.47 188.907 389.982 190.194 389.982C191.481 389.982 192.716 389.47 193.627 388.56C194.537 387.649 195.048 386.415 195.048 385.127V363.945C195.046 362.659 194.534 361.425 193.624 360.515C192.714 359.605 191.481 359.093 190.194 359.091Z" fill="white"/>
<path d="M286.659 356.727L274.735 339.225C274.376 338.698 273.917 338.247 273.384 337.898C272.851 337.548 272.255 337.307 271.629 337.189C271.002 337.07 270.359 337.075 269.735 337.205C269.111 337.335 268.519 337.587 267.992 337.945C267.465 338.304 267.014 338.763 266.665 339.296C266.316 339.829 266.075 340.426 265.956 341.052C265.837 341.678 265.843 342.321 265.972 342.945C266.102 343.569 266.354 344.161 266.712 344.688L278.636 362.19C279.111 362.887 279.76 363.449 280.518 363.818C281.277 364.188 282.119 364.354 282.961 364.299C284.364 363.328 285.759 362.331 287.127 361.307C287.437 360.565 287.556 359.758 287.475 358.958C287.393 358.158 287.112 357.391 286.659 356.727Z" fill="white"/>
<path d="M338.635 275.17L319.006 267.2C317.813 266.716 316.477 266.725 315.292 267.225C314.106 267.726 313.168 268.677 312.683 269.87C312.199 271.062 312.208 272.398 312.708 273.584C313.209 274.77 314.16 275.709 315.352 276.193L334.981 284.163C336.173 284.646 337.509 284.636 338.694 284.135C339.878 283.634 340.816 282.683 341.3 281.491C341.785 280.3 341.776 278.964 341.276 277.779C340.776 276.593 339.826 275.655 338.635 275.17Z" fill="white"/>
<path d="M111.515 337.945C110.451 337.221 109.143 336.949 107.879 337.189C106.614 337.429 105.497 338.161 104.772 339.225L92.8486 356.726C92.3949 357.39 92.1145 358.157 92.0328 358.957C91.9511 359.757 92.0707 360.565 92.3808 361.307C93.7488 362.331 95.1433 363.328 96.5466 364.299C97.3887 364.354 98.2305 364.188 98.9889 363.818C99.7473 363.448 100.396 362.887 100.871 362.189L112.795 344.688C113.154 344.161 113.405 343.569 113.535 342.945C113.665 342.321 113.671 341.677 113.552 341.051C113.433 340.425 113.192 339.828 112.842 339.295C112.493 338.762 112.042 338.304 111.515 337.945Z" fill="white"/>
<path d="M66.8186 269.866C66.5788 269.276 66.2251 268.739 65.7778 268.286C65.3304 267.832 64.798 267.472 64.2112 267.224C63.6243 266.977 62.9944 266.847 62.3575 266.843C61.7206 266.839 61.0892 266.961 60.4993 267.201L40.8706 275.171C39.6791 275.656 38.7291 276.595 38.2292 277.78C37.7294 278.965 37.7206 280.301 38.2049 281.493C38.6891 282.685 39.6267 283.636 40.8117 284.136C41.9967 284.637 43.3321 284.647 44.5245 284.164L64.1531 276.194C65.344 275.707 66.2932 274.767 66.7927 273.581C67.2923 272.395 67.3016 271.059 66.8186 269.866Z" fill="white"/>
<path d="M196.495 227.819C196.943 230.472 196.321 233.195 194.764 235.39C193.207 237.585 190.843 239.073 188.191 239.527L102.052 254.179C100.738 254.402 99.3932 254.365 98.0937 254.069C96.7942 253.772 95.5658 253.223 94.4786 252.452C93.3914 251.681 92.4667 250.703 91.7574 249.574C91.0481 248.446 90.5679 247.189 90.3444 245.875C90.1209 244.561 90.1584 243.216 90.4547 241.916C90.7511 240.617 91.3005 239.388 92.0716 238.301C92.8427 237.214 93.8204 236.289 94.9488 235.58C96.0773 234.87 97.3344 234.39 98.6484 234.167L184.787 219.515C187.44 219.067 190.163 219.689 192.358 221.246C194.553 222.803 196.041 225.166 196.495 227.819Z" fill="#E6E6E6"/>
<path d="M287.151 323.255C285.913 324.499 284.233 325.202 282.478 325.209C280.723 325.216 279.037 324.526 277.79 323.292L185.063 231.292C183.818 230.055 183.116 228.375 183.11 226.62C183.104 224.866 183.794 223.181 185.03 221.935C186.266 220.69 187.945 219.986 189.7 219.978C191.454 219.97 193.14 220.659 194.387 221.894L287.114 313.894C288.358 315.131 289.061 316.812 289.068 318.567C289.075 320.322 288.385 322.008 287.151 323.255Z" fill="#151515"/>
<path d="M189.753 241.705C196.089 241.705 201.226 236.568 201.226 230.232C201.226 223.895 196.089 218.758 189.753 218.758C183.416 218.758 178.279 223.895 178.279 230.232C178.279 236.568 183.416 241.705 189.753 241.705Z" fill="#CCCCCC"/>
<path d="M110.722 31.2787C93.1098 58.9676 66.2381 77.3432 33.0985 89.4149C32.4437 89.9053 31.6987 90.262 30.906 90.4645C30.1133 90.6671 29.2885 90.7115 28.4786 90.5952C27.6688 90.479 26.8898 90.2044 26.186 89.7871C25.4823 89.3697 24.8677 88.8179 24.3772 88.1631C6.37613 64.1281 10.4408 29.7774 34.1985 11.4119C39.9422 6.97943 46.5093 3.7321 53.5183 1.85839C60.5273 -0.0153164 67.8388 -0.478079 75.0281 0.496981C82.2175 1.47204 89.1415 3.86549 95.3983 7.53838C101.655 11.2113 107.12 16.0905 111.476 21.8926L111.974 22.5574C112.464 23.2123 112.821 23.9573 113.023 24.75C113.226 25.5427 113.27 26.3675 113.154 27.1773C113.038 27.9872 112.763 28.7662 112.346 29.4699C111.928 30.1736 111.376 30.7882 110.722 31.2787Z" fill="#E6E6E6"/>
<path d="M268.03 21.8926C272.385 16.0904 277.85 11.2113 284.107 7.53837C290.364 3.86548 297.288 1.47204 304.477 0.496984C311.667 -0.478076 318.978 -0.0153261 325.987 1.85838C332.996 3.73209 339.563 6.97942 345.307 11.4119C369.065 29.7773 373.129 64.1281 355.128 88.1631C354.638 88.8179 354.023 89.3697 353.319 89.787C352.616 90.2044 351.837 90.479 351.027 90.5952C350.217 90.7115 349.392 90.6671 348.599 90.4645C347.807 90.262 347.062 89.9054 346.407 89.4149C315.642 77.6365 290.414 57.254 268.784 31.2787C267.461 30.2882 266.586 28.8129 266.352 27.1773C266.117 25.5417 266.541 23.8799 267.532 22.5574L268.03 21.8926Z" fill="#E6E6E6"/>
<path d="M260.308 394.628C259.186 395.258 258.36 396.308 258.01 397.546C257.66 398.784 257.816 400.111 258.442 401.234L286.457 451.297C287.086 452.42 288.135 453.248 289.374 453.597C290.613 453.947 291.94 453.79 293.063 453.162C294.186 452.533 295.014 451.484 295.364 450.245C295.714 449.006 295.558 447.679 294.929 446.556L266.914 396.493C266.284 395.372 265.235 394.546 263.996 394.196C262.758 393.846 261.432 394.002 260.308 394.628Z" fill="#E6E6E6"/>
<path d="M112.591 396.495L84.5766 446.557C83.9483 447.681 83.7919 449.008 84.1418 450.247C84.4918 451.485 85.3194 452.534 86.4427 453.163C87.566 453.791 88.893 453.948 90.1318 453.598C91.3707 453.249 92.4199 452.421 93.0487 451.298L121.064 401.236C121.375 400.68 121.574 400.067 121.649 399.434C121.724 398.801 121.673 398.159 121.5 397.546C121.327 396.932 121.034 396.359 120.639 395.858C120.245 395.358 119.755 394.94 119.199 394.628C118.642 394.317 118.03 394.118 117.397 394.044C116.764 393.969 116.122 394.02 115.508 394.193C114.895 394.366 114.321 394.659 113.821 395.054C113.32 395.449 112.903 395.938 112.591 396.495Z" fill="#E6E6E6"/>
<path d="M292.134 464.118C300.42 464.118 307.138 457.4 307.138 449.114C307.138 440.827 300.42 434.11 292.134 434.11C283.847 434.11 277.13 440.827 277.13 449.114C277.13 457.4 283.847 464.118 292.134 464.118Z" fill="#E6E6E6"/>
<path d="M302.723 80.1921C311.01 80.1921 317.727 73.4746 317.727 65.1881C317.727 56.9017 311.01 50.1842 302.723 50.1842C294.437 50.1842 287.719 56.9017 287.719 65.1881C287.719 73.4746 294.437 80.1921 302.723 80.1921Z" fill="#E6E6E6"/>
<path d="M188.865 44.8907C197.151 44.8907 203.868 38.1732 203.868 29.8867C203.868 21.6003 197.151 14.8828 188.865 14.8828C180.578 14.8828 173.861 21.6003 173.861 29.8867C173.861 38.1732 180.578 44.8907 188.865 44.8907Z" fill="#E6E6E6"/>
<path d="M80.3128 78.4308C88.5992 78.4308 95.3167 71.7134 95.3167 63.4269C95.3167 55.1405 88.5992 48.423 80.3128 48.423C72.0263 48.423 65.3088 55.1405 65.3088 63.4269C65.3088 71.7134 72.0263 78.4308 80.3128 78.4308Z" fill="#E6E6E6"/>
<path d="M90.0227 464.118C98.3092 464.118 105.027 457.4 105.027 449.114C105.027 440.827 98.3092 434.11 90.0227 434.11C81.7363 434.11 75.0188 440.827 75.0188 449.114C75.0188 457.4 81.7363 464.118 90.0227 464.118Z" fill="#E6E6E6"/>
<path d="M280.367 314.82C280.959 315.747 281.746 316.532 282.674 317.121C283.601 317.709 284.647 318.088 285.736 318.229C286.826 318.37 287.934 318.27 288.981 317.937C290.028 317.604 290.989 317.045 291.797 316.3L315.34 328.916L314.078 315.093L291.914 305.233C290.573 303.959 288.811 303.221 286.962 303.159C285.113 303.097 283.305 303.716 281.882 304.898C280.459 306.08 279.518 307.742 279.239 309.571C278.96 311.4 279.361 313.268 280.367 314.82Z" fill="#FFB7B7"/>
<path d="M297.519 319.645L306.745 306.909L351.192 327.921L406.501 317.543C409.235 317.03 412.048 317.125 414.741 317.822C417.434 318.519 419.94 319.799 422.083 321.574C424.225 323.348 425.95 325.572 427.136 328.088C428.322 330.604 428.94 333.351 428.945 336.132C428.949 341.157 426.959 345.977 423.413 349.536C419.867 353.095 415.054 355.102 410.03 355.117L346.646 355.235L297.519 319.645Z" fill="#151515"/>
<path d="M283.308 539.604L273.973 535.14L286.796 496.123L300.572 502.712L283.308 539.604Z" fill="#FFB7B7"/>
<path d="M345.888 533.318C345.21 533.743 344.531 534.161 343.845 534.579C342.481 535.416 341.102 536.238 339.724 537.047C339.032 537.452 338.332 537.857 337.64 538.254V538.275L337.599 538.282L337.585 538.289L336.529 538.549L335.014 534.545L334.314 532.701L333.327 530.088L331.517 525.309L321.986 500.146L336.803 496.491L337.359 498.761H337.366L337.64 499.885L342.817 520.88L343.872 525.172L343.907 525.302L344.544 527.867L345.093 530.088L345.703 532.57L345.888 533.318Z" fill="#FFB7B7"/>
<path d="M434.277 444.949C433.338 446.458 432.378 447.959 431.411 449.447C429.614 452.217 427.77 454.946 425.878 457.634C425.878 457.641 425.871 457.641 425.864 457.648C424.76 458.671 423.54 459.561 422.23 460.301C422.175 460.342 422.113 460.37 422.059 460.404C421.094 460.938 420.066 461.35 419.001 461.631C418.617 461.727 418.226 461.823 417.842 461.919C416.457 462.249 415.085 462.53 413.721 462.776C411.294 463.208 408.894 463.517 406.508 463.709C406.316 463.73 406.124 463.743 405.932 463.757C396.12 464.477 386.569 463.318 376.6 461.419C371.677 460.486 366.651 459.369 361.447 458.21C359.746 457.826 358.039 457.449 356.311 457.072C356.181 457.044 356.044 457.01 355.906 456.983C353.438 456.441 350.929 455.906 348.357 455.378C345.121 454.713 341.782 454.069 338.313 453.458L338.559 458.347C338.765 462.108 339.546 465.815 340.877 469.338C342.358 473.672 343.53 477.1 341.055 484.238L339.862 487.693C340.481 489.409 340.693 491.245 340.482 493.057C340.272 494.869 339.644 496.607 338.648 498.136L338.409 498.499L348.357 523.67L349.002 525.301H343.907L337.641 525.308H327.02L311.695 494.564L310.962 493.096V493.021L312.546 433.938C312.566 433.417 312.607 432.889 312.676 432.368C312.955 429.999 313.703 427.709 314.877 425.633C316.051 423.556 317.626 421.734 319.512 420.273C321.319 418.861 323.388 417.822 325.6 417.217C327.811 416.612 330.121 416.453 332.395 416.748L337.641 417.427L348.357 418.812L355.906 419.793L356.057 419.813L378.321 422.693L379.918 416.179L380.213 416.07L389.586 412.634L422.004 400.752L422.086 400.725L424.218 399.943L424.472 400.354C424.548 400.478 424.623 400.601 424.691 400.725C426.799 404.503 428.515 408.487 429.813 412.614C431.996 419.356 433.793 426.217 435.196 433.163C435.257 433.465 435.312 433.739 435.36 433.986L435.381 434.061C435.401 434.178 435.415 434.253 435.422 434.274C436.169 437.387 435.648 441.185 434.277 444.949Z" fill="#F2F2F2"/>
<path d="M435.644 423.174C435.541 422.736 435.411 422.29 435.274 421.858C434.185 418.586 432.917 415.377 431.475 412.245C429.857 408.68 427.917 404.86 425.606 400.726C424.489 398.724 423.286 396.642 422 394.48C421.355 393.396 420.685 392.292 419.991 391.168C419.963 391.116 419.934 391.066 419.902 391.017L419.703 390.688L387.628 394.98L375.684 396.578L374.97 402.529L374.799 404.003C374.792 404.003 374.792 404.003 374.799 404.01L374.319 408.028V408.035L373.681 413.342L373.627 413.335L355.902 411.038L337.636 408.673L327.825 407.404C325.551 407.108 323.241 407.267 321.029 407.872C318.817 408.477 316.748 409.516 314.941 410.929C313.056 412.39 311.481 414.212 310.307 416.289C309.134 418.365 308.385 420.655 308.105 423.024C308.044 423.504 308.002 423.997 307.982 424.484L298.725 446.418C293.187 459.536 289.659 473.414 288.262 487.585L281.474 509.286L282.441 509.375L296.826 510.712L300.625 511.069L308.99 498.857C309.943 497.465 310.848 496.032 311.691 494.565C313.08 492.168 314.314 489.686 315.387 487.132L333.481 444.073C334.88 444.313 336.265 444.542 337.636 444.759C343.979 445.787 350.067 446.626 355.902 447.275C374.874 449.394 391.303 449.558 405.928 447.762C410.035 447.262 414.005 446.603 417.838 445.787C419.243 445.492 420.631 445.175 422 444.834C422.322 444.759 422.637 444.683 422.953 444.601C425.786 443.87 428.391 442.441 430.53 440.442C432.668 438.444 434.271 435.942 435.192 433.164C436.291 429.945 436.448 426.479 435.644 423.174Z" fill="#F2F2F2"/>
<path d="M286.288 533.235L276.188 528.394L274.604 527.633L272.074 533.845L254.412 537.733C253.538 537.924 252.749 538.39 252.159 539.062C251.57 539.734 251.21 540.577 251.134 541.468C251.057 542.358 251.267 543.25 251.734 544.013C252.2 544.776 252.898 545.369 253.726 545.707L270.984 552.749L276.462 547.819L275.118 554.435L281.619 557.089L288.742 534.414L286.288 533.235Z" fill="#151515"/>
<path d="M348.359 523.667L349.005 525.299H348.359V523.667Z" fill="#2F2E41"/>
<path d="M344.842 525.647L334.259 529.313L332.598 529.887L335.171 536.081L325.356 551.272C324.87 552.022 324.637 552.908 324.691 553.801C324.744 554.693 325.082 555.545 325.654 556.232C326.227 556.919 327.004 557.405 327.872 557.619C328.74 557.832 329.654 557.763 330.48 557.42L347.697 550.281L348.121 542.923L351.822 548.57L358.308 545.882L347.416 524.758L344.842 525.647Z" fill="#151515"/>
<path d="M433.007 433.108C432.378 433.107 431.76 432.954 431.204 432.661L375.359 403.48L374.713 400.839L373.497 392.479L373.514 392.401L378.825 367.915C378.728 367.705 378.524 367.36 378.295 366.97C375.923 362.953 368.708 350.726 382.479 333.891L406.658 305.702L427.41 304.809L427.646 305.107C433.195 312.071 436.937 320.299 438.54 329.058C440.143 337.818 439.557 346.838 436.834 355.316L434.673 394.341L436.991 402.222C438.346 406.854 438.122 411.804 436.354 416.294L436.885 429.056C436.906 429.579 436.821 430.101 436.636 430.59C436.45 431.08 436.168 431.527 435.806 431.905C435.444 432.283 435.01 432.585 434.529 432.792C434.048 432.998 433.53 433.106 433.007 433.108Z" fill="#151515"/>
<path d="M384.565 465.291C385.511 464.732 386.323 463.973 386.944 463.066C387.565 462.159 387.979 461.128 388.158 460.043C388.337 458.959 388.276 457.849 387.98 456.791C387.683 455.733 387.158 454.753 386.442 453.92L399.868 430.829L386.01 431.61L375.385 453.418C374.065 454.714 373.266 456.449 373.14 458.295C373.014 460.141 373.57 461.968 374.701 463.432C375.833 464.895 377.462 465.893 379.28 466.236C381.098 466.578 382.978 466.242 384.565 465.291Z" fill="#FFB7B7"/>
<path d="M389.982 448.313L377.576 438.649L400.12 394.96L391.673 339.324C391.255 336.574 391.448 333.765 392.238 331.098C393.028 328.431 394.395 325.971 396.243 323.891C398.091 321.812 400.374 320.165 402.93 319.067C405.485 317.97 408.252 317.448 411.032 317.54C416.053 317.71 420.801 319.866 424.235 323.534C427.669 327.202 429.507 332.082 429.347 337.103L427.26 400.453L389.982 448.313Z" fill="#151515"/>
<path d="M393.35 293.985V273.45C393.345 266.153 396.24 259.152 401.397 253.988C406.554 248.825 413.551 245.921 420.849 245.916C428.147 245.912 435.147 248.806 440.311 253.963C445.475 259.12 448.378 266.117 448.383 273.415V273.45C453.233 283.556 450.199 288.361 448.383 293.985C448.381 294.965 447.991 295.903 447.299 296.596C446.606 297.288 445.668 297.678 444.688 297.68H397.046C396.067 297.679 395.128 297.289 394.435 296.597C393.742 295.904 393.352 294.965 393.35 293.985Z" fill="#151515"/>
<path d="M411.843 296.346C423.218 296.346 432.44 287.125 432.44 275.749C432.44 264.374 423.218 255.152 411.843 255.152C400.468 255.152 391.246 264.374 391.246 275.749C391.246 287.125 400.468 296.346 411.843 296.346Z" fill="#FFB7B7"/>
<path d="M433.398 281.149C433.211 281.12 433.024 281.081 432.838 281.051C429.625 280.481 426.412 279.921 423.209 279.342L422.914 272.081L419.033 278.585C410.181 281.523 401.898 279.862 394.107 276.198C391.537 274.978 389.043 273.603 386.64 272.081C387.294 268.065 388.838 264.247 391.159 260.904C393.479 257.562 396.518 254.781 400.051 252.765C400.346 252.598 400.631 252.45 400.926 252.303L400.929 252.302L400.933 252.3L400.935 252.297L400.935 252.293C401.437 252.057 401.947 251.831 402.458 251.625C406.458 250.062 410.82 249.666 415.035 250.483C419.251 251.301 423.149 253.298 426.275 256.243C432.563 262.246 435.392 272.159 433.398 281.149Z" fill="#151515"/>
</svg>
