<svg width="360" height="307" viewBox="0 0 360 307" fill="none" xmlns="http://www.w3.org/2000/svg">
<path d="M444.556 255.776C444.557 255.872 444.533 255.967 444.486 256.055C444.439 256.144 444.371 256.224 444.284 256.292C444.198 256.36 444.095 256.413 443.982 256.45C443.869 256.486 443.748 256.505 443.625 256.505H-83.0691C-83.316 256.505 -83.5528 256.428 -83.7273 256.291C-83.9019 256.155 -84 255.969 -84 255.776C-84 255.583 -83.9019 255.397 -83.7273 255.261C-83.5528 255.124 -83.316 255.047 -83.0691 255.047H443.625C443.748 255.047 443.869 255.066 443.982 255.102C444.095 255.139 444.198 255.192 444.284 255.26C444.371 255.328 444.439 255.408 444.486 255.497C444.533 255.585 444.557 255.68 444.556 255.776Z" fill="#CCCCCC"/>
<path d="M213.799 231.175C271.484 231.175 318.247 184.412 318.247 126.726C318.247 69.0414 271.484 22.2783 213.799 22.2783C156.114 22.2783 109.351 69.0414 109.351 126.726C109.351 184.412 156.114 231.175 213.799 231.175Z" fill="#E6E6E6"/>
<path d="M303.67 126.727C303.681 140.75 300.405 154.581 294.105 167.11C287.806 179.639 278.658 190.518 267.395 198.874C266.642 199.437 265.875 199.986 265.102 200.52C250.041 210.989 232.138 216.601 213.796 216.601C195.454 216.601 177.551 210.989 162.49 200.52C161.718 199.986 160.95 199.437 160.197 198.874C148.943 190.511 139.8 179.631 133.502 167.103C127.203 154.576 123.922 140.748 123.922 126.727C123.922 112.705 127.203 98.8774 133.502 86.35C139.8 73.8225 148.943 62.9425 160.197 54.5796C160.95 54.016 161.718 53.4671 162.49 52.9327C177.551 42.4637 195.454 36.8525 213.796 36.8525C232.138 36.8525 250.041 42.4637 265.102 52.9327C265.875 53.4671 266.642 54.016 267.395 54.5796C278.658 62.9351 287.806 73.8137 294.105 86.3428C300.405 98.8719 303.681 112.703 303.67 126.727Z" fill="white"/>
<path d="M213.797 208.829C259.141 208.829 295.899 172.071 295.899 126.728C295.899 81.3844 259.141 44.6265 213.797 44.6265C168.454 44.6265 131.696 81.3844 131.696 126.728C131.696 172.071 168.454 208.829 213.797 208.829Z" fill="#0066E0"/>
<path opacity="0.2" d="M214.013 44.855C212.768 44.855 211.531 44.8875 210.3 44.9423C231.051 46.7658 250.333 56.4088 264.239 71.9178C278.145 87.4268 285.636 107.642 285.194 128.468C284.752 149.294 276.41 169.173 261.858 184.078C247.306 198.983 227.633 207.799 206.824 208.74C209.193 208.946 211.59 209.057 214.013 209.057C235.788 209.057 256.67 200.407 272.067 185.01C287.464 169.613 296.114 148.731 296.114 126.956C296.114 105.182 287.464 84.2988 272.067 68.9019C256.67 53.5049 235.788 44.855 214.013 44.855Z" fill="black"/>
<path d="M214.04 38.7949C213.332 38.7962 212.653 39.0781 212.152 39.5789C211.651 40.0797 211.369 40.7586 211.368 41.4669V53.1262C211.368 53.8348 211.65 54.5144 212.151 55.0155C212.652 55.5166 213.331 55.7981 214.04 55.7981C214.749 55.7981 215.428 55.5166 215.929 55.0155C216.431 54.5144 216.712 53.8348 216.712 53.1262V41.4669C216.711 40.7586 216.429 40.0797 215.928 39.5789C215.427 39.0781 214.748 38.7962 214.04 38.7949Z" fill="white"/>
<path d="M267.395 54.5817C266.642 54.0182 265.875 53.4692 265.102 52.9349C264.639 52.9046 264.175 52.9958 263.758 53.1995C263.34 53.4031 262.983 53.7121 262.722 54.0959L256.158 63.7295C255.76 64.315 255.61 65.0351 255.742 65.7311C255.874 66.4272 256.277 67.0422 256.863 67.441C257.448 67.8398 258.168 67.9896 258.864 67.8575C259.561 67.7254 260.176 67.3222 260.574 66.7366L267.138 57.1031C267.387 56.7376 267.542 56.3155 267.587 55.8751C267.632 55.4348 267.566 54.9901 267.395 54.5817Z" fill="white"/>
<path d="M297.215 98.5083C297.083 98.1835 296.888 97.8879 296.642 97.6384C296.396 97.3888 296.103 97.1902 295.78 97.054C295.457 96.9177 295.11 96.8465 294.76 96.8443C294.409 96.8421 294.061 96.909 293.737 97.0412L282.932 101.428C282.277 101.695 281.754 102.212 281.478 102.864C281.203 103.517 281.198 104.252 281.465 104.908C281.732 105.564 282.248 106.087 282.9 106.363C283.552 106.639 284.287 106.644 284.944 106.378L295.748 101.992C296.403 101.723 296.926 101.206 297.201 100.553C297.476 99.9001 297.481 99.1649 297.215 98.5083Z" fill="white"/>
<path d="M171.438 63.7295L164.874 54.0959C164.613 53.7121 164.256 53.4031 163.838 53.1995C163.421 52.9958 162.957 52.9046 162.494 52.9349C161.722 53.4692 160.954 54.0182 160.201 54.5817C160.03 54.9901 159.964 55.4348 160.009 55.8751C160.054 56.3155 160.209 56.7376 160.458 57.1031L167.022 66.7366C167.42 67.3222 168.035 67.7254 168.732 67.8575C169.428 67.9896 170.148 67.8398 170.733 67.441C171.319 67.0422 171.722 66.4272 171.854 65.7311C171.986 65.0351 171.836 64.3151 171.438 63.7295Z" fill="white"/>
<path d="M144.662 101.427L133.858 97.0405C133.201 96.774 132.466 96.7791 131.813 97.0547C131.161 97.3303 130.644 97.8539 130.377 98.5103C130.111 99.1666 130.116 99.9021 130.391 100.555C130.667 101.208 131.19 101.724 131.846 101.991L142.651 106.378C143.307 106.644 144.042 106.638 144.694 106.362C145.347 106.087 145.863 105.563 146.129 104.907C146.396 104.251 146.391 103.516 146.116 102.864C145.841 102.211 145.318 101.695 144.662 101.427Z" fill="white"/>
<path d="M214.04 197.656C213.332 197.657 212.653 197.939 212.152 198.44C211.651 198.941 211.369 199.62 211.368 200.328V211.988C211.368 212.696 211.65 213.376 212.151 213.877C212.652 214.378 213.331 214.659 214.04 214.659C214.749 214.659 215.428 214.378 215.929 213.877C216.431 213.376 216.712 212.696 216.712 211.988V200.328C216.711 199.62 216.429 198.941 215.928 198.44C215.427 197.939 214.748 197.657 214.04 197.656Z" fill="white"/>
<path d="M267.138 196.355L260.574 186.721C260.377 186.432 260.124 186.183 259.831 185.991C259.538 185.799 259.209 185.666 258.864 185.601C258.52 185.535 258.166 185.538 257.822 185.61C257.479 185.681 257.153 185.82 256.863 186.017C256.573 186.214 256.325 186.467 256.132 186.761C255.94 187.054 255.807 187.382 255.742 187.727C255.677 188.072 255.68 188.426 255.751 188.769C255.823 189.113 255.961 189.439 256.158 189.729L262.722 199.362C262.983 199.746 263.34 200.055 263.758 200.259C264.175 200.462 264.639 200.553 265.102 200.523C265.875 199.989 266.642 199.44 267.395 198.876C267.566 198.468 267.632 198.023 267.587 197.583C267.542 197.143 267.387 196.72 267.138 196.355Z" fill="white"/>
<path d="M295.747 151.463L284.943 147.076C284.287 146.81 283.551 146.815 282.898 147.09C282.246 147.366 281.729 147.89 281.463 148.546C281.196 149.202 281.201 149.938 281.476 150.59C281.752 151.243 282.275 151.76 282.932 152.027L293.736 156.413C294.392 156.679 295.127 156.674 295.78 156.398C296.432 156.122 296.948 155.599 297.215 154.943C297.481 154.287 297.476 153.552 297.201 152.899C296.926 152.247 296.403 151.73 295.747 151.463Z" fill="white"/>
<path d="M170.733 186.017C170.148 185.618 169.428 185.468 168.732 185.601C168.036 185.733 167.421 186.136 167.022 186.721L160.458 196.355C160.209 196.72 160.054 197.142 160.009 197.583C159.964 198.023 160.03 198.468 160.201 198.876C160.954 199.44 161.722 199.989 162.494 200.523C162.957 200.553 163.421 200.462 163.838 200.258C164.256 200.055 164.613 199.746 164.874 199.362L171.438 189.728C171.635 189.438 171.774 189.112 171.845 188.769C171.916 188.425 171.92 188.071 171.854 187.727C171.789 187.382 171.656 187.054 171.464 186.76C171.271 186.467 171.023 186.214 170.733 186.017Z" fill="white"/>
<path d="M146.13 148.544C145.998 148.219 145.803 147.924 145.557 147.674C145.311 147.424 145.018 147.226 144.695 147.09C144.372 146.953 144.025 146.882 143.675 146.88C143.324 146.878 142.976 146.945 142.652 147.077L131.847 151.464C131.192 151.731 130.669 152.247 130.393 152.9C130.118 153.552 130.114 154.287 130.38 154.944C130.647 155.6 131.163 156.123 131.815 156.399C132.467 156.674 133.202 156.68 133.859 156.414L144.663 152.027C145.318 151.759 145.841 151.241 146.116 150.589C146.391 149.936 146.396 149.201 146.13 148.544Z" fill="white"/>
<path d="M217.509 125.399C217.755 126.86 217.413 128.359 216.556 129.567C215.699 130.775 214.398 131.594 212.938 131.844L165.524 139.909C164.801 140.032 164.06 140.011 163.345 139.848C162.63 139.685 161.954 139.383 161.355 138.958C160.757 138.534 160.248 137.996 159.857 137.375C159.467 136.753 159.203 136.061 159.08 135.338C158.957 134.615 158.977 133.874 159.14 133.159C159.303 132.444 159.606 131.768 160.03 131.169C160.455 130.571 160.993 130.062 161.614 129.671C162.235 129.281 162.927 129.017 163.65 128.894L211.064 120.829C212.525 120.582 214.023 120.925 215.232 121.782C216.44 122.638 217.259 123.94 217.509 125.399Z" fill="#A00000"/>
<path d="M267.409 177.931C266.728 178.616 265.803 179.003 264.837 179.006C263.871 179.01 262.942 178.631 262.256 177.951L211.216 127.311C210.531 126.63 210.144 125.705 210.141 124.74C210.138 123.774 210.518 122.846 211.198 122.161C211.878 121.475 212.803 121.088 213.768 121.084C214.734 121.079 215.662 121.459 216.348 122.138L267.388 172.778C268.073 173.459 268.46 174.384 268.464 175.35C268.468 176.316 268.088 177.244 267.409 177.931Z" fill="#151515"/>
<path d="M213.797 133.043C217.285 133.043 220.113 130.216 220.113 126.728C220.113 123.24 217.285 120.412 213.797 120.412C210.309 120.412 207.482 123.24 207.482 126.728C207.482 130.216 210.309 133.043 213.797 133.043Z" fill="#CCCCCC"/>
<path d="M170.296 17.2169C160.602 32.4578 145.811 42.5724 127.569 49.2171C127.209 49.4871 126.799 49.6834 126.363 49.7949C125.926 49.9063 125.472 49.9308 125.026 49.8668C124.581 49.8028 124.152 49.6517 123.764 49.422C123.377 49.1922 123.039 48.8885 122.769 48.528C112.86 35.2984 115.098 16.3905 128.175 6.28149C131.336 3.84172 134.951 2.05428 138.809 1.02292C142.667 -0.00843067 146.692 -0.263152 150.649 0.273556C154.606 0.810263 158.417 2.1277 161.861 4.14939C165.305 6.17108 168.313 8.85675 170.711 12.0505L170.985 12.4164C171.255 12.7768 171.451 13.1869 171.563 13.6233C171.674 14.0596 171.699 14.5136 171.635 14.9594C171.571 15.4051 171.419 15.8339 171.19 16.2213C170.96 16.6086 170.656 16.9469 170.296 17.2169Z" fill="#E6E6E6"/>
<path d="M256.883 12.0505C259.281 8.85674 262.289 6.17107 265.733 4.14939C269.177 2.1277 272.988 0.810265 276.945 0.273558C280.903 -0.26315 284.927 -0.008436 288.785 1.02292C292.643 2.05427 296.258 3.84172 299.419 6.28149C312.496 16.3905 314.734 35.2984 304.825 48.528C304.555 48.8885 304.217 49.1922 303.83 49.4219C303.442 49.6516 303.014 49.8028 302.568 49.8668C302.122 49.9308 301.668 49.9063 301.232 49.7949C300.795 49.6834 300.385 49.4871 300.025 49.2171C283.091 42.7339 269.204 31.5146 257.298 17.2169C256.57 16.6717 256.089 15.8596 255.96 14.9593C255.83 14.0591 256.064 13.1443 256.609 12.4164L256.883 12.0505Z" fill="#E6E6E6"/>
<path d="M252.633 217.217C252.016 217.564 251.561 218.141 251.369 218.823C251.176 219.505 251.262 220.235 251.607 220.853L267.027 248.41C267.373 249.028 267.951 249.483 268.633 249.676C269.314 249.868 270.045 249.782 270.663 249.436C271.281 249.09 271.737 248.513 271.93 247.831C272.122 247.149 272.036 246.418 271.69 245.8L256.27 218.244C255.923 217.626 255.345 217.172 254.664 216.979C253.982 216.787 253.252 216.872 252.633 217.217Z" fill="#E6E6E6"/>
<path d="M171.325 218.245L155.905 245.801C155.559 246.419 155.473 247.15 155.665 247.831C155.858 248.513 156.314 249.091 156.932 249.437C157.55 249.783 158.281 249.869 158.962 249.676C159.644 249.484 160.222 249.029 160.568 248.41L175.988 220.854C176.16 220.548 176.269 220.211 176.31 219.863C176.352 219.514 176.324 219.161 176.228 218.823C176.133 218.485 175.972 218.17 175.755 217.894C175.538 217.619 175.268 217.389 174.962 217.217C174.656 217.046 174.319 216.936 173.97 216.895C173.622 216.854 173.268 216.882 172.931 216.978C172.593 217.073 172.277 217.234 172.002 217.451C171.726 217.669 171.496 217.938 171.325 218.245Z" fill="#E6E6E6"/>
<path d="M270.152 255.467C274.713 255.467 278.41 251.769 278.41 247.208C278.41 242.647 274.713 238.949 270.152 238.949C265.591 238.949 261.893 242.647 261.893 247.208C261.893 251.769 265.591 255.467 270.152 255.467Z" fill="#E6E6E6"/>
<path d="M275.98 44.1404C280.542 44.1404 284.239 40.4429 284.239 35.8817C284.239 31.3206 280.542 27.623 275.98 27.623C271.419 27.623 267.722 31.3206 267.722 35.8817C267.722 40.4429 271.419 44.1404 275.98 44.1404Z" fill="#E6E6E6"/>
<path d="M213.309 24.7093C217.87 24.7093 221.568 21.0117 221.568 16.4506C221.568 11.8894 217.87 8.19189 213.309 8.19189C208.748 8.19189 205.05 11.8894 205.05 16.4506C205.05 21.0117 208.748 24.7093 213.309 24.7093Z" fill="#A00000"/>
<path d="M153.557 43.1712C158.118 43.1712 161.816 39.4736 161.816 34.9125C161.816 30.3514 158.118 26.6538 153.557 26.6538C148.996 26.6538 145.299 30.3514 145.299 34.9125C145.299 39.4736 148.996 43.1712 153.557 43.1712Z" fill="#E6E6E6"/>
<path d="M158.902 255.467C163.463 255.467 167.161 251.769 167.161 247.208C167.161 242.647 163.463 238.949 158.902 238.949C154.341 238.949 150.643 242.647 150.643 247.208C150.643 251.769 154.341 255.467 158.902 255.467Z" fill="#E6E6E6"/>
<path d="M263.674 173.288C264 173.798 264.433 174.23 264.944 174.554C265.454 174.879 266.03 175.087 266.63 175.164C267.229 175.242 267.839 175.187 268.415 175.004C268.992 174.821 269.521 174.513 269.966 174.103L282.925 181.047L282.23 173.438L270.03 168.011C269.292 167.31 268.322 166.903 267.304 166.87C266.286 166.836 265.291 167.176 264.508 167.827C263.725 168.477 263.207 169.392 263.053 170.399C262.9 171.406 263.12 172.434 263.674 173.288Z" fill="#FFB7B7"/>
<path d="M273.115 175.944L278.194 168.934L302.659 180.499L333.103 174.787C334.608 174.504 336.156 174.557 337.639 174.94C339.121 175.324 340.501 176.029 341.68 177.005C342.859 177.982 343.809 179.206 344.461 180.591C345.114 181.976 345.454 183.488 345.457 185.019C345.459 187.784 344.364 190.438 342.412 192.397C340.46 194.356 337.811 195.461 335.046 195.469L300.157 195.534L273.115 175.944Z" fill="#151515"/>
<path d="M265.294 297.017L260.156 294.56L267.214 273.083L274.797 276.711L265.294 297.017Z" fill="#FFB7B7"/>
<path d="M299.74 293.557C299.366 293.791 298.993 294.021 298.615 294.251C297.864 294.712 297.106 295.165 296.347 295.61C295.966 295.833 295.581 296.055 295.2 296.274V296.285L295.177 296.289L295.17 296.293L294.588 296.436L293.754 294.232L293.369 293.217L292.826 291.779L291.829 289.149L286.583 275.298L294.739 273.286L295.045 274.535H295.049L295.2 275.154L298.049 286.711L298.63 289.073L298.649 289.145L299 290.556L299.302 291.779L299.638 293.146L299.74 293.557Z" fill="#FFB7B7"/>
<path d="M348.392 244.916C347.875 245.746 347.347 246.573 346.814 247.392C345.826 248.916 344.81 250.418 343.769 251.898C343.769 251.902 343.765 251.902 343.761 251.905C343.153 252.468 342.482 252.958 341.761 253.366C341.731 253.389 341.697 253.404 341.667 253.423C341.135 253.716 340.57 253.943 339.983 254.098C339.772 254.151 339.557 254.204 339.345 254.257C338.583 254.438 337.828 254.592 337.077 254.728C335.741 254.966 334.42 255.136 333.107 255.242C333.001 255.253 332.896 255.26 332.79 255.268C327.389 255.664 322.132 255.026 316.644 253.981C313.934 253.468 311.168 252.853 308.304 252.215C307.368 252.003 306.428 251.796 305.477 251.588C305.405 251.573 305.33 251.554 305.254 251.539C303.895 251.241 302.514 250.947 301.099 250.656C299.317 250.29 297.479 249.935 295.57 249.599L295.706 252.29C295.819 254.36 296.249 256.401 296.981 258.34C297.796 260.725 298.442 262.612 297.079 266.541L296.423 268.443C296.763 269.388 296.88 270.399 296.764 271.396C296.648 272.393 296.303 273.35 295.755 274.191L295.623 274.391L301.099 288.246L301.454 289.144H298.649L295.2 289.148H289.354L280.919 272.225L280.515 271.417V271.376L281.387 238.855C281.398 238.568 281.421 238.277 281.458 237.99C281.612 236.686 282.024 235.426 282.67 234.283C283.316 233.14 284.183 232.137 285.221 231.333C286.216 230.556 287.355 229.984 288.572 229.651C289.79 229.318 291.061 229.23 292.313 229.393L295.2 229.767L301.099 230.529L305.254 231.069L305.337 231.08L317.592 232.665L318.471 229.08L318.633 229.019L323.792 227.128L341.636 220.588L341.682 220.573L342.855 220.143L342.995 220.369C343.037 220.437 343.078 220.505 343.116 220.573C344.276 222.653 345.221 224.845 345.935 227.117C347.137 230.828 348.126 234.605 348.898 238.428C348.932 238.594 348.962 238.745 348.988 238.881L349 238.922C349.011 238.987 349.018 239.028 349.022 239.039C349.434 240.753 349.147 242.844 348.392 244.916Z" fill="#F2F2F2"/>
<path d="M349.145 232.93C349.089 232.688 349.017 232.443 348.941 232.205C348.342 230.404 347.644 228.638 346.85 226.914C345.96 224.952 344.892 222.849 343.62 220.574C343.005 219.472 342.343 218.325 341.635 217.135C341.28 216.539 340.911 215.931 340.529 215.313C340.514 215.284 340.498 215.256 340.48 215.229L340.37 215.048L322.715 217.411L316.141 218.29L315.748 221.566L315.654 222.378C315.65 222.378 315.65 222.378 315.654 222.381L315.39 224.593V224.597L315.039 227.518L315.008 227.514L305.252 226.25L295.198 224.948L289.798 224.25C288.546 224.087 287.274 224.174 286.057 224.507C284.839 224.84 283.7 225.412 282.706 226.189C281.668 226.994 280.801 227.997 280.155 229.14C279.509 230.283 279.097 231.543 278.943 232.847C278.909 233.111 278.887 233.383 278.875 233.651L273.78 245.724C270.731 252.945 268.79 260.584 268.021 268.384L264.285 280.329L264.817 280.378L272.735 281.114L274.826 281.31L279.43 274.588C279.955 273.822 280.453 273.034 280.917 272.226C281.681 270.907 282.361 269.54 282.951 268.135L292.911 244.433C293.681 244.566 294.443 244.691 295.198 244.811C298.689 245.377 302.041 245.839 305.252 246.196C315.695 247.362 324.738 247.453 332.788 246.464C335.049 246.188 337.234 245.826 339.344 245.377C340.118 245.215 340.881 245.04 341.635 244.852C341.812 244.811 341.986 244.769 342.159 244.724C343.719 244.322 345.153 243.535 346.33 242.435C347.507 241.335 348.389 239.958 348.896 238.429C349.501 236.657 349.588 234.749 349.145 232.93Z" fill="#F2F2F2"/>
<path d="M266.934 293.511L261.375 290.847L260.503 290.428L259.11 293.847L249.388 295.987C248.908 296.092 248.473 296.349 248.149 296.719C247.824 297.088 247.626 297.552 247.584 298.043C247.542 298.533 247.657 299.024 247.914 299.444C248.171 299.864 248.555 300.19 249.011 300.376L258.51 304.252L261.526 301.539L260.786 305.181L264.364 306.641L268.285 294.16L266.934 293.511Z" fill="#151515"/>
<path d="M301.1 288.245L301.455 289.143H301.1V288.245Z" fill="#2F2E41"/>
<path d="M299.164 289.335L293.339 291.353L292.424 291.669L293.841 295.078L288.438 303.439C288.171 303.852 288.042 304.34 288.072 304.832C288.102 305.323 288.287 305.792 288.602 306.17C288.918 306.548 289.345 306.815 289.823 306.933C290.301 307.051 290.804 307.012 291.258 306.824L300.736 302.894L300.969 298.844L303.006 301.953L306.576 300.473L300.581 288.845L299.164 289.335Z" fill="#151515"/>
<path d="M347.693 238.398C347.347 238.397 347.007 238.313 346.701 238.152L315.962 222.09L315.606 220.636L314.937 216.034L314.946 215.991L317.87 202.513C317.816 202.398 317.704 202.208 317.578 201.993C316.272 199.782 312.301 193.052 319.881 183.785L333.19 168.269L344.612 167.777L344.742 167.941C347.797 171.775 349.857 176.304 350.739 181.125C351.621 185.947 351.299 190.912 349.8 195.578L348.61 217.059L349.886 221.397C350.632 223.946 350.509 226.671 349.535 229.143L349.828 236.167C349.839 236.455 349.793 236.742 349.691 237.012C349.589 237.281 349.433 237.528 349.234 237.736C349.035 237.944 348.796 238.11 348.531 238.224C348.266 238.337 347.981 238.397 347.693 238.398Z" fill="#151515"/>
<path d="M321.029 256.113C321.55 255.805 321.997 255.387 322.338 254.888C322.68 254.389 322.908 253.821 323.007 253.224C323.105 252.627 323.072 252.016 322.908 251.434C322.745 250.851 322.456 250.312 322.062 249.853L329.452 237.144L321.824 237.573L315.976 249.577C315.249 250.29 314.809 251.246 314.74 252.262C314.671 253.278 314.976 254.284 315.599 255.089C316.222 255.895 317.119 256.444 318.12 256.633C319.12 256.821 320.155 256.636 321.029 256.113Z" fill="#FFB7B7"/>
<path d="M324.011 246.767L317.182 241.448L329.591 217.4L324.941 186.776C324.711 185.262 324.818 183.716 325.252 182.248C325.687 180.78 326.44 179.426 327.457 178.281C328.474 177.137 329.73 176.23 331.137 175.626C332.544 175.022 334.067 174.735 335.597 174.785C338.361 174.879 340.975 176.066 342.865 178.084C344.755 180.103 345.767 182.789 345.678 185.554L344.53 220.423L324.011 246.767Z" fill="#151515"/>
<path d="M325.864 161.82V150.517C325.861 146.5 327.455 142.646 330.293 139.804C333.132 136.962 336.983 135.363 341 135.361C345.017 135.358 348.871 136.952 351.713 139.79C354.555 142.629 356.153 146.48 356.156 150.497V150.517C358.825 156.079 357.155 158.724 356.156 161.82C356.155 162.359 355.941 162.875 355.559 163.257C355.178 163.638 354.661 163.852 354.122 163.853H327.899C327.359 163.853 326.842 163.638 326.461 163.257C326.08 162.876 325.865 162.359 325.864 161.82Z" fill="#151515"/>
<path d="M336.044 163.119C342.305 163.119 347.381 158.044 347.381 151.782C347.381 145.521 342.305 140.445 336.044 140.445C329.782 140.445 324.706 145.521 324.706 151.782C324.706 158.044 329.782 163.119 336.044 163.119Z" fill="#FFB7B7"/>
<path d="M347.909 154.755C347.806 154.738 347.703 154.717 347.6 154.7C345.832 154.387 344.063 154.079 342.3 153.759L342.138 149.763L340.002 153.343C335.129 154.96 330.57 154.046 326.282 152.029C324.867 151.357 323.494 150.601 322.171 149.763C322.532 147.552 323.382 145.451 324.659 143.611C325.936 141.771 327.608 140.241 329.553 139.131C329.716 139.039 329.873 138.957 330.035 138.876L330.037 138.876L330.039 138.875L330.04 138.873L330.04 138.871C330.316 138.741 330.597 138.617 330.878 138.503C333.08 137.643 335.481 137.425 337.801 137.875C340.122 138.325 342.267 139.424 343.988 141.045C347.449 144.349 349.006 149.806 347.909 154.755Z" fill="#151515"/>
</svg>
