<svg width="450" height="575" viewBox="0 0 450 575" fill="none" xmlns="http://www.w3.org/2000/svg">
<path d="M108.374 456.096H299.98V502.624H108.374V456.096Z" fill="#EDEDED"/>
<path d="M299.864 525.495C297.807 552.818 274.828 574.424 246.934 574.424H161.308C133.528 574.424 110.55 552.818 108.491 525.495H299.864Z" fill="#EDEDED"/>
<path d="M408.12 258.099C403.318 325.548 364.792 387.279 305.688 421.345C302.144 423.289 299.972 427.061 299.972 431.177V433.235H214.12V365.443C214.12 359.155 208.975 354.011 202.688 354.011H192.399C183.482 354.011 176.165 346.694 176.165 337.777C176.165 328.859 183.482 321.543 192.513 321.543H204.174C210.462 321.543 215.607 316.398 215.607 310.111V256.723H247.388V256.951C247.388 278.558 264.993 296.049 286.486 296.049C307.635 296.049 325.012 279.13 325.699 258.095L408.12 258.099Z" fill="#EDEDED"/>
<path d="M192.754 256.718V298.674H192.411C170.804 298.674 153.313 316.279 153.313 337.772C153.313 358.922 170.232 376.184 191.267 376.87V433.231H108.385V431.173C108.385 427.057 106.213 423.285 102.669 421.227C42.422 386.816 3.89607 323.939 0.0109863 255.229H83.9244C90.212 255.229 95.3565 250.085 95.3565 243.797V233.508C95.3565 224.591 102.559 217.274 111.476 217.274C120.621 217.274 127.709 224.362 127.709 233.622V245.284C127.709 251.571 132.854 256.716 139.142 256.716L192.754 256.718Z" fill="#EDEDED"/>
<path d="M232.072 162.863C232.072 171.781 224.87 178.982 215.838 178.982H204.177C197.889 178.982 192.745 184.127 192.745 190.415V233.856H150.561V233.514C150.561 211.907 133.07 194.415 111.462 194.415C90.4273 194.415 73.0505 211.221 72.4791 232.37H0C5.71605 128.226 89.7447 44.6568 194.232 39.623V135.192C194.232 141.479 199.262 146.624 205.664 146.624H215.953C224.87 146.624 232.072 153.832 232.072 162.863Z" fill="#EDEDED"/>
<path d="M449.561 195.49H355.36C349.072 195.49 343.928 200.52 343.928 206.922V217.097C343.928 226.128 336.611 233.445 327.58 233.445C323.236 233.445 319.235 231.73 316.148 228.643C313.061 225.557 311.346 221.441 311.346 217.097V205.551C311.346 199.149 306.202 194.119 299.914 194.119H256.586V161.995H257.044C278.65 161.995 296.142 144.504 296.142 123.012C296.142 101.862 279.222 84.5997 258.073 83.9134V0C361.99 6.51626 445.332 91.2296 449.561 195.49Z" fill="#0066E0"/>
</svg>
