<svg width="619" height="607" viewBox="0 0 619 607" fill="none" xmlns="http://www.w3.org/2000/svg">
<path d="M302.539 142.559H299.206V52.2618C299.206 45.3987 297.839 38.6027 295.182 32.262C292.526 25.9213 288.632 20.16 283.724 15.3071C278.816 10.4541 272.989 6.60454 266.576 3.97815C260.163 1.35176 253.289 -2.14714e-05 246.348 2.5579e-10H52.8581C45.9166 -2.14714e-05 39.0432 1.35175 32.6301 3.97815C26.2171 6.60454 20.3901 10.4541 15.4817 15.3071C10.5734 20.16 6.67992 25.9213 4.02355 32.262C1.36719 38.6027 -1.08583e-05 45.3987 0 52.2618V547.641C-6.51495e-06 554.504 1.3672 561.3 4.02357 567.64C6.67993 573.981 10.5734 579.742 15.4818 584.595C20.3901 589.448 26.2171 593.298 32.6301 595.924C39.0432 598.551 45.9166 599.902 52.8581 599.902H246.348C253.289 599.902 260.163 598.551 266.576 595.924C272.989 593.298 278.816 589.448 283.724 584.595C288.632 579.742 292.526 573.981 295.182 567.64C297.839 561.3 299.206 554.504 299.206 547.641V206.834H302.539V142.559Z" fill="#151515"/>
<path d="M248.48 13.5967H223.224C224.385 16.4122 224.829 19.4669 224.515 22.4917C224.201 25.5165 223.14 28.4186 221.424 30.9423C219.709 33.4661 217.392 35.534 214.678 36.9638C211.964 38.3937 208.936 39.1417 205.86 39.142H95.0124C91.937 39.1417 88.9089 38.3937 86.1947 36.9638C83.4806 35.534 81.1638 33.4661 79.4484 30.9423C77.733 28.4186 76.6716 25.5165 76.3578 22.4917C76.044 19.4669 76.4874 16.4122 77.6488 13.5967H54.059C48.8752 13.5967 43.7422 14.6062 38.953 16.5675C34.1638 18.5289 29.8123 21.4037 26.1468 25.0278C22.4813 28.6519 19.5737 32.9544 17.59 37.6896C15.6062 42.4247 14.5852 47.4998 14.5852 52.6251V547.277C14.5852 552.403 15.6062 557.478 17.59 562.213C19.5737 566.948 22.4813 571.25 26.1468 574.875C29.8123 578.499 34.1638 581.373 38.953 583.335C43.7422 585.296 48.8752 586.306 54.059 586.306H248.48C253.664 586.306 258.797 585.296 263.586 583.335C268.376 581.373 272.727 578.499 276.393 574.875C280.058 571.25 282.966 566.948 284.949 562.213C286.933 557.478 287.954 552.403 287.954 547.277V52.6251C287.954 47.4998 286.933 42.4247 284.949 37.6896C282.966 32.9544 280.058 28.6519 276.393 25.0278C272.727 21.4037 268.376 18.5289 263.586 16.5675C258.797 14.6062 253.664 13.5967 248.48 13.5967Z" fill="#EDEDED"/>
<path d="M132.666 114.154H121.058C120.649 114.154 120.258 114.315 119.969 114.6C119.681 114.885 119.519 115.272 119.519 115.676V120.714C119.519 121.117 119.681 121.504 119.969 121.79C120.258 122.075 120.649 122.235 121.058 122.235H122.981V129.784H130.742V122.235H132.666C133.074 122.235 133.466 122.075 133.754 121.79C134.043 121.504 134.205 121.117 134.205 120.714V115.676C134.205 115.272 134.043 114.885 133.754 114.6C133.466 114.315 133.074 114.154 132.666 114.154Z" fill="#E6E6E6"/>
<path d="M144.294 160.26C137.185 149.974 133.55 137.728 133.911 125.275C133.918 124.988 133.824 124.707 133.645 124.481C133.465 124.254 133.213 124.096 132.929 124.033V121.856H120.669V124.003H120.5C120.167 124.003 119.847 124.135 119.611 124.368C119.376 124.602 119.243 124.919 119.244 125.248C119.244 125.279 119.245 125.309 119.247 125.339C120.213 138.651 116.952 150.589 109.463 161.152C109.032 161.76 108.812 162.488 108.835 163.23L110.176 204.229C110.208 205.144 110.596 206.011 111.26 206.649C111.923 207.287 112.81 207.648 113.735 207.655H141.465C142.401 207.647 143.297 207.279 143.962 206.628C144.628 205.977 145.009 205.094 145.026 204.169L145.543 164.362C145.558 162.901 145.123 161.47 144.294 160.26Z" fill="#0066E0"/>
<path d="M139.905 173.878H115.768C115.41 173.878 115.057 173.955 114.733 174.102C114.408 174.25 114.119 174.465 113.887 174.733C113.654 175.001 113.483 175.316 113.385 175.656C113.287 175.995 113.264 176.352 113.318 176.701L116.966 200.142H137.91L142.34 176.78C142.407 176.426 142.395 176.062 142.303 175.714C142.212 175.365 142.044 175.041 141.811 174.764C141.579 174.487 141.287 174.264 140.958 174.111C140.628 173.958 140.269 173.878 139.905 173.878Z" fill="white"/>
<path d="M223.212 236.974H211.603C211.195 236.974 210.804 237.134 210.515 237.419C210.227 237.705 210.064 238.092 210.064 238.495V243.533C210.064 243.937 210.227 244.324 210.515 244.609C210.804 244.894 211.195 245.055 211.603 245.055H213.527V252.603H221.288V245.055H223.212C223.62 245.055 224.011 244.894 224.3 244.609C224.589 244.324 224.751 243.937 224.751 243.533V238.495C224.751 238.092 224.589 237.705 224.3 237.419C224.011 237.134 223.62 236.974 223.212 236.974Z" fill="#E6E6E6"/>
<path d="M234.84 283.079C227.73 272.794 224.096 260.547 224.457 248.094C224.464 247.807 224.369 247.526 224.19 247.3C224.011 247.074 223.758 246.916 223.475 246.853V244.676H211.215V246.822H211.046C210.881 246.823 210.717 246.855 210.565 246.918C210.412 246.98 210.273 247.072 210.157 247.188C210.04 247.303 209.948 247.441 209.885 247.592C209.822 247.743 209.789 247.904 209.789 248.068C209.79 248.098 209.791 248.128 209.793 248.158C210.759 261.47 207.497 273.408 200.009 283.972C199.578 284.579 199.357 285.308 199.381 286.049L200.722 327.049C200.754 327.963 201.142 328.83 201.805 329.468C202.468 330.107 203.355 330.467 204.281 330.474H232.011C232.947 330.467 233.843 330.098 234.508 329.447C235.173 328.796 235.555 327.914 235.572 326.988L236.089 287.181C236.104 285.72 235.668 284.289 234.84 283.079Z" fill="#0066E0"/>
<path d="M230.449 296.698H206.312C205.955 296.698 205.602 296.775 205.277 296.922C204.953 297.07 204.664 297.285 204.432 297.553C204.199 297.821 204.028 298.136 203.93 298.475C203.831 298.815 203.809 299.172 203.863 299.521L207.51 322.962H228.455L232.885 299.6C232.952 299.246 232.939 298.882 232.848 298.533C232.757 298.185 232.589 297.861 232.356 297.584C232.124 297.307 231.832 297.084 231.503 296.931C231.173 296.778 230.813 296.698 230.449 296.698Z" fill="white"/>
<path d="M116.346 410.604H110.839C110.646 410.604 110.46 410.681 110.323 410.816C110.186 410.951 110.109 411.135 110.109 411.326V413.716C110.109 413.907 110.186 414.091 110.323 414.226C110.46 414.362 110.646 414.438 110.839 414.438H111.752V418.018H115.433V414.438H116.346C116.539 414.438 116.725 414.362 116.862 414.226C116.999 414.091 117.076 413.907 117.076 413.716V411.326C117.076 411.135 116.999 410.951 116.862 410.816C116.725 410.681 116.539 410.604 116.346 410.604Z" fill="#E6E6E6"/>
<path d="M121.86 432.475C118.488 427.596 116.764 421.787 116.936 415.88C116.939 415.744 116.894 415.61 116.809 415.503C116.724 415.396 116.604 415.321 116.47 415.291V414.258H110.654V415.277H110.574C110.496 415.277 110.418 415.292 110.346 415.322C110.273 415.351 110.208 415.395 110.152 415.45C110.097 415.505 110.053 415.57 110.023 415.641C109.993 415.713 109.978 415.79 109.978 415.867C109.978 415.882 109.979 415.896 109.98 415.91C110.516 421.938 108.872 427.958 105.338 432.898C105.134 433.186 105.03 433.532 105.041 433.884L105.677 453.332C105.692 453.765 105.876 454.177 106.191 454.479C106.505 454.782 106.926 454.953 107.365 454.956H120.519C120.963 454.953 121.388 454.778 121.703 454.469C122.019 454.16 122.2 453.742 122.208 453.303L122.453 434.42C122.46 433.727 122.253 433.049 121.86 432.475Z" fill="#0066E0"/>
<path d="M119.968 439.624H107.418V445.828H119.968V439.624Z" fill="white"/>
<path d="M141.978 410.604H136.472C136.278 410.604 136.092 410.681 135.955 410.816C135.818 410.951 135.741 411.135 135.741 411.326V413.716C135.741 413.907 135.818 414.091 135.955 414.226C136.092 414.362 136.278 414.438 136.472 414.438H137.384V418.018H141.065V414.438H141.978C142.171 414.438 142.357 414.362 142.494 414.226C142.631 414.091 142.708 413.907 142.708 413.716V411.326C142.708 411.135 142.631 410.951 142.494 410.816C142.357 410.681 142.171 410.604 141.978 410.604Z" fill="#E6E6E6"/>
<path d="M147.494 432.475C144.121 427.596 142.397 421.787 142.569 415.88C142.572 415.744 142.527 415.61 142.442 415.503C142.357 415.396 142.237 415.321 142.103 415.291V414.258H136.287V415.277H136.207C136.129 415.277 136.051 415.292 135.979 415.322C135.906 415.351 135.841 415.395 135.785 415.45C135.73 415.505 135.686 415.57 135.656 415.641C135.626 415.713 135.611 415.79 135.611 415.867C135.611 415.882 135.612 415.896 135.613 415.91C136.149 421.938 134.505 427.958 130.972 432.898C130.767 433.186 130.663 433.532 130.674 433.884L131.31 453.332C131.325 453.765 131.509 454.177 131.824 454.479C132.138 454.782 132.559 454.953 132.998 454.956H146.152C146.596 454.953 147.021 454.778 147.336 454.469C147.652 454.16 147.833 453.742 147.841 453.303L148.086 434.42C148.093 433.727 147.887 433.049 147.494 432.475Z" fill="#0066E0"/>
<path d="M145.6 439.624H133.05V445.828H145.6V439.624Z" fill="white"/>
<path d="M148.273 410.604H142.766C142.573 410.604 142.387 410.681 142.25 410.816C142.113 410.951 142.036 411.135 142.036 411.326V413.716C142.036 413.907 142.113 414.091 142.25 414.226C142.387 414.362 142.573 414.438 142.766 414.438H143.679V418.018H147.36V414.438H148.273C148.466 414.438 148.652 414.362 148.789 414.226C148.926 414.091 149.003 413.907 149.003 413.716V411.326C149.003 411.135 148.926 410.951 148.789 410.816C148.652 410.681 148.466 410.604 148.273 410.604Z" fill="#E6E6E6"/>
<path d="M153.787 432.475C150.415 427.596 148.691 421.787 148.862 415.88C148.865 415.744 148.821 415.61 148.736 415.503C148.651 415.396 148.531 415.321 148.396 415.291V414.258H142.581V415.277H142.501C142.422 415.277 142.345 415.292 142.272 415.322C142.2 415.351 142.134 415.395 142.079 415.45C142.024 415.505 141.98 415.57 141.95 415.641C141.92 415.713 141.905 415.79 141.905 415.867C141.905 415.882 141.905 415.896 141.906 415.91C142.443 421.938 140.798 427.958 137.265 432.898C137.061 433.186 136.956 433.532 136.968 433.884L137.603 453.332C137.619 453.765 137.803 454.177 138.117 454.479C138.432 454.782 138.853 454.953 139.292 454.956H152.445C152.889 454.953 153.314 454.778 153.63 454.469C153.945 454.16 154.127 453.742 154.135 453.303L154.38 434.421C154.387 433.727 154.18 433.049 153.787 432.475Z" fill="#0066E0"/>
<path d="M151.894 439.624H139.343V445.828H151.894V439.624Z" fill="white"/>
<path d="M203.046 363.091H191.437C191.235 363.091 191.035 363.13 190.848 363.207C190.662 363.283 190.492 363.395 190.349 363.537C190.206 363.678 190.093 363.846 190.015 364.03C189.938 364.215 189.898 364.413 189.898 364.612V369.65C189.898 370.054 190.06 370.441 190.349 370.726C190.638 371.012 191.029 371.172 191.437 371.172H193.361V378.72H201.122V371.172H203.046C203.454 371.172 203.845 371.012 204.134 370.726C204.422 370.441 204.585 370.054 204.585 369.65V364.612C204.585 364.413 204.545 364.215 204.467 364.03C204.39 363.846 204.277 363.678 204.134 363.537C203.991 363.395 203.821 363.283 203.635 363.207C203.448 363.13 203.248 363.091 203.046 363.091Z" fill="#E6E6E6"/>
<path d="M214.674 409.196C207.564 398.911 203.93 386.664 204.291 374.212C204.298 373.924 204.203 373.644 204.024 373.417C203.845 373.191 203.592 373.033 203.309 372.97V370.793H191.049V372.94H190.88C190.715 372.94 190.551 372.972 190.399 373.035C190.246 373.098 190.107 373.189 189.991 373.305C189.874 373.421 189.782 373.558 189.719 373.709C189.656 373.86 189.623 374.022 189.623 374.185C189.624 374.215 189.625 374.245 189.627 374.275C190.593 387.587 187.331 399.525 179.843 410.089C179.412 410.696 179.191 411.425 179.215 412.166L180.556 453.166C180.588 454.08 180.976 454.947 181.639 455.586C182.302 456.224 183.189 456.584 184.115 456.592H211.845C212.781 456.584 213.677 456.215 214.342 455.564C215.007 454.913 215.389 454.031 215.406 453.106L215.923 413.298C215.938 411.837 215.502 410.406 214.674 409.196Z" fill="#0066E0"/>
<path d="M210.283 422.815H186.146C185.789 422.815 185.436 422.891 185.111 423.039C184.787 423.186 184.498 423.402 184.266 423.67C184.033 423.938 183.862 424.253 183.763 424.592C183.665 424.932 183.643 425.288 183.697 425.638L187.344 449.079H208.289L212.719 425.717C212.786 425.363 212.773 424.999 212.682 424.65C212.591 424.302 212.423 423.977 212.19 423.7C211.958 423.423 211.666 423.2 211.337 423.047C211.007 422.894 210.647 422.815 210.283 422.815Z" fill="white"/>
<path d="M209.384 212.933H140.187C145.025 187.072 143.912 155.844 140.187 122.261H209.384C205.758 155.844 204.675 187.072 209.384 212.933Z" fill="#0066E0"/>
<path d="M175.202 181.61C184.411 181.61 191.876 174.229 191.876 165.124C191.876 156.019 184.411 148.638 175.202 148.638C165.993 148.638 158.528 156.019 158.528 165.124C158.528 174.229 165.993 181.61 175.202 181.61Z" fill="white"/>
<path d="M184.7 333.28H115.503C120.341 307.419 119.228 276.191 115.503 242.607H184.7C181.074 276.191 179.991 307.419 184.7 333.28Z" fill="#0066E0"/>
<path d="M150.517 301.957C159.725 301.957 167.191 294.576 167.191 285.471C167.191 276.366 159.725 268.985 150.517 268.985C141.308 268.985 133.843 276.366 133.843 285.471C133.843 294.576 141.308 301.957 150.517 301.957Z" fill="white"/>
<path d="M248.566 218.703H179.37C184.207 192.843 183.094 161.615 179.37 128.031H248.566C244.941 161.615 243.857 192.843 248.566 218.703Z" fill="#E6E6E6"/>
<path d="M214.387 187.38C223.595 187.38 231.061 179.999 231.061 170.894C231.061 161.789 223.595 154.408 214.387 154.408C205.178 154.408 197.713 161.789 197.713 170.894C197.713 179.999 205.178 187.38 214.387 187.38Z" fill="white"/>
<path d="M248.566 214.582H179.37C184.207 188.721 183.094 157.493 179.37 123.91H248.566C244.941 157.493 243.857 188.721 248.566 214.582Z" fill="#E6E6E6"/>
<path d="M214.387 183.258C223.595 183.258 231.061 175.877 231.061 166.772C231.061 157.668 223.595 150.287 214.387 150.287C205.178 150.287 197.713 157.668 197.713 166.772C197.713 175.877 205.178 183.258 214.387 183.258Z" fill="white"/>
<path d="M248.566 218.703H179.37C184.207 192.843 183.094 161.615 179.37 128.031H248.566C244.941 161.615 243.857 192.843 248.566 218.703Z" fill="#0066E0"/>
<path d="M214.387 187.38C223.595 187.38 231.061 179.999 231.061 170.894C231.061 161.789 223.595 154.408 214.387 154.408C205.178 154.408 197.713 161.789 197.713 170.894C197.713 179.999 205.178 187.38 214.387 187.38Z" fill="white"/>
<path d="M264.407 207.987H37.6421V232.716H264.407V207.987Z" fill="#151515"/>
<path d="M264.407 330.807H37.6421V355.536H264.407V330.807Z" fill="#151515"/>
<path d="M264.407 453.626H37.6421V478.355H264.407V453.626Z" fill="#151515"/>
<path d="M504.169 553.95L447.675 514.443C466.729 496.092 484.058 469.961 500.631 440.416L557.125 479.923C534.551 505.271 515.428 530.148 504.169 553.95Z" fill="white"/>
<path d="M504.186 511.888C513.394 511.888 520.86 504.507 520.86 495.402C520.86 486.297 513.394 478.917 504.186 478.917C494.977 478.917 487.512 486.297 487.512 495.402C487.512 504.507 494.977 511.888 504.186 511.888Z" fill="#0066E0"/>
<path d="M328.339 373.67H322.138C321.92 373.67 321.711 373.756 321.557 373.908C321.403 374.06 321.316 374.267 321.316 374.483V377.174C321.316 377.281 321.337 377.387 321.378 377.485C321.42 377.584 321.48 377.673 321.557 377.749C321.633 377.824 321.724 377.884 321.823 377.925C321.923 377.966 322.03 377.987 322.138 377.987H323.166V382.019H327.312V377.987H328.339C328.557 377.987 328.767 377.901 328.921 377.749C329.075 377.596 329.162 377.39 329.162 377.174V374.483C329.162 374.267 329.075 374.06 328.921 373.908C328.767 373.756 328.557 373.67 328.339 373.67Z" fill="#E6E6E6"/>
<path d="M334.548 398.301C330.75 392.806 328.809 386.264 329.002 379.611C329.005 379.458 328.955 379.308 328.859 379.187C328.764 379.066 328.629 378.982 328.477 378.948V377.785H321.928V378.932H321.837C321.749 378.932 321.662 378.949 321.58 378.983C321.499 379.016 321.425 379.065 321.362 379.127C321.3 379.189 321.251 379.262 321.217 379.343C321.183 379.424 321.166 379.51 321.166 379.597C321.166 379.613 321.167 379.629 321.168 379.646C321.773 386.434 319.92 393.214 315.941 398.778C315.711 399.102 315.593 399.491 315.606 399.887L316.322 421.79C316.339 422.279 316.547 422.742 316.901 423.083C317.255 423.424 317.729 423.616 318.223 423.62H333.037C333.537 423.616 334.016 423.419 334.371 423.071C334.727 422.723 334.931 422.252 334.94 421.758L335.216 400.492C335.224 399.712 334.991 398.947 334.548 398.301Z" fill="#EDEDED"/>
<path opacity="0.2" d="M327.046 374.547C327.046 375.012 326.859 375.459 326.527 375.787C326.194 376.116 325.743 376.301 325.273 376.301C324.802 376.301 324.351 376.116 324.018 375.787C323.686 375.459 323.499 375.012 323.499 374.547" fill="black"/>
<path d="M331.666 402.521H319.161V410.763H331.666V402.521Z" fill="#0066E0"/>
<path d="M466.567 459.235H454.959C454.551 459.235 454.159 459.395 453.871 459.681C453.582 459.966 453.42 460.353 453.42 460.757V465.794C453.42 466.198 453.582 466.585 453.871 466.87C454.159 467.156 454.551 467.316 454.959 467.316H456.883V474.864H464.644V467.316H466.567C466.975 467.316 467.367 467.156 467.655 466.87C467.944 466.585 468.106 466.198 468.106 465.794V460.757C468.106 460.353 467.944 459.966 467.655 459.681C467.367 459.395 466.975 459.235 466.567 459.235Z" fill="white"/>
<path d="M478.195 505.34C471.086 495.055 467.451 482.808 467.813 470.356C467.819 470.068 467.725 469.788 467.546 469.561C467.367 469.335 467.114 469.177 466.83 469.114V466.937H454.57V469.084H454.401C454.236 469.084 454.073 469.116 453.92 469.179C453.767 469.242 453.629 469.333 453.512 469.449C453.396 469.565 453.303 469.702 453.24 469.853C453.177 470.004 453.145 470.166 453.145 470.329C453.145 470.359 453.146 470.389 453.148 470.419C454.114 483.731 450.853 495.669 443.364 506.233C442.933 506.84 442.713 507.569 442.737 508.31L444.077 549.31C444.109 550.224 444.498 551.091 445.161 551.73C445.824 552.368 446.711 552.728 447.636 552.736H475.366C476.302 552.728 477.198 552.359 477.863 551.708C478.529 551.057 478.91 550.175 478.927 549.25L479.444 509.442C479.459 507.981 479.024 506.55 478.195 505.34Z" fill="white"/>
<path opacity="0.2" d="M464.148 460.876C464.148 461.747 463.798 462.582 463.175 463.198C462.553 463.814 461.708 464.159 460.827 464.159C459.947 464.159 459.102 463.814 458.48 463.198C457.857 462.582 457.507 461.747 457.507 460.876" fill="black"/>
<path d="M473.805 518.959H449.668C449.311 518.959 448.958 519.035 448.633 519.183C448.308 519.33 448.02 519.546 447.787 519.814C447.555 520.082 447.383 520.397 447.285 520.736C447.187 521.076 447.164 521.433 447.219 521.782L450.866 545.223H471.81L476.241 521.861C476.308 521.507 476.295 521.143 476.204 520.794C476.112 520.446 475.944 520.121 475.712 519.844C475.479 519.567 475.188 519.344 474.858 519.191C474.529 519.038 474.169 518.959 473.805 518.959Z" fill="#0066E0"/>
<path d="M452.784 553.886H383.587C388.425 528.025 387.312 496.797 383.587 463.213H452.784C449.159 496.797 448.075 528.025 452.784 553.886Z" fill="white"/>
<path d="M418.604 522.563C427.813 522.563 435.278 515.182 435.278 506.077C435.278 496.972 427.813 489.591 418.604 489.591C409.396 489.591 401.93 496.972 401.93 506.077C401.93 515.182 409.396 522.563 418.604 522.563Z" fill="#0066E0"/>
<path d="M227.769 268.528L243.303 267.131L253.188 243.395L235.536 233.621L227.769 268.528Z" fill="#FFB8B8"/>
<path d="M350.992 333.69C351.509 332.416 351.712 331.04 351.584 329.673C351.457 328.307 351.003 326.99 350.26 325.831C349.517 324.672 348.506 323.704 347.311 323.007C346.115 322.31 344.769 321.904 343.384 321.822L319.265 320.4L315.713 332.076L340.543 338.818C342.617 339.382 344.829 339.17 346.756 338.224C348.684 337.279 350.191 335.665 350.992 333.69Z" fill="#FFB8B8"/>
<path d="M344.432 339.015L344.167 317.106L290.593 308.654L249.321 261.853C247.174 259.418 244.206 257.835 240.969 257.397C237.732 256.959 234.444 257.697 231.714 259.472C230.061 260.547 228.667 261.968 227.631 263.634C226.595 265.301 225.941 267.172 225.717 269.115C225.492 271.059 225.702 273.027 226.332 274.881C226.962 276.736 227.995 278.431 229.36 279.847L263.41 321.276L344.432 339.015Z" fill="white"/>
<path d="M215.765 585.48H229.887L264.915 428.898L301.203 477.269L322.386 581.989H335.802L332.977 469.59L285.669 349.511H239.066C226.331 372.299 216.341 395.789 227.769 420.022L215.765 585.48Z" fill="#151515"/>
<path d="M314.31 595.578C314.154 596.073 314.106 596.594 314.169 597.107C314.233 597.621 314.406 598.116 314.678 598.558C314.95 599 315.314 599.38 315.746 599.673C316.178 599.965 316.668 600.163 317.184 600.253L351.74 606.317C353.106 606.564 354.515 606.308 355.704 605.598C356.892 604.889 357.776 603.774 358.19 602.464C358.593 601.212 358.537 599.86 358.031 598.645C357.526 597.43 356.604 596.43 355.427 595.821C347.828 591.963 341.289 586.342 336.369 579.439C332.571 582.936 328.326 582.607 323.819 580.03L319.037 580.621L314.31 595.578Z" fill="#2F2E41"/>
<path d="M214.04 595.752C214.018 596.269 214.108 596.785 214.304 597.265C214.5 597.745 214.797 598.178 215.175 598.535C215.554 598.893 216.005 599.167 216.499 599.339C216.993 599.511 217.518 599.576 218.039 599.532L253.006 596.547C254.39 596.436 255.684 595.829 256.646 594.839C257.608 593.85 258.17 592.547 258.227 591.175C258.289 589.863 257.88 588.571 257.074 587.527C256.268 586.483 255.115 585.753 253.819 585.466C245.47 583.684 237.681 579.927 231.122 574.518C228.369 578.867 224.182 579.636 219.153 578.3L214.69 580.094L214.04 595.752Z" fill="#2F2E41"/>
<path d="M253.541 252.121C264.46 252.121 273.312 243.37 273.312 232.574C273.312 221.778 264.46 213.026 253.541 213.026C242.622 213.026 233.771 221.778 233.771 232.574C233.771 243.37 242.622 252.121 253.541 252.121Z" fill="#FFB8B8"/>
<path d="M235.889 354.747L287.435 353.351L272.297 306.245C281.704 291.335 272.237 276.439 258.838 261.546L248.246 254.565L231.3 253.168C223.963 260.931 219.948 271.199 220.097 281.823C220.432 304.572 224.506 329.336 235.889 354.747Z" fill="white"/>
<path d="M334.978 386.454C335.96 385.484 336.694 384.297 337.121 382.991C337.548 381.686 337.654 380.298 337.432 378.944C337.21 377.589 336.666 376.306 335.844 375.2C335.022 374.095 333.946 373.198 332.705 372.584L311.096 361.896L303.186 371.249L323.331 387.105C325.014 388.429 327.132 389.095 329.28 388.975C331.428 388.856 333.456 387.958 334.978 386.454Z" fill="#FFB8B8"/>
<path d="M328.388 381.276L336.861 361.03L290.97 332.422L271.646 273.342C270.641 270.268 268.543 267.658 265.74 265.997C262.938 264.335 259.622 263.734 256.406 264.305C254.458 264.65 252.612 265.415 250.996 266.543C249.38 267.672 248.035 269.138 247.056 270.838C246.076 272.537 245.486 274.428 245.327 276.378C245.168 278.328 245.444 280.288 246.136 282.121L260.956 333.454L328.388 381.276Z" fill="white"/>
<path d="M221.061 224.894C221.061 232.5 226.057 244.28 232.358 249.329C236.598 252.726 242.202 252.583 244.362 247.933C246.578 243.162 254.218 231.948 267.663 224.894C285.587 215.491 261.307 199.403 244.362 201.856C231.629 203.699 221.061 212.17 221.061 224.894Z" fill="#151515"/>
<path d="M233.064 214.422C240.863 214.422 247.186 208.171 247.186 200.459C247.186 192.748 240.863 186.497 233.064 186.497C225.265 186.497 218.942 192.748 218.942 200.459C218.942 208.171 225.265 214.422 233.064 214.422Z" fill="#151515"/>
<path d="M249.304 195.573C249.302 192.052 247.955 188.663 245.533 186.083C243.11 183.504 239.791 181.925 236.241 181.663C236.592 181.637 236.942 181.61 237.3 181.61C241.045 181.61 244.637 183.081 247.286 185.699C249.934 188.318 251.422 191.869 251.422 195.573C251.422 199.276 249.934 202.827 247.286 205.446C244.637 208.064 241.045 209.535 237.3 209.535C236.942 209.535 236.592 209.508 236.241 209.482C239.791 209.22 243.11 207.641 245.533 205.062C247.955 202.482 249.302 199.093 249.304 195.573Z" fill="#151515"/>
<path d="M253.894 239.555C255.649 239.555 257.071 237.679 257.071 235.366C257.071 233.053 255.649 231.177 253.894 231.177C252.139 231.177 250.716 233.053 250.716 235.366C250.716 237.679 252.139 239.555 253.894 239.555Z" fill="#FFB8B8"/>
<path d="M576.661 559.874H356.826L310.274 342.291H270.545V332.528H318.278L364.83 550.111H576.661V559.874Z" fill="#151515"/>
<path d="M408.38 599.624C420.066 599.624 429.54 590.257 429.54 578.703C429.54 567.148 420.066 557.781 408.38 557.781C396.694 557.781 387.22 567.148 387.22 578.703C387.22 590.257 396.694 599.624 408.38 599.624Z" fill="#151515"/>
<path d="M508.359 599.624C520.046 599.624 529.519 590.257 529.519 578.703C529.519 567.148 520.046 557.781 508.359 557.781C496.673 557.781 487.199 567.148 487.199 578.703C487.199 590.257 496.673 599.624 508.359 599.624Z" fill="#151515"/>
<path d="M572.652 555.276H358.765L321.027 370.883H608.067C609.532 370.883 610.979 371.197 612.31 371.803C613.64 372.409 614.822 373.293 615.774 374.393C616.726 375.494 617.425 376.785 617.824 378.179C618.223 379.572 618.312 381.034 618.085 382.465L582.669 546.807C582.303 549.171 581.091 551.327 579.252 552.882C577.414 554.436 575.071 555.286 572.652 555.276ZM361.088 552.487H572.652C574.398 552.494 576.089 551.881 577.415 550.759C578.742 549.636 579.617 548.08 579.88 546.374L615.297 382.032C615.461 380.999 615.397 379.944 615.109 378.938C614.822 377.932 614.317 377 613.63 376.206C612.943 375.411 612.09 374.774 611.129 374.336C610.169 373.899 609.125 373.673 608.067 373.673H324.452L361.088 552.487Z" fill="#151515"/>
<path d="M419.684 554.686L394.97 372.505L397.753 372.051L422.468 554.232L419.684 554.686Z" fill="#151515"/>
<path d="M499.091 553.287L496.305 552.841L520.298 372.055L523.084 372.501L499.091 553.287Z" fill="#151515"/>
<path d="M472.294 372.278H469.472V554.459H472.294V372.278Z" fill="#151515"/>
<path d="M335.439 421.095L335.432 423.884L608.535 424.538L608.542 421.749L335.439 421.095Z" fill="#151515"/>
<path d="M589.27 507.266L349.343 508.888L349.362 511.677L589.289 510.056L589.27 507.266Z" fill="#151515"/>
<path d="M332.791 344.383C341.361 344.383 348.308 340.636 348.308 336.014C348.308 331.392 341.361 327.646 332.791 327.646C324.221 327.646 317.273 331.392 317.273 336.014C317.273 340.636 324.221 344.383 332.791 344.383Z" fill="#151515"/>
</svg>
