<svg width="63" height="68" viewBox="0 0 63 68" fill="none" xmlns="http://www.w3.org/2000/svg">
<path d="M31.9996 64.234C33.7857 64.234 35.2336 62.7861 35.2336 61C35.2336 59.2139 33.7857 57.766 31.9996 57.766C30.2135 57.766 28.7656 59.2139 28.7656 61C28.7656 62.7861 30.2135 64.234 31.9996 64.234Z" fill="#EDEDED"/>
<path d="M53.8647 65.058L45.6147 53H41.9727L51.3877 66.751C51.6087 67.075 51.9497 67.294 52.3497 67.371C52.4497 67.39 52.5477 67.398 52.6447 67.398C52.9417 67.398 53.2237 67.312 53.4737 67.142C53.8037 66.916 54.0277 66.572 54.1027 66.171C54.1767 65.788 54.0927 65.393 53.8647 65.058Z" fill="#EDEDED"/>
<path d="M9.1382 65.059C8.9102 65.393 8.8262 65.789 8.9002 66.171C8.9742 66.572 9.1982 66.917 9.5302 67.143C9.7822 67.315 10.0702 67.404 10.3562 67.404C10.4572 67.404 10.5572 67.393 10.6552 67.371C11.0522 67.295 11.3932 67.075 11.6132 66.752L21.0292 53H17.3872L9.1382 65.059Z" fill="#EDEDED"/>
<path d="M33 1.5V5H30V1.5C30 0.67 30.67 0 31.5 0C32.33 0 33 0.67 33 1.5Z" fill="#EDEDED"/>
<path d="M63 8C63 8.55 62.55 9 62 9H1C0.45 9 0 8.55 0 8C0 7.45 0.45 7 1 7H62C62.55 7 63 7.45 63 8Z" fill="#EDEDED"/>
<path d="M5 11V48C5 49.657 6.343 51 8 51H55C56.657 51 58 49.657 58 48V11H5ZM18.31 28.21C17.82 28.21 17.4 27.86 17.32 27.37C17.24 26.82 17.61 26.31 18.16 26.22C18.27 26.21 29.37 24.42 38.25 17.45L36.47 17.31C35.92 17.26 35.51 16.78 35.56 16.23C35.6 15.68 36.07 15.27 36.63 15.31L40.62 15.63C41.15 15.67 41.56 16.12 41.54 16.66L41.45 20.1C41.43 20.65 40.99 21.07 40.45 21.07H40.42C39.87 21.06 39.43 20.6 39.45 20.05L39.48 19.03C30.2 26.32 18.96 28.12 18.46 28.2C18.41 28.21 18.36 28.21 18.31 28.21ZM35 28V41C35 41.55 34.55 42 34 42H30C29.45 42 29 41.55 29 41V28C29 27.45 29.45 27 30 27H34C34.55 27 35 27.45 35 28ZM25 32V41C25 41.55 24.55 42 24 42H20C19.45 42 19 41.55 19 41V32C19 31.45 19.45 31 20 31H24C24.55 31 25 31.45 25 32ZM44 47H20C19.45 47 19 46.55 19 46C19 45.45 19.45 45 20 45H44C44.55 45 45 45.45 45 46C45 46.55 44.55 47 44 47ZM45 41C45 41.55 44.55 42 44 42H40C39.45 42 39 41.55 39 41V24C39 23.45 39.45 23 40 23H44C44.55 23 45 23.45 45 24V41Z" fill="#EDEDED"/>
<path d="M23.001 33H21.001V40H23.001V33Z" fill="#EDEDED"/>
<path d="M33 29H31V40H33V29Z" fill="#EDEDED"/>
<path d="M43 25H41V40H43V25Z" fill="#EDEDED"/>
<path d="M32.999 50.1909H30.999V58.7659H32.999V50.1909Z" fill="#EDEDED"/>
</svg>
