<svg width="61" height="77" viewBox="0 0 61 77" fill="none" xmlns="http://www.w3.org/2000/svg">
<path d="M51 74.798C51 75.898 50.1 76.798 49 76.798H12C10.9 76.798 10 75.898 10 74.798C10 73.698 10.9 72.798 12 72.798H49C50.1 72.798 51 73.698 51 74.798Z" fill="#EDEDED"/>
<path d="M41.3104 70.798H19.6904L23.6004 61.798H37.4004L41.3104 70.798Z" fill="#EDEDED"/>
<path d="M58 14.798H46V16.798H58C58.55 16.798 59 17.248 59 17.798V50.798C59 51.348 58.55 51.798 58 51.798H3C2.45 51.798 2 51.348 2 50.798V17.798C2 17.248 2.45 16.798 3 16.798H15V14.798H3C1.35 14.798 0 16.148 0 17.798V56.798C0 58.448 1.35 59.798 3 59.798H58C59.65 59.798 61 58.448 61 56.798V17.798C61 16.148 59.65 14.798 58 14.798ZM35 56.798H26C25.45 56.798 25 56.348 25 55.798C25 55.248 25.45 54.798 26 54.798H35C35.55 54.798 36 55.248 36 55.798C36 56.348 35.55 56.798 35 56.798Z" fill="#EDEDED"/>
<path d="M46 18.798V36.798C46 38.448 44.65 39.798 43 39.798H18C16.35 39.798 15 38.448 15 36.798V18.798H4V49.798H57V18.798H46ZM43 43.798H18C14.14 43.798 11 40.658 11 36.798C11 36.248 11.45 35.798 12 35.798C12.55 35.798 13 36.248 13 36.798C13 39.558 15.24 41.798 18 41.798H43C45.76 41.798 48 39.558 48 36.798C48 36.248 48.45 35.798 49 35.798C49.55 35.798 50 36.248 50 36.798C50 40.658 46.86 43.798 43 43.798Z" fill="#EDEDED"/>
<path d="M43 8.79797H39V13.813C40.234 14.741 41 16.209 41 17.798C41 20.555 38.757 22.798 36 22.798C33.243 22.798 31 20.555 31 17.798C31 16.209 31.766 14.741 33 13.813V8.79797H28V13.813C29.234 14.741 30 16.209 30 17.798C30 20.555 27.757 22.798 25 22.798C22.243 22.798 20 20.555 20 17.798C20 16.209 20.766 14.741 22 13.813V8.79797H18C17.45 8.79797 17 9.24797 17 9.79797V36.798C17 37.348 17.45 37.798 18 37.798H43C43.55 37.798 44 37.348 44 36.798V9.79797C44 9.24797 43.55 8.79797 43 8.79797Z" fill="#EDEDED"/>
<path d="M37 14.982V6.5C37 2.916 34.084 0 30.5 0C26.916 0 24 2.916 24 6.5V14.982C22.839 15.396 22 16.496 22 17.798C22 19.452 23.346 20.798 25 20.798C26.654 20.798 28 19.452 28 17.798C28 16.496 27.161 15.396 26 14.982V6.5C26 4.019 28.019 2 30.5 2C32.981 2 35 4.019 35 6.5V14.982C33.839 15.396 33 16.496 33 17.798C33 19.452 34.346 20.798 36 20.798C37.654 20.798 39 19.452 39 17.798C39 16.496 38.161 15.396 37 14.982ZM25 18.798C24.448 18.798 24 18.349 24 17.798C24 17.247 24.448 16.798 25 16.798C25.552 16.798 26 17.247 26 17.798C26 18.349 25.552 18.798 25 18.798ZM36 18.798C35.448 18.798 35 18.349 35 17.798C35 17.247 35.448 16.798 36 16.798C36.552 16.798 37 17.247 37 17.798C37 18.349 36.552 18.798 36 18.798Z" fill="#EDEDED"/>
</svg>
