<svg width="64" height="58" viewBox="0 0 64 58" fill="none" xmlns="http://www.w3.org/2000/svg">
<path d="M32.8112 0H12.7598V2.48571H32.8112V0Z" fill="#EDEDED"/>
<path d="M32.8112 4.14282V4.97139C32.8112 5.88282 31.9909 6.62854 30.9883 6.62854H14.5826C13.5801 6.62854 12.7598 5.88282 12.7598 4.97139V4.14282H32.8112Z" fill="#EDEDED"/>
<path d="M34.6348 4.14282V4.97139C34.6348 6.80254 33.0033 8.28568 30.989 8.28568H14.5833C12.5691 8.28568 10.9376 6.80254 10.9376 4.97139V4.14282H4.55762V53.8571H41.0148V4.14282H34.6348ZM11.849 25.6857H32.8119C33.3132 25.6857 33.7233 26.0585 33.7233 26.5143C33.7233 26.97 33.3132 27.3428 32.8119 27.3428H11.849C11.3478 27.3428 10.9376 26.97 10.9376 26.5143C10.9376 26.0585 11.3478 25.6857 11.849 25.6857ZM10.9376 21.5428C10.9376 21.0871 11.3478 20.7143 11.849 20.7143H28.2548C28.756 20.7143 29.1662 21.0871 29.1662 21.5428C29.1662 21.9985 28.756 22.3714 28.2548 22.3714H11.849C11.3478 22.3714 10.9376 21.9985 10.9376 21.5428ZM32.8119 42.2571H11.849C11.3478 42.2571 10.9376 41.8843 10.9376 41.4285C10.9376 40.9728 11.3478 40.6 11.849 40.6H32.8119C33.3132 40.6 33.7233 40.9728 33.7233 41.4285C33.7233 41.8843 33.3132 42.2571 32.8119 42.2571ZM10.9376 36.4571C10.9376 36.0014 11.3478 35.6285 11.849 35.6285H28.2548C28.756 35.6285 29.1662 36.0014 29.1662 36.4571C29.1662 36.9128 28.756 37.2857 28.2548 37.2857H11.849C11.3478 37.2857 10.9376 36.9128 10.9376 36.4571ZM33.7233 32.3143H11.849C11.3478 32.3143 10.9376 31.9414 10.9376 31.4857C10.9376 31.03 11.3478 30.6571 11.849 30.6571H33.7233C34.2246 30.6571 34.6348 31.03 34.6348 31.4857C34.6348 31.9414 34.2246 32.3143 33.7233 32.3143ZM33.7233 17.4H11.849C11.3478 17.4 10.9376 17.0271 10.9376 16.5714C10.9376 16.1157 11.3478 15.7428 11.849 15.7428H33.7233C34.2246 15.7428 34.6348 16.1157 34.6348 16.5714C34.6348 17.0271 34.2246 17.4 33.7233 17.4Z" fill="#EDEDED"/>
<path d="M45.5714 1.65714V56.3429C45.5714 57.2543 44.7511 58 43.7486 58H1.82286C0.820286 58 0 57.2543 0 56.3429V1.65714C0 0.745714 0.820286 0 1.82286 0H10.9371V2.48571H3.64571C3.14443 2.48571 2.73429 2.85857 2.73429 3.31429V54.6857C2.73429 55.1414 3.14443 55.5143 3.64571 55.5143H41.9257C42.427 55.5143 42.8371 55.1414 42.8371 54.6857V3.31429C42.8371 2.85857 42.427 2.48571 41.9257 2.48571H34.6343V0H43.7486C44.7511 0 45.5714 0.745714 45.5714 1.65714Z" fill="#EDEDED"/>
<path d="M62.6423 52.2L58.0578 56.7405L53.8926 52.2H62.6423Z" fill="#EDEDED"/>
<path d="M63.7994 19.0571V19.8857H52.8623V19.0571C52.8623 16.3146 55.314 14.0857 58.3309 14.0857C61.3477 14.0857 63.7994 16.3146 63.7994 19.0571Z" fill="#EDEDED"/>
<path d="M63.8003 21.5428H59.2432V50.5428H63.8003V21.5428Z" fill="#EDEDED"/>
<path d="M57.4194 21.5428H52.8623V50.5428H57.4194V21.5428Z" fill="#EDEDED"/>
</svg>
