<svg width="53" height="79" viewBox="0 0 53 79" fill="none" xmlns="http://www.w3.org/2000/svg">
<path d="M26.5 78.97C29.2614 78.97 31.5 76.7314 31.5 73.97C31.5 71.2085 29.2614 68.97 26.5 68.97C23.7386 68.97 21.5 71.2085 21.5 73.97C21.5 76.7314 23.7386 78.97 26.5 78.97Z" fill="#EDEDED"/>
<path d="M46.89 43.37C43.74 47.17 39.55 50.07 34.75 51.65C35.94 49.71 36.96 47.8 37.84 45.93C38.06 45.96 38.28 45.97 38.5 45.97C40.94 45.97 43.03 44.51 43.97 42.42C44.94 42.71 45.91 43.02 46.89 43.37Z" fill="#EDEDED"/>
<path d="M52.8803 28.97C52.4403 33.68 50.7603 38.02 48.1703 41.69C46.9203 41.24 45.6904 40.85 44.4704 40.48C44.4904 40.31 44.5004 40.14 44.5004 39.97C44.5004 37.8 43.3404 35.9 41.6104 34.85C42.0304 32.82 42.2903 30.86 42.4203 28.97H52.8803Z" fill="#EDEDED"/>
<path d="M38.5 43.97C40.7091 43.97 42.5 42.1791 42.5 39.97C42.5 37.7608 40.7091 35.97 38.5 35.97C36.2909 35.97 34.5 37.7608 34.5 39.97C34.5 42.1791 36.2909 43.97 38.5 43.97Z" fill="#EDEDED"/>
<path d="M40.4 28.97C40.28 30.62 40.06 32.33 39.71 34.09C39.32 34.01 38.91 33.97 38.5 33.97C35.85 33.97 33.61 35.69 32.81 38.07C30.98 37.86 29.2 37.74 27.5 37.68V28.97H40.4Z" fill="#EDEDED"/>
<path d="M35.9 45.37C34.8 47.66 33.49 50.01 31.91 52.41C30.48 52.71 29 52.89 27.5 52.94V39.73C29.11 39.78 30.78 39.9 32.51 40.09C32.55 42.41 33.92 44.41 35.9 45.37Z" fill="#EDEDED"/>
<path d="M18.6101 51.77C13.5201 50.18 9.09008 47.09 5.83008 43.02C6.57008 42.75 7.60008 42.39 8.87008 42.02C9.71008 44.32 11.9101 45.97 14.5001 45.97C14.8101 45.97 15.1201 45.94 15.4201 45.89C16.3301 47.81 17.3801 49.77 18.6101 51.77Z" fill="#EDEDED"/>
<path d="M25.4998 39.71V52.94C24.1198 52.89 22.7598 52.74 21.4398 52.48C19.8098 50.01 18.4598 47.6 17.3398 45.25C19.2198 44.24 20.4998 42.25 20.4998 39.97V39.91C22.0798 39.78 23.7498 39.71 25.4998 39.71Z" fill="#EDEDED"/>
<path d="M25.5001 28.97V37.65C23.6101 37.65 21.8101 37.74 20.1201 37.88C19.2701 35.6 17.0701 33.97 14.5001 33.97C14.1801 33.97 13.8701 34 13.5601 34.05C13.2101 32.31 12.9901 30.61 12.8701 28.97H25.5001Z" fill="#EDEDED"/>
<path d="M14.5 43.97C16.7091 43.97 18.5 42.1791 18.5 39.97C18.5 37.7608 16.7091 35.97 14.5 35.97C12.2909 35.97 10.5 37.7608 10.5 39.97C10.5 42.1791 12.2909 43.97 14.5 43.97Z" fill="#EDEDED"/>
<path d="M11.6201 34.71C9.76012 35.73 8.50012 37.7 8.50012 39.97V40.01C6.75012 40.52 5.42012 41.01 4.58012 41.35C2.13012 37.75 0.550117 33.53 0.120117 28.97H10.8401C10.9601 30.82 11.2201 32.73 11.6201 34.71Z" fill="#EDEDED"/>
<path d="M25.5002 15.09V26.97H12.7702C12.7102 24.08 12.9702 21.37 13.4402 18.87C13.7902 18.93 14.1402 18.97 14.5002 18.97C17.1502 18.97 19.4002 17.24 20.1902 14.85C21.8702 14.99 23.6203 15.09 25.4903 15.09H25.5002Z" fill="#EDEDED"/>
<path d="M40.49 26.97H27.5V15.05C30.9 14.94 34.58 14.56 38.46 13.77C39.73 17.55 40.58 21.99 40.49 26.97Z" fill="#EDEDED"/>
<path d="M52.9997 26.47C52.9997 26.64 52.9897 26.8 52.9897 26.97H42.5097C42.5997 21.84 41.7197 17.26 40.4297 13.34C42.8997 12.76 45.4397 12.03 48.0597 11.09C51.1597 15.43 52.9997 20.74 52.9997 26.47Z" fill="#EDEDED"/>
<path d="M46.7603 9.41997C44.3703 10.25 42.0304 10.92 39.7504 11.44C38.0204 6.89997 35.7904 3.36997 34.1104 1.08997C39.1004 2.58997 43.4803 5.51997 46.7603 9.41997Z" fill="#EDEDED"/>
<path d="M37.78 11.86C34.15 12.57 30.7 12.91 27.5 13.01V0C28.68 0.04 29.84 0.16 30.98 0.36C32.44 2.05 35.51 6.05 37.78 11.86Z" fill="#EDEDED"/>
<path d="M25.4996 0V13.04C23.7396 13.04 22.0696 12.96 20.4896 12.83C20.4396 10.61 19.1796 8.69 17.3496 7.69C19.2096 4.11 21.1596 1.58 22.2596 0.31C23.3196 0.14 24.3996 0.04 25.4996 0Z" fill="#EDEDED"/>
<path d="M19.1502 1.02002C18.0402 2.51002 16.7102 4.55002 15.4302 7.05002C15.1202 7.00002 14.8202 6.97002 14.5002 6.97002C11.9802 6.97002 9.8202 8.53002 8.9402 10.74C7.7002 10.38 6.6902 10.04 5.9502 9.76002C9.3102 5.63002 13.9002 2.53002 19.1502 1.02002Z" fill="#EDEDED"/>
<path d="M14.5 16.97C16.7091 16.97 18.5 15.1791 18.5 12.97C18.5 10.7608 16.7091 8.96997 14.5 8.96997C12.2909 8.96997 10.5 10.7608 10.5 12.97C10.5 15.1791 12.2909 16.97 14.5 16.97Z" fill="#EDEDED"/>
<path d="M11.52 18.17C10.99 20.88 10.69 23.82 10.75 26.97H0.0100002C0.0100002 26.8 0 26.64 0 26.47C0 20.89 1.74 15.71 4.69 11.44C5.53 11.77 6.83 12.24 8.51 12.73C8.51 12.81 8.5 12.89 8.5 12.97C8.5 15.2 9.72 17.14 11.52 18.17Z" fill="#EDEDED"/>
<path d="M27.5 51.97H25.5V69.97H27.5V51.97Z" fill="#EDEDED"/>
<path d="M22.5 74.97H6.5C5.948 74.97 5.5 74.522 5.5 73.97C5.5 73.418 5.948 72.97 6.5 72.97H22.5C23.052 72.97 23.5 73.418 23.5 73.97C23.5 74.522 23.052 74.97 22.5 74.97Z" fill="#EDEDED"/>
<path d="M46.5 74.97H30.5C29.948 74.97 29.5 74.522 29.5 73.97C29.5 73.418 29.948 72.97 30.5 72.97H46.5C47.052 72.97 47.5 73.418 47.5 73.97C47.5 74.522 47.052 74.97 46.5 74.97Z" fill="#EDEDED"/>
</svg>
