<svg width="108" height="98" viewBox="0 0 108 98" fill="none" xmlns="http://www.w3.org/2000/svg">
<path d="M91.7477 25.9378L85.1635 30.7351C87.3488 34.2809 87.3068 38.7572 85.0558 42.261C82.8003 45.7648 78.7337 47.6819 74.5781 47.1933C70.4226 46.7047 66.9129 43.9035 65.5417 39.9716C64.1706 36.0443 65.1767 31.6798 68.1343 28.7389C68.4151 28.4597 68.7146 28.1898 69.0281 27.9432L64.4701 20.9635C62.9867 21.6614 61.3676 22.0197 59.7297 22.0197C59.4162 22.0197 59.098 22.0058 58.7985 21.9825L55.7333 35.7004C61.8028 37.6454 65.5698 43.6713 64.6293 49.9437C63.6934 56.2161 58.3259 60.8925 51.9522 60.9949C51.9288 61.3671 51.8727 61.7394 51.7791 62.1023C51.4328 63.3773 50.6326 64.4894 49.5235 65.2199C50.2535 65.6899 50.8619 66.3181 51.2971 67.0626C52.7946 69.6544 51.9055 72.9628 49.3082 74.4611C49.2801 74.475 49.2521 74.4936 49.224 74.503L48.6812 74.8147L48.6765 74.8194C50.2722 75.8384 51.2175 77.616 51.1707 79.5005C51.1239 81.3896 50.0944 83.116 48.4472 84.0559L43.5148 86.885L43.5195 86.8896L32.6768 93.1109V93.1156C32.6487 93.1296 32.6206 93.1435 32.5879 93.1575C30.716 94.223 28.6149 94.8373 26.4622 94.9536C24.5202 95.0513 22.5828 94.7535 20.7671 94.0741L14.2718 97.8013C13.5651 98.2061 12.6619 97.9735 12.2502 97.2755C12.2361 97.2522 12.2221 97.2197 12.208 97.1964L0.195851 76.4992C0.00398212 76.1641 -0.0521674 75.7593 0.0507875 75.3824C0.153739 75.0102 0.401762 74.6891 0.743367 74.4937L7.22938 70.7711C7.51952 69.0356 8.13722 67.365 9.04972 65.8574C10.0839 64.1358 11.4831 62.6654 13.1538 61.5393C13.486 61.316 13.7902 61.0507 14.0523 60.7436C14.3096 60.4365 14.5202 60.0922 14.684 59.7246L21.5911 44.5605C21.7455 44.2348 21.9561 43.9463 22.2229 43.6997C22.761 43.2204 23.4724 42.9691 24.1976 43.011C24.5579 43.0389 24.9042 43.1367 25.2225 43.3042C29.4247 45.4586 31.465 50.3025 30.0612 54.7928L38.8075 49.7673C38.7934 49.6649 38.7841 49.5532 38.7701 49.4462V49.4509C38.7233 48.9809 38.6952 48.5109 38.6905 48.0363C38.6905 45.3747 39.5188 42.7782 41.0538 40.6006L34.6239 35.7101C29.8226 39.963 22.5219 39.7676 17.96 35.2634C13.398 30.7592 13.1447 23.5002 17.3891 18.6985C21.6288 13.8917 28.901 13.2031 33.9835 17.1164C39.0656 21.0344 40.2028 28.2049 36.5854 33.4907L43.0153 38.3952C45.4066 36.2547 48.5091 35.0681 51.724 35.0728C52.0937 35.0728 52.4634 35.0914 52.8284 35.124L55.8983 21.3465H55.9029C51.2841 19.6573 48.3407 15.1439 48.6729 10.2627C49.0051 5.3861 52.5383 1.30538 57.3396 0.258432C62.1455 -0.793177 67.0732 1.43103 69.4368 5.72119C71.8001 10.0114 71.0325 15.3392 67.5509 18.7971C67.3544 18.9925 67.1485 19.174 66.9379 19.3647L71.5521 26.4329H71.5568C75.5204 24.7484 80.1111 25.5441 83.2698 28.4616L89.4048 23.9946C85.6658 19.8579 85.7782 13.553 89.6575 9.55122C93.5416 5.54948 99.8731 5.20523 104.164 8.76484C108.46 12.3292 109.26 18.583 105.994 23.0962C102.732 27.6145 96.5126 28.8521 91.7484 25.9393L91.7477 25.9378ZM44.4788 77.2299L39.5511 80.059L39.5465 80.0637C38.8398 80.4685 37.9366 80.2266 37.5295 79.5239C37.1224 78.8167 37.3657 77.9185 38.0724 77.5138L43.0047 74.6893C43.0562 74.666 43.103 74.6335 43.1545 74.6102L47.7451 71.9766H47.7405C47.7639 71.9533 47.7919 71.9393 47.82 71.9254C48.9993 71.2321 49.4017 69.729 48.7279 68.5472C48.3956 67.9842 47.8528 67.5747 47.2164 67.4119C46.5799 67.2397 45.9013 67.3235 45.3258 67.6445L35.5782 73.2469C34.8669 73.6517 33.9636 73.4098 33.5566 72.7071C33.1494 71.9999 33.3928 71.1017 34.0994 70.697L43.8564 65.0853L47.6796 62.8937C47.703 62.8751 47.7311 62.8612 47.7545 62.8426V62.8472C48.9151 62.1725 49.3315 60.7067 48.7045 59.5295L48.667 59.4736C48.0213 58.3708 46.6408 57.9334 45.4708 58.4592C45.4287 58.4825 45.3819 58.5058 45.3351 58.5244L45.2743 58.5616C45.2462 58.5756 45.2181 58.5942 45.19 58.6035L31.6145 66.4022C30.9079 66.807 30.0046 66.5651 29.5975 65.8624C29.1904 65.1552 29.4338 64.257 30.1404 63.8523L43.7112 56.0629C43.7346 56.0442 43.7626 56.0349 43.786 56.0117L43.9264 55.9326C43.9639 55.9093 44.0013 55.8907 44.0434 55.8628L53.4214 50.4791V50.4838C54.1327 50.0883 54.6755 49.4508 54.9469 48.6923C55.1762 48.1014 55.1387 47.4452 54.858 46.8823L54.8299 46.8264H54.8252C54.4836 46.2727 53.9127 45.8911 53.2669 45.7888C52.4666 45.6399 51.6383 45.7888 50.9411 46.2029V46.1983L41.2308 51.7681C41.1981 51.7867 41.17 51.8053 41.1326 51.824L27.7439 59.5156C27.1917 59.8878 26.4663 59.8506 25.9562 59.4225C25.4508 58.9991 25.2871 58.2918 25.5631 57.6916L26.9436 54.6623H26.9389C28.3662 51.5122 27.1635 47.799 24.1545 46.068L17.3832 60.9343C16.831 62.1674 15.9372 63.219 14.8141 63.9682C13.4991 64.8523 12.3994 66.0108 11.5898 67.365C10.9207 68.4678 10.4574 69.673 10.2094 70.934L22.105 91.4311H22.1097C23.4621 91.8917 24.8894 92.0872 26.3167 92.0081C28.0061 91.9196 29.6533 91.4404 31.1273 90.6074C31.1507 90.5935 31.1741 90.5795 31.1975 90.5656L42.0402 84.3442L46.9772 81.5058C48.1425 80.8125 48.5356 79.3143 47.8523 78.1463C47.1738 76.9737 45.6716 76.5642 44.4877 77.2249L44.4788 77.2299ZM18.891 91.7567L8.31044 73.5396L3.49981 76.2989L14.0711 94.5208L18.891 91.7567ZM51.2558 58.0396C51.3962 58.0442 51.5553 58.0442 51.7331 58.0442C55.8044 58.0442 59.4779 55.606 61.0362 51.8649C62.5946 48.1238 61.7288 43.8149 58.8508 40.9532C55.9729 38.0915 51.6396 37.2353 47.8771 38.7848C44.1147 40.3343 41.6625 43.9824 41.6625 48.0353V48.133L49.4588 43.6567V43.652C50.7785 42.8842 52.332 42.6097 53.8388 42.8889C55.3223 43.1588 56.6185 44.0568 57.3906 45.3504C57.4093 45.383 57.4234 45.4155 57.4374 45.4528C58.1394 46.737 58.2517 48.2587 57.7556 49.6359C57.2502 51.0737 56.2395 52.279 54.9057 53.0328L49.4633 56.155C50.1933 56.6157 50.797 57.2485 51.2322 57.9884C51.2369 58.007 51.2511 58.0163 51.2558 58.0396ZM97.3782 10.8107C99.3156 10.8153 101.089 11.8995 101.969 13.6165C102.849 15.3336 102.69 17.3996 101.552 18.9584C101.655 19.0096 101.763 19.0514 101.861 19.098V19.1026C102.699 19.4842 103.48 19.9681 104.187 20.5497C105.488 18.1673 105.432 15.273 104.037 12.9418C102.643 10.606 100.111 9.17738 97.3829 9.17738C94.65 9.17738 92.123 10.6059 90.7237 12.9418C89.3292 15.273 89.2731 18.1673 90.574 20.5497C91.2853 19.9681 92.0621 19.4841 92.8997 19.1026C92.998 19.0514 93.1057 19.0096 93.2086 18.963V18.9584C92.0668 17.3996 91.903 15.3335 92.7828 13.6165C93.6625 11.8949 95.4362 10.8107 97.3782 10.8107ZM98.9366 14.4029C98.1972 13.6677 97.0367 13.556 96.1709 14.133C95.3005 14.71 94.9589 15.8175 95.3613 16.7807C95.7591 17.7392 96.7886 18.2883 97.8135 18.0836C98.843 17.8789 99.5778 16.9855 99.5778 15.9431C99.5824 15.3661 99.3484 14.8124 98.9366 14.4029ZM102.301 22.825C101.791 22.4109 101.225 22.0573 100.626 21.7827C98.5622 20.8474 96.1991 20.8474 94.1353 21.7827C93.541 22.0619 92.9748 22.4109 92.4647 22.825C95.3193 25.1655 99.442 25.1655 102.301 22.825ZM26.5658 19.9215C28.7699 19.9215 30.7775 21.1825 31.7275 23.1648C32.6821 25.1424 32.4013 27.4922 31.0162 29.1999C31.2267 29.2837 31.4373 29.3721 31.6479 29.4698C32.6727 29.9397 33.6273 30.554 34.4838 31.2891C36.1357 28.4693 36.1497 24.9887 34.5118 22.1596C32.8786 19.3305 29.851 17.5902 26.5705 17.5902C23.2901 17.5902 20.2577 19.3305 18.6245 22.1596C16.9913 24.9887 17.0053 28.4693 18.6573 31.2891C19.5137 30.5539 20.4683 29.9397 21.4932 29.4698C21.7037 29.3721 21.905 29.2837 22.1249 29.1999C20.735 27.4922 20.4543 25.1471 21.4042 23.1648C22.3542 21.1825 24.3618 19.9215 26.5706 19.9215H26.5658ZM28.5172 23.6719C27.5813 22.7459 26.1212 22.6063 25.0308 23.3322C23.9358 24.0627 23.51 25.4587 24.0154 26.6685C24.5207 27.8783 25.817 28.5623 27.1086 28.3064C28.4001 28.0506 29.3267 26.9244 29.3267 25.6123C29.3314 24.8864 29.0413 24.1884 28.5218 23.6719L28.5172 23.6719ZM32.5931 33.5552C31.9333 32.9828 31.1939 32.5036 30.3984 32.1406C27.9651 31.0332 25.1666 31.0332 22.7286 32.1406C21.933 32.5036 21.1984 32.9828 20.5385 33.5552C23.9921 36.5518 29.1402 36.5518 32.5931 33.5552ZM75.8464 30.2422C77.8258 30.2422 79.6369 31.3543 80.5307 33.1132C81.4199 34.8768 81.2374 36.9847 80.0581 38.5667C80.1751 38.6179 80.2968 38.6644 80.4184 38.7203C81.2748 39.1204 82.0797 39.623 82.8144 40.2232C84.1621 37.7756 84.1106 34.8023 82.6787 32.4013C81.2514 30.0003 78.6495 28.5299 75.8465 28.5299C73.0386 28.5299 70.4415 30.0003 69.0096 32.4013C67.5823 34.8023 67.5308 37.7756 68.8785 40.2232C69.6086 39.6229 70.4134 39.1204 71.2745 38.7203C71.3915 38.6644 71.5085 38.6179 71.6348 38.5667C70.4555 36.9847 70.2731 34.8767 71.1622 33.1132C72.0513 31.3543 73.8668 30.2422 75.8464 30.2422ZM77.4562 33.8576V33.853C76.6841 33.0899 75.4815 32.9782 74.5783 33.5784C73.6751 34.1834 73.3241 35.3374 73.7453 36.3331C74.1618 37.3335 75.2335 37.9012 76.3004 37.6872C77.3673 37.4731 78.1348 36.5378 78.1301 35.4583C78.1301 34.8534 77.8914 34.2764 77.4609 33.8529L77.4562 33.8576ZM80.9238 42.4985C80.395 42.0518 79.8054 41.6842 79.1737 41.3957C77.0632 40.4325 74.6297 40.4325 72.5145 41.3957C71.8875 41.6842 71.2979 42.0518 70.7691 42.4985C73.7125 44.9229 77.9755 44.9229 80.9238 42.4985ZM59.7208 4.75635C61.7377 4.74704 63.5815 5.8731 64.4847 7.6692C65.3832 9.46066 65.1819 11.6058 63.9652 13.2018C64.1009 13.2576 64.232 13.3134 64.363 13.3739C65.2428 13.7787 66.0664 14.2952 66.8152 14.9142C68.2051 12.42 68.1629 9.37695 66.7075 6.92009C65.2474 4.45858 62.5941 2.95099 59.7209 2.95099C56.8523 2.95099 54.1942 4.45858 52.7389 6.92009C51.2836 9.37695 51.2414 12.4201 52.6313 14.9142C53.38 14.2953 54.2083 13.7788 55.0881 13.3739C55.2145 13.3134 55.3408 13.2576 55.4765 13.2018C54.2692 11.601 54.0773 9.46066 54.9758 7.67385C55.8743 5.88239 57.7133 4.75635 59.7208 4.75635ZM61.382 8.39048H61.3773C60.7082 7.72508 59.7021 7.52499 58.827 7.88793C57.9519 8.24622 57.381 9.09307 57.381 10.0377C57.381 11.3219 58.4292 12.3596 59.7208 12.3642H59.7254C60.3478 12.3642 60.9421 12.1176 61.382 11.6802C61.8219 11.2428 62.0652 10.6519 62.0652 10.033C62.0699 9.41882 61.8219 8.82324 61.382 8.39048ZM64.9291 17.1942C64.3769 16.7335 63.7686 16.352 63.1181 16.0495C60.9608 15.0677 58.4806 15.0677 56.3233 16.0495C55.6775 16.352 55.0691 16.7335 54.5216 17.1942C57.5306 19.6976 61.9155 19.6976 64.9291 17.1942Z" fill="#EDEDED"/>
</svg>
