<svg width="98" height="98" viewBox="0 0 98 98" fill="none" xmlns="http://www.w3.org/2000/svg">
<path d="M98 67.3739V51.0401H81.6662V57.1661H56.9088C56.6705 56.2438 56.2747 55.3829 55.7482 54.6142C70.798 52.3352 83.9304 42.5503 90.283 28.3968L90.6597 27.559L90.283 26.7212C82.9965 10.4917 66.7898 0 49 0C31.2102 0 15.0033 10.4917 7.71697 26.7251L7.34034 27.5629L7.71697 28.4007C14.0696 42.5553 27.202 52.3396 42.2518 54.6182C41.7292 55.3868 41.3295 56.2438 41.0912 57.17L16.3338 57.1662V51.0402H0V67.374H16.3338V61.2518H31.8293C24.3966 65.6445 18.4933 72.9192 15.8192 81.6862C11.5534 81.9514 8.16757 85.5024 8.16757 89.8336C8.16757 94.3377 11.8301 98.0003 16.3343 98.0003C20.8384 98.0003 24.5009 94.3377 24.5009 89.8336C24.5009 86.59 22.5986 83.7807 19.8545 82.4663C23.0982 72.3701 31.3606 64.342 41.2187 61.6826C42.2679 64.9801 45.3616 67.3744 49.0011 67.3744C52.6406 67.3744 55.7343 64.9801 56.7835 61.6826C66.6445 64.3382 74.9078 72.3701 78.1476 82.4663C75.3997 83.7845 73.5012 86.59 73.5012 89.8336C73.5012 94.3377 77.1638 98.0003 81.6679 98.0003C86.172 98.0003 89.8346 94.3377 89.8346 89.8336C89.8346 85.5024 86.4488 81.9514 82.183 81.6862C79.5042 72.9046 73.5935 65.6378 66.1729 61.2518H81.6684V67.3778L98 67.3739ZM20.4151 89.833C20.4151 92.0851 18.5819 93.9144 16.3338 93.9144C14.0816 93.9144 12.2524 92.0812 12.2524 89.833C12.2524 87.5809 14.0856 85.7517 16.3338 85.7517C18.5859 85.7478 20.4151 87.581 20.4151 89.833ZM49.0007 63.2919C46.7486 63.2919 44.9193 61.4587 44.9193 59.2105C44.9193 56.9584 46.7525 55.1292 49.0007 55.1292C51.2528 55.1292 53.0821 56.9624 53.0821 59.2105C53.0821 61.4587 51.2527 63.2919 49.0007 63.2919ZM49.0007 51.0401C33.1244 51.0401 18.6363 41.8551 11.8301 27.5627C18.6363 13.2665 33.1254 4.08129 49.0007 4.08129C64.876 4.08129 79.365 13.2664 86.1713 27.5587C79.365 41.855 64.876 51.0401 49.0007 51.0401ZM81.6672 85.7471C83.9193 85.7471 85.7486 87.5803 85.7486 89.8285C85.7486 92.0806 83.9154 93.9099 81.6672 93.9099C79.4151 93.9099 77.5859 92.0767 77.5859 89.8285C77.5859 87.5803 79.4152 85.7471 81.6672 85.7471Z" fill="#EDEDED"/>
<path d="M48.9995 8.16626C38.3041 8.16626 29.603 16.8672 29.603 27.5627C29.603 38.2581 38.3039 46.9592 48.9995 46.9592C59.695 46.9592 68.3959 38.2583 68.3959 27.5627C68.3959 16.8674 59.695 8.16626 48.9995 8.16626ZM48.9995 36.7479C43.9343 36.7479 39.8106 32.628 39.8106 27.559C39.8106 22.4976 43.9343 18.3739 48.9995 18.3739C54.0647 18.3739 58.1884 22.4938 58.1884 27.5628C58.1884 32.628 54.0647 36.7479 48.9995 36.7479Z" fill="#EDEDED"/>
<path d="M54.1046 27.5637C54.1046 34.3699 43.8972 34.3699 43.8972 27.5637C43.8972 20.7574 54.1046 20.7574 54.1046 27.5637Z" fill="#EDEDED"/>
</svg>
