<svg width="543" height="626" viewBox="0 0 543 626" fill="none" xmlns="http://www.w3.org/2000/svg">
<path d="M126.153 253.514C98.679 226.468 87.0753 198.252 93.4784 174.065C101.696 143.025 138.201 121.564 193.635 115.184L193.839 116.965C139.178 123.256 103.229 144.235 95.2108 174.523C88.9792 198.062 100.414 225.662 127.41 252.238L126.153 253.514Z" fill="#EDEDED"/>
<path d="M391.234 349.519C356.945 349.519 319.683 344.424 282.672 334.625C236.903 322.509 194.937 304.22 161.312 281.735L162.308 280.246C195.771 302.621 237.551 320.827 283.131 332.893C324.32 343.798 365.819 348.851 403.125 347.518L403.19 349.308C399.25 349.449 395.265 349.52 391.234 349.519Z" fill="#EDEDED"/>
<path d="M188.3 350.27C120.924 320.388 69.005 281.62 42.1089 241.106L43.6015 240.114C70.3118 280.348 121.958 318.887 189.026 348.632L188.3 350.27Z" fill="#EDEDED"/>
<path d="M425.193 402.037C418.243 402.037 411.175 401.882 403.988 401.571L404.065 399.781C457.699 402.103 505.021 395.685 540.925 381.216L541.595 382.879C510.275 395.499 470.356 402.037 425.193 402.037Z" fill="#EDEDED"/>
<path d="M386.098 116.789C374.962 113.163 363.508 109.787 352.053 106.755C286.136 89.3042 221.34 83.1084 164.665 88.8405L164.485 87.0574C221.371 81.3065 286.389 87.5172 352.512 105.022C363.999 108.064 375.485 111.449 386.653 115.085L386.098 116.789Z" fill="#EDEDED"/>
<path d="M84.0442 256.201C56.5701 229.155 44.9664 200.939 51.3696 176.751C59.5869 145.712 96.0924 124.251 151.526 117.871L151.73 119.651C97.0688 125.942 61.1202 146.922 53.1019 177.21C46.8703 200.749 58.3056 228.348 85.3015 254.924L84.0442 256.201Z" fill="#EDEDED"/>
<path d="M349.125 352.209C314.836 352.209 277.574 347.113 240.563 337.315C194.794 325.198 152.828 306.909 119.204 284.424L120.199 282.935C153.662 305.311 195.442 323.516 241.022 335.582C282.211 346.487 323.71 351.54 361.016 350.207L361.081 351.997C357.141 352.139 353.156 352.209 349.125 352.209Z" fill="#EDEDED"/>
<path d="M427.789 340.939L427.215 339.242C457.882 328.873 477.063 312.17 482.685 290.937C489.83 263.945 474.306 232.623 438.972 202.74C403.458 172.705 352.246 147.783 294.768 132.567L295.226 130.835C352.956 146.118 404.417 171.168 440.129 201.372C476.021 231.727 491.75 263.698 484.417 291.396C478.635 313.238 459.053 330.369 427.789 340.939Z" fill="#EDEDED"/>
<path d="M146.191 352.955C78.8148 323.073 26.8961 284.304 0 243.79L1.49263 242.799C28.2029 283.032 79.849 321.571 146.918 351.317L146.191 352.955Z" fill="#EDEDED"/>
<path d="M383.084 404.724C376.134 404.724 369.066 404.569 361.879 404.258L361.956 402.468C415.59 404.79 462.912 398.372 498.816 383.903L499.486 385.566C468.166 398.186 428.247 404.724 383.084 404.724Z" fill="#EDEDED"/>
<path d="M343.99 119.478C332.854 115.852 321.399 112.476 309.944 109.444C244.028 91.9934 179.231 85.7977 122.557 91.5297L122.376 89.7466C179.262 83.9957 244.281 90.2064 310.403 107.712C321.89 110.753 333.377 114.138 344.544 117.775L343.99 119.478Z" fill="#EDEDED"/>
<path d="M355.131 280.767L370.362 278.975L375.738 325.563L389.462 389.898C391.371 390.828 392.929 392.349 393.903 394.236C394.877 396.123 395.216 398.273 394.869 400.368C394.522 402.463 393.508 404.39 391.977 405.861C390.447 407.333 388.482 408.271 386.375 408.536C384.268 408.801 382.133 408.378 380.286 407.331C378.438 406.284 376.979 404.668 376.124 402.724C375.27 400.781 375.066 398.613 375.543 396.544C376.02 394.475 377.152 392.615 378.771 391.242L364.987 353.337L355.131 280.767Z" fill="#FFB6B6"/>
<path d="M333.009 612.897H345.557L351.528 564.494H333.007L333.009 612.897Z" fill="#FFB6B6"/>
<path d="M329.806 625.059H370.268V624.548C370.268 620.371 368.609 616.366 365.655 613.412C362.702 610.459 358.697 608.8 354.52 608.799H329.806V625.059Z" fill="#151515"/>
<path d="M236.706 606.055L249.026 608.433L264.067 562.042L245.88 558.531L236.706 606.055Z" fill="#FFB6B6"/>
<path d="M231.261 617.391L270.989 625.063L271.086 624.56C271.878 620.459 271.008 616.212 268.668 612.752C266.329 609.292 262.71 606.903 258.609 606.11L234.345 601.425L231.261 617.391Z" fill="#151515"/>
<path d="M352.688 204.421L345.397 218.41L290.79 206.366L296.772 179.244C301.507 157.775 320.489 142.271 341.957 147.006C363.425 151.741 373.441 172.724 368.707 194.192L359.907 221.607L351.003 219.644L352.688 204.421Z" fill="#2F2E41"/>
<path d="M372.158 358.713C372.158 358.713 377.534 385.59 370.366 425.011C363.199 464.432 361.407 481.455 361.407 481.455C361.407 481.455 366.783 487.726 363.199 491.31C359.615 494.893 363.199 502.061 363.199 502.061L355.136 588.966L327.362 584.486L330.946 502.957C330.946 502.957 327.362 495.789 329.154 493.998C330.946 492.206 327.362 481.455 327.362 481.455L322.882 396.342L295.109 489.518C295.109 489.518 297.796 493.102 295.109 495.789C292.421 498.477 287.045 511.916 287.045 511.916L269.127 574.631L240.457 569.255L256.584 497.581C256.584 497.581 254.792 493.102 257.48 490.414C258.264 489.592 258.836 488.591 259.148 487.499C259.46 486.406 259.503 485.255 259.271 484.142C259.271 484.142 256.584 481.455 260.167 477.871C263.751 474.287 265.543 459.952 265.543 459.952C265.543 459.952 268.231 364.088 277.19 358.713C286.149 353.337 372.158 358.713 372.158 358.713Z" fill="#151515"/>
<path d="M331.645 210.47C345.499 210.47 356.73 199.239 356.73 185.384C356.73 171.529 345.499 160.298 331.645 160.298C317.79 160.298 306.559 171.529 306.559 185.384C306.559 199.239 317.79 210.47 331.645 210.47Z" fill="#FFB6B6"/>
<path d="M296.295 217.496C296.295 217.496 278.086 215.362 272.711 220.738L278.086 329.145C278.086 329.145 274.503 331.833 276.295 338.104C277.335 342.221 277.335 346.531 276.295 350.647C276.295 350.647 270.919 356.919 273.607 359.607C276.295 362.294 373.055 360.502 373.055 360.502C373.055 360.502 376.638 354.231 371.263 350.647C365.887 347.064 368.575 337.208 368.575 337.208C368.575 337.208 370.367 334.521 365.887 330.041C361.408 325.561 357.824 288.828 357.824 288.828L369.471 244.032C369.471 244.032 357.747 230.798 344.347 229.8L296.295 217.496Z" fill="#EDEDED"/>
<path d="M355.589 244.649L369.469 244.032C369.469 244.032 377.533 260.159 378.429 274.494L383.362 327.97L351.551 332.729L355.589 244.649Z" fill="#EDEDED"/>
<path d="M353.135 186.629L362.453 174.64C363.002 172.116 362.53 169.476 361.14 167.299C359.749 165.122 357.554 163.584 355.033 163.02L319.83 155.255C317.306 154.706 314.666 155.178 312.489 156.568C310.312 157.959 308.773 160.154 308.21 162.675L308.19 162.765L310.711 177.242L311.154 177.164C333.001 173.268 339.224 174.639 352.778 186.325L353.135 186.629Z" fill="#2F2E41"/>
<path d="M340.513 231.976L303.785 292.23L277.148 334.785L259.87 321.706L329.828 223.63C329.539 221.702 329.827 219.732 330.658 217.969C331.488 216.205 332.823 214.727 334.493 213.722C336.163 212.717 338.093 212.23 340.04 212.322C341.987 212.415 343.863 213.082 345.431 214.241C346.999 215.399 348.187 216.996 348.847 218.83C349.507 220.664 349.608 222.653 349.138 224.544C348.668 226.436 347.647 228.146 346.205 229.457C344.763 230.769 342.965 231.623 341.037 231.913C340.863 231.939 340.688 231.959 340.513 231.976Z" fill="#FFB6B6"/>
<path d="M288.396 222.249L272.711 220.737C272.711 220.737 270.023 220.737 267.335 229.696C264.647 238.656 259.403 321.832 259.403 321.832L276.99 335.022L295.456 306.884L283.145 291.056L288.396 222.249Z" fill="#EDEDED"/>
<path d="M139.915 99.0304C162.428 99.0304 180.678 80.7802 180.678 58.2675C180.678 35.7548 162.428 17.5046 139.915 17.5046C117.402 17.5046 99.1521 35.7548 99.1521 58.2675C99.1521 80.7802 117.402 99.0304 139.915 99.0304Z" fill="#151515"/>
<path d="M149.471 83.3177C141.232 83.3177 133.177 80.8745 126.327 76.2969C119.476 71.7194 114.136 65.2132 110.983 57.601C107.83 49.9889 107.005 41.6127 108.612 33.5316C110.22 25.4506 114.188 18.0277 120.014 12.2016C125.84 6.37551 133.263 2.40789 141.344 0.800479C149.425 -0.806935 157.801 0.0180535 165.413 3.17112C173.025 6.32418 179.531 11.6637 184.109 18.5145C188.687 25.3652 191.13 33.4196 191.13 41.6589C191.117 52.7037 186.724 63.2925 178.914 71.1023C171.105 78.9122 160.516 83.3052 149.471 83.3177ZM149.471 1.79187C141.586 1.79186 133.878 4.13001 127.322 8.51065C120.766 12.8913 115.656 19.1176 112.639 26.4024C109.621 33.6871 108.832 41.7031 110.37 49.4365C111.908 57.1699 115.705 64.2736 121.281 69.8491C126.856 75.4246 133.96 79.2215 141.693 80.7598C149.427 82.2981 157.443 81.5086 164.727 78.4912C172.012 75.4737 178.238 70.3639 182.619 63.8078C187 57.2517 189.338 49.5438 189.338 41.6589C189.326 31.0892 185.122 20.9558 177.648 13.4819C170.174 6.00798 160.041 1.80387 149.471 1.79187Z" fill="#3F3D56"/>
<path d="M515.007 231.743C530.467 231.743 543 219.21 543 203.751C543 188.291 530.467 175.758 515.007 175.758C499.548 175.758 487.015 188.291 487.015 203.751C487.015 219.21 499.548 231.743 515.007 231.743Z" fill="#151515"/>
<path d="M507.183 237.353C501.469 237.353 495.884 235.659 491.133 232.484C486.383 229.31 482.68 224.798 480.493 219.52C478.307 214.241 477.735 208.433 478.85 202.829C479.964 197.225 482.716 192.078 486.756 188.037C490.796 183.997 495.943 181.246 501.547 180.131C507.151 179.017 512.959 179.589 518.238 181.775C523.517 183.962 528.028 187.664 531.203 192.415C534.377 197.166 536.071 202.751 536.071 208.465C536.063 216.124 533.016 223.466 527.6 228.882C522.185 234.298 514.842 237.344 507.183 237.353ZM507.183 181.368C501.824 181.368 496.585 182.957 492.129 185.935C487.673 188.912 484.2 193.144 482.149 198.095C480.098 203.046 479.561 208.495 480.607 213.751C481.652 219.007 484.233 223.835 488.023 227.625C491.812 231.414 496.64 233.995 501.897 235.04C507.153 236.086 512.601 235.549 517.552 233.498C522.503 231.448 526.735 227.975 529.713 223.519C532.69 219.063 534.279 213.824 534.279 208.465C534.271 201.281 531.414 194.393 526.334 189.313C521.254 184.234 514.367 181.376 507.183 181.368Z" fill="#3F3D56"/>
<path d="M84.9941 339.892C107.217 339.892 125.233 321.876 125.233 299.653C125.233 277.43 107.217 259.414 84.9941 259.414C62.7709 259.414 44.7554 277.43 44.7554 299.653C44.7554 321.876 62.7709 339.892 84.9941 339.892Z" fill="#151515"/>
<path d="M60.7011 159.781C64.6596 159.781 67.8685 156.572 67.8685 152.614C67.8685 148.655 64.6596 145.446 60.7011 145.446C56.7426 145.446 53.5337 148.655 53.5337 152.614C53.5337 156.572 56.7426 159.781 60.7011 159.781Z" fill="#F2F2F2"/>
<path d="M476.408 378.389C480.366 378.389 483.575 375.18 483.575 371.221C483.575 367.263 480.366 364.054 476.408 364.054C472.449 364.054 469.24 367.263 469.24 371.221C469.24 375.18 472.449 378.389 476.408 378.389Z" fill="#F2F2F2"/>
<path d="M87.9044 319.149C86.3162 319.574 84.6938 318.655 84.2683 317.067C82.3852 310.039 83.6827 302.498 87.9109 295.784C89.6025 293.102 89.7391 289.775 88.284 286.884C86.7426 283.831 83.4143 281.909 80.0025 282.1C77.2091 282.266 74.7565 283.567 73.1488 285.792C71.5614 287.978 71.0544 290.728 71.7524 293.332C72.178 294.921 71.2382 296.548 69.65 296.974C68.0618 297.399 66.4341 296.46 66.0085 294.872C64.845 290.529 65.6918 285.947 68.3293 282.303C70.9661 278.657 75.1078 276.412 79.6675 276.162C85.4081 275.84 91.0022 279.072 93.5897 284.203C95.9989 288.978 95.7584 294.491 92.9428 298.951C89.6089 304.246 88.5624 310.117 90.0006 315.484C90.4262 317.073 89.4925 318.723 87.9044 319.149Z" fill="#0066E0"/>
<path d="M90.381 328.348C91.9671 327.923 92.9084 326.293 92.4834 324.707C92.0584 323.121 90.4281 322.179 88.8419 322.604C87.2558 323.029 86.3145 324.66 86.7395 326.246C87.1645 327.832 88.7949 328.773 90.381 328.348Z" fill="#0066E0"/>
<path d="M507.625 216.796C506.657 216.237 506.32 215.016 506.878 214.048C509.35 209.767 513.597 206.767 518.854 205.573C520.955 205.097 522.62 203.564 523.31 201.476C524.036 199.268 523.36 196.746 521.629 195.198C520.207 193.936 518.404 193.382 516.562 193.679C514.749 193.967 513.184 195.044 512.268 196.631C511.71 197.599 510.476 197.929 509.508 197.371C508.541 196.812 508.21 195.578 508.769 194.611C510.296 191.965 512.905 190.17 515.923 189.687C518.942 189.202 522.011 190.113 524.321 192.184C527.234 194.788 528.369 199.029 527.147 202.737C526.01 206.189 523.246 208.722 519.75 209.512C515.604 210.455 512.281 212.772 510.393 216.042C509.834 217.01 508.592 217.355 507.625 216.796Z" fill="#0066E0"/>
<path d="M504.394 222.406C505.361 222.964 506.596 222.633 507.154 221.666C507.712 220.7 507.381 219.465 506.415 218.907C505.448 218.349 504.213 218.68 503.655 219.646C503.097 220.612 503.428 221.848 504.394 222.406Z" fill="#0066E0"/>
<path d="M94.431 324.394C86.2953 324.394 78.3424 321.982 71.5779 317.462C64.8134 312.942 59.5411 306.518 56.4278 299.001C53.3144 291.485 52.4999 283.214 54.0871 275.235C55.6743 267.255 59.592 259.926 65.3448 254.173C71.0976 248.42 78.4271 244.503 86.4064 242.916C94.3858 241.328 102.657 242.143 110.173 245.257C117.689 248.37 124.114 253.642 128.633 260.407C133.153 267.171 135.566 275.124 135.566 283.26C135.553 294.166 131.216 304.621 123.504 312.333C115.792 320.044 105.337 324.382 94.431 324.394ZM94.431 243.917C86.6497 243.917 79.0433 246.225 72.5734 250.548C66.1036 254.871 61.061 261.015 58.0832 268.204C55.1055 275.393 54.3264 283.304 55.8445 290.935C57.3625 298.567 61.1095 305.577 66.6117 311.079C72.1139 316.581 79.124 320.328 86.7558 321.847C94.3875 323.365 102.298 322.585 109.487 319.608C116.676 316.63 122.82 311.587 127.143 305.118C131.466 298.648 133.774 291.041 133.774 283.26C133.762 272.829 129.613 262.829 122.238 255.453C114.862 248.078 104.862 243.929 94.431 243.917Z" fill="#2F2E41"/>
<path d="M60.767 155.309C60.5334 155.372 60.2948 155.237 60.2322 155.003C59.9553 153.97 60.1461 152.86 60.7679 151.873C61.0167 151.479 61.0368 150.989 60.8228 150.564C60.5961 150.115 60.1066 149.833 59.6049 149.861C59.1941 149.885 58.8333 150.076 58.5969 150.404C58.3634 150.725 58.2889 151.129 58.3915 151.513C58.4541 151.746 58.3159 151.986 58.0823 152.048C57.8488 152.111 57.6094 151.972 57.5468 151.739C57.3757 151.1 57.5002 150.426 57.8881 149.891C58.2759 149.354 58.885 149.024 59.5556 148.987C60.3999 148.94 61.2226 149.415 61.6031 150.17C61.9574 150.872 61.9221 151.683 61.508 152.339C61.0177 153.118 60.8638 153.981 61.0753 154.77C61.1379 155.004 61.0006 155.247 60.767 155.309Z" fill="#0066E0"/>
<path d="M61.1324 156.662C61.3656 156.599 61.5041 156.359 61.4416 156.126C61.3791 155.893 61.1393 155.754 60.906 155.817C60.6727 155.879 60.5343 156.119 60.5968 156.352C60.6593 156.586 60.8991 156.724 61.1324 156.662Z" fill="#0066E0"/>
<path d="M475.589 372.873C475.356 372.811 475.217 372.574 475.279 372.341C475.556 371.307 476.276 370.442 477.308 369.898C477.721 369.681 477.983 369.267 478.01 368.792C478.038 368.289 477.756 367.8 477.307 367.573C476.939 367.389 476.531 367.374 476.163 367.54C475.8 367.701 475.533 368.014 475.43 368.397C475.368 368.631 475.128 368.769 474.895 368.707C474.661 368.644 474.523 368.405 474.586 368.171C474.757 367.532 475.201 367.011 475.805 366.741C476.409 366.47 477.102 366.489 477.701 366.793C478.456 367.174 478.931 367.997 478.883 368.84C478.839 369.626 478.403 370.31 477.716 370.671C476.902 371.101 476.337 371.771 476.126 372.561C476.063 372.794 475.823 372.936 475.589 372.873Z" fill="#0066E0"/>
<path d="M475.229 374.227C475.463 374.29 475.702 374.151 475.765 373.918C475.827 373.685 475.689 373.445 475.456 373.382C475.222 373.32 474.983 373.458 474.92 373.692C474.858 373.925 474.996 374.165 475.229 374.227Z" fill="#0066E0"/>
<path d="M135.015 78.5392C133.227 78.0601 132.163 76.2502 132.642 74.4623C134.762 66.5505 140.272 59.9284 148.173 55.7628C151.332 54.1003 153.338 50.9334 153.547 47.2953C153.762 43.4511 151.599 39.704 148.165 37.9696C145.348 36.5598 142.225 36.4471 139.405 37.7118C136.626 38.9496 134.585 41.3446 133.799 44.2771C133.32 46.0651 131.487 47.1231 129.699 46.644C127.911 46.1649 126.853 44.3324 127.332 42.5444C128.642 37.6558 132.047 33.6647 136.67 31.5973C141.293 29.5266 146.595 29.6686 151.181 31.9924C156.959 34.9095 160.594 41.2097 160.229 47.6683C159.89 53.68 156.552 58.9194 151.296 61.6834C145.065 64.9692 140.74 70.1035 139.121 76.1464C138.642 77.9344 136.803 79.0183 135.015 78.5392Z" fill="#0066E0"/>
<path d="M132.249 88.9039C134.035 89.3823 135.87 88.3226 136.349 86.537C136.827 84.7513 135.767 82.9159 133.982 82.4374C132.196 81.9589 130.361 83.0186 129.882 84.8043C129.404 86.5899 130.463 88.4254 132.249 88.9039Z" fill="#0066E0"/>
</svg>
