<svg width="65" height="98" viewBox="0 0 65 98" fill="none" xmlns="http://www.w3.org/2000/svg">
<path d="M64.7356 27.8364C62.8895 13.4634 50.9237 1.84453 36.2877 0.210507C26.8807 -0.82449 17.8461 1.97922 10.852 8.13249C3.955 14.2007 0 22.906 0 32.0154C0 41.2276 4.03777 50.0038 11.0805 56.0897C16.2914 60.5948 19.1614 66.4787 19.1614 72.6638V73.5358C19.1614 74.5389 19.9855 75.3506 21.004 75.3506H43.9998C45.0182 75.3506 45.8424 74.5389 45.8424 73.5358V72.639C45.8424 66.3971 48.617 60.5133 53.4501 56.4902C61.9178 49.4508 66.1356 38.7393 64.7356 27.8364ZM26.6791 71.721V45.1549H38.3246V71.721H26.6791ZM27.8181 41.5253L32.5019 32.299L37.1874 41.5253H27.8181ZM51.0749 53.7184C45.6444 58.2306 42.4344 64.7525 42.1752 71.721H42.0097V43.3401C42.0097 43.0643 41.9371 42.8095 41.8255 42.5756C41.8183 42.5605 41.8228 42.5433 41.8154 42.5284L34.1501 27.4288C33.5239 26.2024 31.4798 26.2024 30.8537 27.4288L23.1884 42.5284C23.1807 42.5433 23.1855 42.5605 23.1783 42.5756C23.0667 42.8095 22.994 43.0643 22.994 43.3401V71.721H22.8267C22.5424 64.9084 19.183 58.2625 13.5096 53.3604C7.26582 47.9657 3.68509 40.1855 3.68509 32.0154C3.68509 23.9375 7.19205 16.2211 13.3081 10.8369C19.5087 5.38195 27.5176 2.88307 35.8739 3.81882C48.8437 5.26498 59.4419 15.5582 61.0793 28.2901C62.3209 37.9702 58.5818 47.4766 51.0749 53.7184ZM45.4238 18.7306H51.6651C52.6835 18.7306 53.5076 17.9189 53.5076 16.9158C53.5076 15.9127 52.6835 15.101 51.6651 15.101H37.844C37.0745 12.9114 34.9827 11.3261 32.5019 11.3261C30.021 11.3261 27.9292 12.9114 27.1598 15.101H13.3387C12.3202 15.101 11.4961 15.9127 11.4961 16.9158C11.4961 17.9189 12.3202 18.7306 13.3387 18.7306H19.5789C13.4943 22.3296 9.0301 28.3262 7.69407 35.4607C7.50874 36.446 8.1709 37.3924 9.17135 37.5767C9.28471 37.5945 9.39807 37.6051 9.50783 37.6051C10.3787 37.6051 11.1542 36.9954 11.318 36.1199C12.8625 27.875 19.2619 21.377 27.4472 19.4231C28.3813 21.2516 30.3143 22.5055 32.5019 22.5055C34.691 22.5055 36.6231 21.2512 37.5554 19.4226C45.7411 21.3761 52.141 27.8747 53.684 36.1199C53.8495 36.9954 54.6232 37.6051 55.4941 37.6051C55.6057 37.6051 55.7172 37.5945 55.8324 37.5767C56.8329 37.3924 57.495 36.446 57.3115 35.4607C55.9743 28.3262 51.509 22.3296 45.4238 18.7306ZM32.5019 18.8759C31.5001 18.8759 30.6598 18.1231 30.526 16.969C30.5255 16.9665 30.5266 16.9643 30.5262 16.9619C30.5251 16.955 30.5201 16.9501 30.519 16.9433C30.5179 16.9333 30.5127 16.926 30.5118 16.9158C30.5118 15.8347 31.4043 14.9557 32.5019 14.9557C33.5887 14.9557 34.474 15.817 34.492 16.8839C34.4879 16.9027 34.4866 16.9231 34.4832 16.9424C34.4818 16.9495 34.4769 16.9548 34.4758 16.9619C34.4744 16.9703 34.478 16.9783 34.4767 16.9867C34.4702 17.0292 34.4618 17.0711 34.4578 17.1143C34.3786 18.1032 33.5203 18.8759 32.5019 18.8759ZM45.8424 81.0856C45.8424 82.0887 45.0182 82.9004 43.9998 82.9004H21.004C19.9855 82.9004 19.1614 82.0887 19.1614 81.0856C19.1614 80.0825 19.9855 79.2708 21.004 79.2708H43.9998C45.0182 79.2708 45.8424 80.0825 45.8424 81.0856ZM43.9998 86.8206H21.004C19.9855 86.8206 19.1614 87.6323 19.1614 88.6354C19.1614 89.6385 19.9855 90.4502 21.004 90.4502H23.1506C23.8915 94.728 27.6569 98 32.2068 98H32.797C37.2787 98 41.0122 94.8308 41.8329 90.4502H43.9998C45.0182 90.4502 45.8424 89.6385 45.8424 88.6354C45.8424 87.6323 45.0182 86.8206 43.9998 86.8206ZM32.797 94.3704H32.2068C29.7525 94.3704 27.667 92.786 26.9472 90.4502H38.1051C37.4321 92.7116 35.3089 94.3704 32.797 94.3704Z" fill="#EDEDED"/>
</svg>
