<svg width="546" height="486" viewBox="0 0 546 486" fill="none" xmlns="http://www.w3.org/2000/svg">
<path d="M422.65 276.995C449.385 239.75 460.677 200.893 454.446 167.584C446.449 124.84 410.926 95.2854 356.984 86.4995L356.784 88.9514C409.976 97.6145 444.957 126.506 452.76 168.216C458.824 200.632 447.696 238.639 421.426 275.237L422.65 276.995Z" fill="#F0F0F0"/>
<path d="M164.702 409.206C198.069 409.206 234.328 402.189 270.344 388.696C314.882 372.009 355.718 346.823 388.439 315.859L387.47 313.809C354.907 344.623 314.251 369.694 269.897 386.31C229.815 401.327 189.433 408.286 153.13 406.449L153.067 408.915C156.901 409.11 160.779 409.207 164.702 409.206Z" fill="#F0F0F0"/>
<path d="M88.1539 393.688L88.7124 391.351C58.8702 377.072 40.2051 354.07 34.7348 324.831C27.7815 287.66 42.8878 244.525 77.2714 203.373C111.83 162.011 161.665 127.692 217.597 106.737L217.151 104.352C160.975 125.398 110.897 159.896 76.1458 201.489C41.2191 243.291 25.9136 287.319 33.0491 325.462C38.676 355.54 57.731 379.132 88.1539 393.688Z" fill="#F0F0F0"/>
<path d="M362.175 410.237C427.739 369.086 478.261 315.697 504.434 259.905L502.982 258.54C476.99 313.946 426.733 367.018 361.469 407.982L362.175 410.237Z" fill="#F0F0F0"/>
<path d="M131.657 481.528C138.419 481.528 145.297 481.315 152.291 480.887L152.216 478.422C100.025 481.62 53.9755 472.781 19.0377 452.856L18.3855 455.145C48.8629 472.524 87.7086 481.528 131.657 481.528Z" fill="#F0F0F0"/>
<path d="M169.698 88.7119C180.534 83.7189 191.681 79.0699 202.827 74.8938C266.971 50.8626 330.025 42.3303 385.175 50.224L385.35 47.7685C329.994 39.8489 266.725 48.4017 202.381 72.5082C191.203 76.6963 180.025 81.3585 169.158 86.366L169.698 88.7119Z" fill="#F0F0F0"/>
<path d="M463.626 280.696C490.361 243.45 501.653 204.594 495.422 171.285C487.426 128.54 451.902 98.9861 397.96 90.2002L397.761 92.6521C450.952 101.315 485.934 130.206 493.736 171.916C499.8 204.332 488.673 242.34 462.403 278.938L463.626 280.696Z" fill="#F0F0F0"/>
<path d="M205.678 412.907C239.045 412.907 275.304 405.89 311.32 392.396C355.858 375.71 396.694 350.524 429.415 319.56L428.446 317.509C395.883 348.323 355.227 373.394 310.873 390.011C270.792 405.028 230.409 411.986 194.106 410.15L194.043 412.615C197.877 412.81 201.755 412.908 205.678 412.907Z" fill="#F0F0F0"/>
<path d="M129.13 397.389L129.688 395.052C99.8463 380.773 81.1812 357.771 75.711 328.531C68.7576 291.36 83.8639 248.226 118.247 207.074C152.806 165.712 202.641 131.392 258.573 110.438L258.127 108.052C201.951 129.099 151.873 163.596 117.122 205.19C82.1952 246.992 66.8896 291.019 74.0252 329.163C79.652 359.241 98.7071 382.833 129.13 397.389Z" fill="#F0F0F0"/>
<path d="M403.151 413.938C468.715 372.787 519.237 319.399 545.41 263.606L543.958 262.241C517.966 317.647 467.709 370.719 402.444 411.683L403.151 413.938Z" fill="#F0F0F0"/>
<path d="M172.633 485.229C179.395 485.229 186.274 485.016 193.267 484.588L193.192 482.123C141.001 485.321 94.9516 476.482 60.0137 456.557L59.3616 458.846C89.8389 476.225 128.685 485.229 172.633 485.229Z" fill="#F0F0F0"/>
<path d="M210.674 92.4135C221.51 87.4205 232.657 82.7715 243.803 78.5955C307.947 54.5643 371.001 46.032 426.151 53.9257L426.326 51.4702C370.971 43.5505 307.701 52.1033 243.357 76.2098C232.179 80.3979 221.001 85.0602 210.134 90.0677L210.674 92.4135Z" fill="#F0F0F0"/>
<path d="M6.97462 222.703C10.8266 222.703 13.9492 218.283 13.9492 212.832C13.9492 207.381 10.8266 202.962 6.97462 202.962C3.12265 202.962 0 207.381 0 212.832C0 218.283 3.12265 222.703 6.97462 222.703Z" fill="#E6E6E6"/>
<path d="M137.355 293.524C141.207 293.524 144.33 289.105 144.33 283.654C144.33 278.203 141.207 273.784 137.355 273.784C133.503 273.784 130.381 278.203 130.381 283.654C130.381 289.105 133.503 293.524 137.355 293.524Z" fill="#E6E6E6"/>
<path d="M267.137 19.7406C270.989 19.7406 274.111 15.3215 274.111 9.87031C274.111 4.41909 270.989 0 267.137 0C263.285 0 260.162 4.41909 260.162 9.87031C260.162 15.3215 263.285 19.7406 267.137 19.7406Z" fill="#E6E6E6"/>
<path d="M243.456 434.634C248.992 434.892 254.406 432.924 258.531 429.156C262.656 425.387 265.16 420.119 265.505 414.487C265.578 413.242 265.542 411.993 265.399 410.755L332.071 377.156L298.99 357.538L240.749 392.451C235.283 393.54 230.457 396.775 227.316 401.458C224.174 406.14 222.968 411.893 223.959 417.473C224.815 422.161 227.21 426.413 230.753 429.532C234.296 432.65 238.775 434.45 243.456 434.634Z" fill="#9E616A"/>
<path d="M264.74 375.618L265.671 377.513L266.801 379.795L272.985 392.354L275.17 396.768V396.775L277.102 400.702L278.743 404.031L278.885 404.314L281.276 409.168L289.773 404.892L345.514 376.835L400.537 349.133L406.017 346.376L403.8 336.91L379.523 233.344C377.929 226.535 373.771 220.636 367.945 216.918C362.12 213.201 355.093 211.961 348.378 213.468C341.664 214.974 335.8 219.106 332.049 224.972C328.298 230.838 326.961 237.97 328.325 244.83L343.55 321.398L328.248 330.002L309.024 340.811L303.208 352.389L290.995 350.245L281.308 359.606L277.483 363.303L264.74 375.618Z" fill="#0066E0"/>
<path d="M129.562 419.431C133.02 422.405 136.567 425.268 140.205 428.023C161.472 444.15 185.463 456.17 210.989 463.487H210.996C213.926 465.132 217.219 465.992 220.566 465.987C236.8 469.822 253.412 471.753 270.077 471.744C273.734 471.744 277.379 471.651 280.991 471.467L280.655 453.778L280.519 446.614L258.323 429.338L253.683 425.727L251.925 424.352L250.549 423.279L228.43 406.063L228.1 406.11L224.779 406.557L218.323 407.432L211.189 408.392L194.356 410.668H194.35L187.035 411.662L129.562 419.431Z" fill="#2F2E41"/>
<path d="M239.329 152.263C264.179 152.263 284.324 131.755 284.324 106.456C284.324 81.1579 264.179 60.6494 239.329 60.6494C214.479 60.6494 194.334 81.1579 194.334 106.456C194.334 131.755 214.479 152.263 239.329 152.263Z" fill="#FFB6B6"/>
<path d="M124.936 415.332C126.461 416.72 128.004 418.087 129.563 419.431C133.02 422.404 136.568 425.268 140.206 428.022C157.369 424.825 185.232 420.773 211.862 421.858C213.019 421.911 214.169 421.97 215.319 422.036H215.326C218.841 422.24 222.33 422.542 225.755 422.957H225.762C229.064 423.352 232.303 423.854 235.48 424.463C239.313 425.192 243.103 426.134 246.834 427.286C248.055 427.661 249.253 428.064 250.427 428.496C250.711 428.595 250.995 428.693 251.273 428.805C253.011 429.45 254.698 430.149 256.333 430.904H256.339C266.872 435.765 275.208 442.896 279.796 453.08C279.857 453.269 279.971 453.436 280.123 453.559C280.276 453.683 280.461 453.759 280.656 453.777H280.694C280.775 453.777 280.855 453.766 280.933 453.744C281.767 453.508 282.42 453.323 279.421 426.93L276.255 406.543L276.184 406.07L276.3 405.392L276.326 405.247L277.101 400.702L278.368 393.327V393.321L279.344 387.65L284.035 382.874L284.655 382.242L276.119 373.552L276.41 371.375L276.449 371.052L277.483 363.303L279.479 348.231L280.429 341.067L280.791 338.383L281.269 334.758L281.353 334.127L282.633 327.226L295.576 257.632C298.021 244.432 296.121 230.781 290.17 218.793C284.218 206.805 274.548 197.15 262.659 191.327L252.1 164.855L200.567 164.46L180.851 186.307L142.073 199.714L137.227 201.392L144.464 353.724L125.169 365.776L125.608 366.178C125.641 366.21 129.02 369.322 130.539 371.033C131.25 372.059 129.977 379.539 128.348 386.137C128.296 386.347 128.238 386.564 128.187 386.775L126.002 403.419L131.508 407.425L124.936 415.332Z" fill="#151515"/>
<path d="M203.578 456.172C205.365 459.238 207.924 461.763 210.99 463.487H210.996C213.927 465.132 217.22 465.992 220.566 465.987C223.507 465.973 226.41 465.308 229.073 464.038C231.736 462.768 234.095 460.923 235.988 458.632C237.881 456.341 239.262 453.658 240.034 450.769C240.807 447.88 240.953 444.855 240.462 441.903C240.325 441.083 240.137 440.272 239.9 439.476C239.559 438.334 239.12 437.224 238.588 436.16L240.353 434.259L243.357 431.022L246.834 427.286L250.549 423.279L251.861 421.865L274.271 397.735L275.169 396.774V396.768L278.368 393.327V393.321L287.499 383.492L284.035 382.874L270.93 380.532L266.801 379.795L262.995 379.118L251.415 377.045L238.614 393.005L232.217 400.978L228.101 406.109L223.7 411.596L222.227 413.425L215.326 422.036H215.319L212.023 426.148L210.498 428.049C205.947 430.87 202.669 435.403 201.374 440.666C200.079 445.929 200.87 451.499 203.578 456.172Z" fill="#FFB6B6"/>
<path d="M216.799 408.905L222.227 413.424L223.622 414.589H223.629L235.48 424.463L243.357 431.022L245.425 432.745L250.426 428.496L251.557 427.535L253.683 425.726L265.379 415.786L276.255 406.543L276.552 406.293L278.885 404.313L279.893 403.451H279.899L279.912 403.438L290.923 394.077L310.257 377.644L319.562 369.736L331.931 359.224L328.247 330.002L321.023 272.624L299.77 227.942C299.181 226.706 298.548 225.495 297.87 224.324C291.44 213.212 281.071 205.033 268.896 201.469C256.722 197.905 243.668 199.229 232.423 205.168L232.107 205.332L232.01 205.681C231.629 207.088 223.164 240.692 269.353 301.155L280.377 337.041L280.791 338.383L282.82 345.001L282.529 345.277L279.479 348.231L250.607 376.183L227.868 398.188L218.324 407.431L216.799 408.905Z" fill="#151515"/>
<path d="M232.34 443.758C227.037 443.841 221.914 441.799 218.076 438.073C214.238 434.346 211.993 429.233 211.824 423.836C211.79 422.643 211.859 421.449 212.031 420.269L149.216 386.161L181.417 368.373L236.131 403.489C241.329 404.692 245.853 407.929 248.724 412.501C251.596 417.072 252.586 422.611 251.478 427.919C250.527 432.378 248.114 436.375 244.636 439.253C241.158 442.131 236.822 443.72 232.34 443.758Z" fill="#FFB6B6"/>
<path d="M97.0403 291.886L108.555 377.526L128.348 386.137L187.035 411.662L204.483 419.247L205.904 416.944L211.19 408.392L220.45 393.426L224.185 387.38L155.857 348.146L154.933 302.221C179.85 229.95 161.336 200.82 160.535 199.616L160.335 199.313L159.986 199.261C153.449 198.196 146.768 198.489 140.345 200.12C133.922 201.751 127.89 204.688 122.61 208.753C117.304 212.781 112.853 217.859 109.523 223.682C106.194 229.505 104.056 235.954 103.237 242.64L97.0403 291.886Z" fill="#151515"/>
<path d="M199.413 65.1682C203.322 53.5903 222.782 45.5598 254.329 44.4432C285.877 43.3265 293.878 81.1749 293.878 81.1749C314.938 98.5674 271.39 145.132 269.283 143.455L270.23 134.706C271.799 120.215 278.464 108.909 269.987 93.8067L261.848 93.9019C251.335 95.9598 240.823 98.0178 230.31 100.076C234.459 96.3571 238.607 92.6385 242.756 88.9199L242.405 88.3671C236.966 90.9073 231.362 93.2627 225.416 93.6185C218.727 94.0188 211.414 91.3085 208.21 85.3172C207.354 83.6703 206.832 81.8657 206.673 80.0098C197.652 83.6788 193.527 94.9998 193.527 94.9998C193.527 94.9998 195.504 76.7461 199.413 65.1682Z" fill="#2F2E41"/>
<path d="M282.671 471.375C323.548 469.034 362.936 454.949 396.272 430.753C397.248 430.042 398.217 429.325 399.18 428.601L381.59 376L345.514 376.835L332.047 377.144L310.257 377.644L292.636 378.052L290.923 394.077L290.497 398.11L289.773 404.892L287.447 426.661L282.671 471.375Z" fill="#151515"/>
<path d="M271.706 374.052C270.834 374.94 270.633 377.249 270.931 380.532C271.366 384.513 272.052 388.462 272.986 392.354C273.373 394.077 273.806 395.88 274.271 397.735C274.885 400.176 275.557 402.702 276.268 405.274C276.276 405.314 276.287 405.354 276.3 405.392C276.384 405.695 276.462 405.998 276.552 406.294C278.097 411.866 279.816 417.596 281.496 423.003C281.818 424.056 282.463 424.975 283.336 425.627C284.21 426.278 285.266 426.627 286.349 426.621H286.446L287.447 426.661L396.272 430.753C397.248 430.042 398.217 429.325 399.18 428.602C400.725 427.444 402.254 426.264 403.768 425.062C403.643 424.517 403.439 423.993 403.161 423.51L403.639 423.102L402.986 422.319C401.578 420.622 398.457 413.089 399.142 411.879L408.589 402.261C409.001 401.87 409.325 401.392 409.537 400.86C409.749 400.328 409.845 399.756 409.817 399.182C409.642 395.893 405.481 392.466 401.804 389.439C400.537 388.393 399.342 387.407 398.463 386.545C398.263 386.348 397.92 385.973 397.933 385.677C397.946 385.17 398.831 384.42 399.613 383.756C400.938 382.624 402.444 381.348 402.528 379.42C402.586 378.072 401.92 376.717 400.499 375.269C399.988 374.777 399.521 374.24 399.103 373.664C399.226 373.631 399.355 373.592 399.471 373.565C401.171 373.118 404.705 372.197 403.309 365.796C403.238 365.461 403.665 364.711 404.04 364.046C405.248 361.902 407.277 358.31 402.521 353.468C401.362 352.318 400.657 350.776 400.537 349.133C400.259 346.172 401.41 342.278 403.801 336.91C406.166 331.608 409.739 324.871 414.346 316.181L416.847 311.464C430.469 285.709 403.426 218.24 400.298 210.635C400.12 210.191 399.878 209.777 399.581 209.405L375.95 179.334C375.474 178.724 374.869 178.232 374.18 177.894C373.49 177.557 372.734 177.383 371.969 177.387L334.057 176.071C333.012 176.072 331.993 176.4 331.137 177.009C330.281 177.618 329.629 178.48 329.269 179.479L310.516 198.859C310.252 199.608 309.712 200.224 309.011 200.576C306.387 201.912 303.053 212.299 297.87 224.325C296.901 226.575 295.861 228.884 294.749 231.206C290.769 239.534 285.845 247.975 279.635 254.244C260.96 273.105 276.281 292.413 281.535 300.985C281.767 301.366 281.917 301.793 281.972 302.238C282.028 302.683 281.989 303.135 281.858 303.563C279.047 312.609 281.509 321.503 282.633 327.226C283.189 330.022 283.422 332.055 282.569 332.983C282.07 333.521 281.634 334.118 281.27 334.759C280.865 335.472 280.565 336.241 280.378 337.041C280.069 338.367 280.087 339.75 280.43 341.068C280.84 342.602 281.555 344.035 282.53 345.278C282.543 345.298 282.556 345.311 282.569 345.33C285.224 348.83 280.468 354.396 281.308 359.606C281.363 359.977 281.45 360.342 281.567 360.698C282.691 364.132 282.678 366.29 281.948 367.757C281.044 369.579 279.047 370.355 276.792 371.223C276.662 371.276 276.54 371.322 276.41 371.375C275.9 371.572 275.389 371.77 274.885 371.993C274.876 371.992 274.867 371.995 274.859 372L274.853 372.006C274.847 372.006 274.847 372.013 274.84 372.013C273.891 372.415 273.002 372.948 272.197 373.598L272.191 373.605C272.022 373.745 271.86 373.895 271.706 374.052Z" fill="#0066E0"/>
<path d="M360.835 166.407C350.519 168.996 339.651 168.026 329.934 163.651C329.223 163.329 328.519 162.993 327.827 162.638C321.737 159.538 316.361 155.16 312.053 149.791C307.746 144.423 304.604 138.186 302.836 131.492C301.068 124.797 300.714 117.798 301.796 110.954C302.879 104.11 305.373 97.5774 309.116 91.7863C312.858 85.9952 317.764 81.0773 323.509 77.3564C329.254 73.6356 335.708 71.1964 342.446 70.1995C349.185 69.2026 356.054 69.6706 362.602 71.5728C369.15 73.475 375.227 76.7681 380.434 81.2352C380.434 81.2417 380.434 81.2417 380.447 81.2417C381.76 82.3681 383.013 83.5649 384.201 84.827L384.208 84.8336C390.052 91.0571 394.186 98.7367 396.193 107.101C398.199 115.466 398.009 124.22 395.641 132.486C393.272 140.752 388.809 148.238 382.7 154.192C376.59 160.146 369.05 164.359 360.835 166.407Z" fill="#9E616A"/>
<path d="M356.648 59.0423L362.495 60.6267L364.48 61.1647L386.732 67.1943C406.454 72.5386 417.654 95.1824 411.748 117.771C422.653 137.016 413.204 154.864 396.032 172.182C372.978 169.224 351.306 169.019 329.68 172.263L330.064 159.295L320.321 173.871C314.76 174.966 309.181 176.299 303.585 177.871C316.305 152.369 325.683 126.028 327.28 104.026L317.091 101.265L320.059 89.9127L313.632 100.327L295.159 95.3217C296.857 88.8293 299.794 82.7407 303.803 77.4038C307.811 72.067 312.813 67.5862 318.523 64.2173C324.233 60.8485 330.538 58.6575 337.08 57.7696C343.621 56.8816 350.271 57.3141 356.648 59.0423Z" fill="#2F2E41"/>
<path d="M397.719 89.3669C410.254 89.3669 420.414 79.0226 420.414 66.2623C420.414 53.502 410.254 43.1577 397.719 43.1577C385.185 43.1577 375.024 53.502 375.024 66.2623C375.024 79.0226 385.185 89.3669 397.719 89.3669Z" fill="#2F2E41"/>
<path opacity="0.2" d="M157.985 292.895L160.612 342.129L220.557 390.497L166.338 340.015L157.985 292.895Z" fill="black"/>
<path opacity="0.2" d="M277.838 347.574L231.144 391.918L272.395 346.193L277.838 347.574Z" fill="black"/>
<path opacity="0.2" d="M308.209 144.291C301.657 133.304 299.584 120.144 302.432 107.622C306.034 108.956 309.201 111.285 311.576 114.348C313.951 117.411 315.441 121.086 315.879 124.963C316.317 128.583 315.843 132.256 314.501 135.637C313.159 139.019 310.994 141.997 308.209 144.291Z" fill="black"/>
<path d="M310.712 124.964C311.385 130.564 309.869 136.21 306.491 140.683C303.113 145.156 298.143 148.099 292.654 148.876C291.44 149.045 290.214 149.104 288.99 149.052L261.146 219.283L239.419 187.193L269.191 125.421C269.842 119.789 272.644 114.645 276.992 111.1C281.339 107.555 286.882 105.894 292.423 106.477C297.079 106.989 301.426 109.098 304.749 112.457C308.073 115.817 310.176 120.227 310.712 124.964Z" fill="#9E616A"/>
<path d="M369.302 253.18L354.902 193.916L267.035 242.398L267.143 210.599L283.778 166.297L249.752 154.826L214.106 247.004L208.71 275.703C207.954 279.721 208.223 283.87 209.49 287.753C210.758 291.635 212.982 295.122 215.951 297.881C219.152 300.856 223.099 302.872 227.356 303.707C231.612 304.541 236.013 304.161 240.07 302.609L369.302 253.18Z" fill="#0066E0"/>
</svg>
