<svg width="342" height="366" viewBox="0 0 342 366" fill="none" xmlns="http://www.w3.org/2000/svg">
<path d="M69.8231 4.73136C69.4507 3.51393 68.7303 2.43183 67.7507 1.61815C66.771 0.804469 65.5747 0.294705 64.309 0.151552C64.2804 0.147518 64.2532 0.152844 64.2247 0.151008C64.1879 0.139763 64.1503 0.131118 64.1123 0.125138C58.0894 -0.652789 51.1369 2.226 48.6268 7.93242C48.0144 7.09782 47.2078 6.42476 46.2768 5.97138C45.3459 5.51799 44.3184 5.29791 43.2833 5.33015C41.9486 5.41903 40.6737 5.91684 39.6322 6.7558C38.5907 7.59475 37.8332 8.73409 37.4628 10.0187C37.4234 10.1759 37.4351 10.3416 37.4962 10.4918C37.5574 10.6419 37.6648 10.7687 37.8029 10.8537C38.2007 11.1906 38.6719 11.4297 39.1789 11.5518C40.2727 11.7833 41.3703 11.9955 42.4719 12.1882C44.6215 12.5641 46.7822 12.8681 48.9542 13.1C53.3631 13.5722 57.7994 13.7398 62.2314 13.6015C63.7076 13.5556 65.1311 13.5066 66.4835 12.8556C67.4675 12.3699 68.3081 11.6368 68.9228 10.7282C69.502 9.85502 69.8827 8.8656 70.0382 7.82956C70.1938 6.79352 70.1203 5.736 69.8231 4.73136Z" fill="#EDEDED"/>
<path d="M42.4505 22.2811C42.0781 21.0637 41.3578 19.9816 40.3781 19.168C39.3984 18.3543 38.2022 17.8445 36.9364 17.7014C36.9078 17.6973 36.8806 17.7026 36.8521 17.7008C36.8153 17.6896 36.7778 17.6809 36.7398 17.6749C30.7169 16.897 23.7644 19.7758 21.2542 25.4822C20.6418 24.6476 19.8352 23.9745 18.9043 23.5211C17.9733 23.0678 16.9459 22.8477 15.9107 22.88C14.576 22.9688 13.3011 23.4667 12.2596 24.3056C11.2181 25.1446 10.4606 26.2839 10.0903 27.5685C10.0509 27.7257 10.0626 27.8914 10.1237 28.0416C10.1849 28.1917 10.2922 28.3185 10.4303 28.4035C10.8281 28.7404 11.2994 28.9795 11.8063 29.1016C12.9001 29.3331 13.9978 29.5453 15.0993 29.738C17.2489 30.1139 19.4096 30.4178 21.5816 30.6498C25.9906 31.122 30.4269 31.2896 34.8589 31.1514C36.335 31.1054 37.7585 31.0564 39.111 30.4053C40.0949 29.9196 40.9355 29.1865 41.5503 28.278C42.1294 27.4048 42.5101 26.4154 42.6657 25.3793C42.8212 24.3433 42.7478 23.2858 42.4505 22.2811Z" fill="#EDEDED"/>
<path d="M169.147 226.569C168.814 227.057 167.937 227.639 167.596 228.119L167.96 227.015L167.836 226.759L167.06 225.208L147.309 185.429L147.302 185.421L113.82 118.018V118.01L113.051 116.467V116.46L96.4811 83.0992L95.6978 81.5176C96.2872 81.5331 96.8767 81.5563 97.4663 81.5874L98.2576 83.1767L114.782 116.46L114.789 116.467L115.557 118.01V118.018L148.186 183.707V183.715L148.954 185.258V185.266L168.705 225.015L168.968 225.549L169.147 226.569Z" fill="#3F3D56"/>
<path d="M166.944 118.019H19.1299C19.5257 117.5 19.9287 116.98 20.3477 116.468H165.726C166.145 116.98 166.548 117.5 166.944 118.019Z" fill="#3F3D56"/>
<path d="M185.672 183.715C185.625 184.235 185.571 184.755 185.501 185.267H147.636V183.715H185.672Z" fill="#3F3D56"/>
<path d="M24.7542 111.359V236.117C24.2189 235.551 23.7068 234.978 23.2026 234.404V113.072C23.7068 112.499 24.2189 111.925 24.7542 111.359Z" fill="#3F3D56"/>
<path d="M168.319 225.208H23.979V226.759H168.319V225.208Z" fill="#3F3D56"/>
<path d="M168.193 226.569H168.372V226.313C168.318 226.402 168.258 226.488 168.193 226.569ZM166.999 117.828C166.603 117.309 166.2 116.789 165.781 116.278C157.541 105.945 147.189 97.4895 135.418 91.4745C123.647 85.4596 110.727 82.0241 97.5213 81.3976C96.9319 81.3666 96.3424 81.3433 95.7527 81.3278C94.8682 81.3046 93.9838 81.2891 93.0917 81.2891C80.2617 81.2822 67.5696 83.9339 55.8168 89.0767C44.0641 94.2195 33.5059 101.742 24.809 111.168C24.2737 111.734 23.7616 112.308 23.2574 112.882C22.2722 113.99 21.3206 115.122 20.4025 116.278C19.9836 116.789 19.5805 117.309 19.1847 117.828C6.07461 134.909 -0.687659 156.012 0.0553018 177.526C0.798263 199.04 9.00025 219.627 23.2574 235.764C23.7616 236.338 24.2737 236.911 24.809 237.477C34.1841 247.624 45.7047 255.554 58.5326 260.691C71.3605 265.828 85.1729 268.042 98.9649 267.172C112.757 266.303 126.181 262.371 138.261 255.664C150.342 248.957 160.774 239.642 168.798 228.399C169.14 227.918 169.481 227.437 169.815 226.949C178.418 214.492 183.823 200.112 185.555 185.076C185.625 184.564 185.679 184.045 185.726 183.525C186.028 180.502 186.181 177.434 186.183 174.323C186.207 153.891 179.461 134.026 166.999 117.828ZM183.996 185.076C182.307 199.509 177.172 213.325 169.023 225.36C168.814 225.678 168.597 225.995 168.372 226.313C168.318 226.402 168.258 226.488 168.193 226.569C168.139 226.654 168.077 226.74 168.015 226.825C160.102 238.125 149.731 247.488 137.681 254.212C125.631 260.936 112.214 264.847 98.4365 265.651C84.6588 266.455 70.8777 264.131 58.1265 258.855C45.3753 253.578 33.9848 245.485 24.8089 235.183C24.2737 234.593 23.754 234.004 23.2574 233.399C9.61612 217.338 1.95283 197.055 1.56684 175.991C1.18085 154.927 8.09591 134.378 21.1396 117.828C21.5509 117.309 21.9619 116.789 22.3884 116.278C22.668 115.929 22.9547 115.588 23.2574 115.246C23.754 114.642 24.2737 114.052 24.8089 113.463C33.3789 103.826 43.8955 96.1145 55.6653 90.8359C67.4352 85.5573 80.191 82.832 93.0917 82.8396C94.2477 82.8396 95.3959 82.8629 96.536 82.9094C97.1334 82.9249 97.7232 82.9559 98.3125 82.9869C110.938 83.7082 123.276 87.0392 134.547 92.7693C145.818 98.4995 155.777 106.504 163.795 116.278C164.221 116.789 164.633 117.309 165.044 117.828C179.682 136.431 186.539 159.978 184.174 183.525C184.12 184.045 184.066 184.564 183.996 185.076ZM168.193 226.569H168.372V226.313C168.318 226.402 168.258 226.488 168.193 226.569Z" fill="#CCCCCC"/>
<path d="M81.3595 51.788C81.3595 52.2143 81.3457 52.6371 81.3181 53.0563C81.163 55.4741 80.5519 57.8407 79.5168 60.0315C79.5087 60.0502 79.4993 60.0675 79.4913 60.085C79.4431 60.1865 79.3937 60.2881 79.3429 60.3884C79.035 61.008 78.6935 61.6103 78.3199 62.1926C76.613 64.8659 74.2736 67.0779 71.5083 68.6331C68.743 70.1883 65.6369 71.0389 62.4646 71.1096L62.6559 82.1009L65.15 80.7885L65.5953 81.6345L62.6746 83.1715L63.0317 103.585L63.0356 103.858L61.1072 104.287L61.1112 104.013L61.7184 71.111C59.1649 71.0744 56.6442 70.5312 54.3026 69.513C51.961 68.4948 49.845 67.0218 48.0777 65.1796C47.956 65.054 47.8357 64.9244 47.7179 64.7961L47.7046 64.7813C46.232 63.1765 45.0411 61.3348 44.1821 59.3338C44.2008 59.3552 44.2208 59.3752 44.2396 59.3966C36.2707 39.3832 40.9069 30.1054 53.4109 34.4871C53.4777 34.4537 53.546 34.4216 53.6128 34.3882C57.9863 32.283 62.9916 31.8967 67.6366 33.3059C72.2816 34.7152 76.2273 37.8171 78.6916 41.9968C78.8093 42.1946 78.923 42.3964 79.0326 42.5996C80.5634 45.4203 81.3633 48.5791 81.3595 51.788Z" fill="#EDEDED"/>
<path d="M104.1 34.764C103.866 38.6038 102.872 42.3591 101.175 45.8117C97.9089 52.4172 92.1761 57.4254 85.0313 59.2939C85.0194 59.3002 85.0059 59.3029 84.9925 59.3017C83.1947 59.7702 81.3495 60.033 79.4923 60.0847H79.3371C79.1432 60.0924 78.9493 60.0924 78.7553 60.0924C78.6235 60.0924 78.4916 60.0924 78.3597 60.0847C71.7077 59.9822 65.3629 57.2694 60.6952 52.5319C56.0274 47.7945 53.4111 41.4126 53.4111 34.764V34.4849C53.4227 32.8684 53.6577 31.2613 54.1093 29.7091C54.1093 29.7014 54.1171 29.6936 54.1171 29.6859C54.9596 26.9885 56.4792 24.5517 58.5311 22.6075C63.6124 17.5837 71.6571 14.4283 78.7553 9.43551C94.3017 -1.49598 105.721 9.38125 104.1 34.764Z" fill="#EDEDED"/>
<path opacity="0.2" d="M101.176 45.8126C97.9096 52.418 92.1767 57.4263 85.0319 59.2947C85.02 59.301 85.0065 59.3037 84.9931 59.3025C83.2001 59.7473 81.3632 59.9917 79.5162 60.0313H79.3378C79.012 60.039 78.6861 60.039 78.3603 60.0313C71.6904 59.865 65.3543 57.0807 60.723 52.2811C56.0917 47.4814 53.5376 41.0523 53.6135 34.3849C53.6371 32.8148 53.8033 31.2501 54.11 29.71C54.11 29.7022 54.1177 29.6945 54.1177 29.6867C54.9602 26.9894 56.4799 24.5525 58.5318 22.6084C57.8426 25.8936 57.8138 29.283 58.4469 32.5795C59.0801 35.8759 60.3625 39.0137 62.2198 41.8105C64.077 44.6073 66.472 47.0072 69.2656 48.8708C72.0591 50.7344 75.1954 52.0245 78.4922 52.6661C78.7327 52.7126 78.9732 52.7591 79.2137 52.7979C79.9118 52.9142 80.61 52.9995 81.316 53.0537C84.9529 53.3487 88.6106 52.8543 92.0385 51.6045C95.4663 50.3546 98.5832 48.3788 101.176 45.8126Z" fill="black"/>
<path d="M79.6142 75.896L83.4406 73.8832L82.8568 72.7747L79.5885 74.4941L79.3428 60.3883V60.3866L79.3369 60.0878V60.0346L79.21 52.7982L79.0321 42.5995L78.8958 34.7632H78.8245L78.6911 41.9961V41.9979L78.4945 52.6678L78.3588 60.03L78.3582 60.0914L78.319 62.1919L77.5434 104.329L77.5381 104.607L80.1266 105.333L80.122 105.052L79.6142 75.896Z" fill="#3F3D56"/>
<path d="M171.941 125.794C155.853 122.573 139.714 119.65 123.378 117.862C107.889 116.041 92.2693 115.59 76.7007 116.513C62.6405 117.461 48.4598 119.683 35.2513 124.75C25.073 128.654 14.2235 134.562 8.72555 144.413C3.4258 153.909 5.49288 164.86 11.2636 173.622C18.2071 184.164 29.0343 191.387 40.2911 196.667C53.108 202.679 66.8168 206.576 80.5432 209.89C87.5048 211.571 94.5041 213.09 101.504 214.602C102.964 214.917 103.588 212.675 102.123 212.359C88.0068 209.311 73.85 206.252 60.0846 201.839C47.3462 197.756 34.3101 192.525 23.8785 183.95C15.4393 177.013 7.41536 166.881 7.91348 155.361C8.41564 143.748 18.1655 135.639 27.7217 130.648C39.6642 124.411 53.2327 121.373 66.5282 119.785C81.7517 118.09 97.1044 117.881 112.368 119.162C132.769 120.713 152.867 124.312 172.888 128.342" fill="#0066E0"/>
<path d="M187.542 131.466C184.195 129.111 180.418 127.438 176.425 126.542C172.431 125.646 168.301 125.544 164.268 126.244C160.236 126.943 156.381 128.43 152.923 130.618C149.465 132.806 146.473 135.654 144.116 138.998C134.206 153.062 124.262 189.941 131.281 211.305C152.219 189.202 184.387 186.906 195.078 174.864C206.502 161.998 201.614 141.37 187.542 131.466Z" fill="#0066E0"/>
<path d="M169.174 163.312C174.787 163.312 179.338 158.765 179.338 153.155C179.338 147.545 174.787 142.997 169.174 142.997C163.56 142.997 159.01 147.545 159.01 153.155C159.01 158.765 163.56 163.312 169.174 163.312Z" fill="white"/>
<path d="M122.689 222.368C126.366 222.368 129.347 219.389 129.347 215.715C129.347 212.04 126.366 209.062 122.689 209.062C119.013 209.062 116.032 212.04 116.032 215.715C116.032 219.389 119.013 222.368 122.689 222.368Z" fill="#0066E0"/>
<path opacity="0.2" d="M180.048 150.811C180.721 151.963 181.16 153.236 181.341 154.558C181.522 155.88 181.44 157.224 181.101 158.514C180.762 159.804 180.172 161.015 179.364 162.077C178.557 163.139 177.548 164.032 176.396 164.705C175.243 165.377 173.969 165.816 172.647 165.997C171.324 166.178 169.979 166.096 168.688 165.757C167.397 165.418 166.186 164.828 165.123 164.022C164.06 163.215 163.167 162.207 162.494 161.055C164.308 162.645 166.629 163.539 169.042 163.575C171.456 163.611 173.803 162.788 175.664 161.253C177.526 159.718 178.779 157.571 179.202 155.196C179.624 152.821 179.186 150.374 177.968 148.292C178.793 149.014 179.495 149.865 180.048 150.811Z" fill="#231F20"/>
<path opacity="0.2" d="M195.097 174.912C184.406 186.953 152.239 189.25 131.3 211.352C130.647 209.331 130.144 207.264 129.795 205.168C150.723 185.075 181.1 182.536 191.429 170.902C200.674 160.489 199.235 144.994 190.892 134.213C202.335 144.814 205.566 163.121 195.097 174.912Z" fill="#231F20"/>
<path d="M304.706 358.651H297.12L293.51 329.405H304.708L304.706 358.651Z" fill="#FFB6B6"/>
<path d="M306.641 366L282.178 365.999V365.69C282.178 363.166 283.181 360.746 284.967 358.961C286.752 357.177 289.174 356.174 291.7 356.174H291.7L296.169 352.786L304.506 356.175L306.642 356.175L306.641 366Z" fill="white"/>
<path d="M275.306 353.872L267.905 355.542L257.938 327.809L268.861 325.345L275.306 353.872Z" fill="#FFB6B6"/>
<path d="M278.813 360.615L254.95 366L254.882 365.698C254.326 363.236 254.771 360.655 256.12 358.521C257.468 356.387 259.61 354.876 262.073 354.32L262.073 354.32L265.685 350.031L274.565 351.501L276.648 351.031L278.813 360.615Z" fill="white"/>
<path d="M314.316 179.857C317.873 190.579 317.497 202.217 313.461 214.708L311.736 285.034C314.588 288.171 316.378 300.962 311.984 310.122C306.117 322.353 310.159 339.266 306.011 347.381H293.981L291.025 314.345L288.421 310.619L288.025 280.822C286.427 277.041 284.576 273.292 287.826 268.912L287.739 263.736L287.277 236.147L269.135 262.661C268.619 268.661 265.55 271.806 261.486 273.838L267.105 298.621C276.932 307.027 274.529 320.037 274.691 332.081L277.913 346.293L263.107 347.615L256.574 328.342L249.227 316.466L236.451 268.985L245.361 248.318L249.003 239.871L269.34 192.7L314.316 179.857Z" fill="#0052B3"/>
<path d="M188.625 141.619C189.218 142.211 189.934 142.666 190.722 142.951C191.51 143.237 192.351 143.346 193.186 143.271C194.02 143.197 194.829 142.94 195.554 142.52C196.278 142.099 196.902 141.525 197.381 140.837L216.994 146.347L213.775 136.268L195.643 132.581C194.434 131.854 193 131.595 191.613 131.854C190.226 132.112 188.982 132.871 188.117 133.985C187.252 135.099 186.826 136.491 186.919 137.898C187.013 139.306 187.62 140.629 188.625 141.619Z" fill="#FFB8B8"/>
<path d="M204.666 133.479L223.81 133.339C228.973 131.896 234.415 131.773 239.638 132.98L240.654 133.215L248.643 132.31C253.406 122.795 262.244 114.193 274.108 106.268C275.897 104.827 277.971 103.781 280.194 103.199C282.417 102.617 284.738 102.511 287.004 102.89C289.27 103.269 291.431 104.124 293.343 105.397C295.255 106.671 296.876 108.334 298.098 110.279C300.305 113.799 301.082 118.029 300.27 122.103C299.458 126.177 297.118 129.787 293.73 132.193L257.578 153.435C254.406 155.299 250.803 156.306 247.124 156.355L247.036 156.401L226.413 148.679L215.804 147.33L201.419 143.152L204.666 133.479Z" fill="#0066E0"/>
<path d="M281.47 88.8335C291.446 88.8335 299.532 80.752 299.532 70.783C299.532 60.8139 291.446 52.7324 281.47 52.7324C271.495 52.7324 263.409 60.8139 263.409 70.783C263.409 80.752 271.495 88.8335 281.47 88.8335Z" fill="#FFB8B8"/>
<path d="M298.338 82.231C299.676 80.322 300.626 77.2647 301.187 75.03C301.937 72.0877 302.06 69.0205 301.549 66.0275C301.037 63.0344 299.902 60.1821 298.217 57.6555C297.595 56.6258 296.704 55.7852 295.639 55.2242C294.546 54.7366 293.105 54.8528 292.344 55.7753C292.341 54.9658 292.173 54.1655 291.849 53.4235C291.525 52.6816 291.053 52.0139 290.46 51.4617C289.267 50.3633 287.833 49.5579 286.274 49.1095C283.27 48.194 280.073 48.1083 277.024 48.8617C273.975 49.6151 271.187 51.1794 268.956 53.3886C268.085 54.2749 268.396 49.8461 267.428 50.6262C266.49 51.4643 265.261 51.9023 264.005 51.8465C262.768 51.7149 260.494 56.1184 260.481 54.8758C259.18 56.1785 258.607 61.6722 259.014 63.4671C259.421 65.2621 265.474 64.4688 267.21 65.0839C268.36 65.4914 269.608 65.5052 270.799 65.7704C272.916 66.3171 274.76 67.6194 275.981 69.4315C277.203 71.2436 277.719 73.4401 277.431 75.6062C278.193 74.5826 279.115 73.6887 280.162 72.9589C280.689 72.5986 281.295 72.3694 281.929 72.2903C282.563 72.2112 283.207 72.2846 283.807 72.5042C284.348 72.7945 284.824 73.1924 285.206 73.6734C285.588 74.1544 285.868 74.7084 286.028 75.3013C286.422 76.4619 286.575 77.6939 286.976 78.852C288.155 82.25 288.762 85.817 292.046 86.6227C294.638 87.2585 296.51 84.8375 298.338 82.231Z" fill="#2F2E41"/>
<path d="M315.857 176.279L313.874 172.315C311.446 157.284 309.048 143.265 312.306 130.655C312.511 119.646 309.107 109.304 299.653 103.657L295.389 101.108L293.23 95.6357L273.352 96.121L273.294 103.294L266.174 114.642V114.689L266.619 176.436L268.585 182.809L265.619 190.222L267.192 194.951L306.38 188.69L310.938 187.959C311.464 187.791 311.971 187.57 312.453 187.299C314.088 186.391 315.369 184.96 316.091 183.236C316.132 183.136 316.167 183.043 316.202 182.943C316.51 182.138 316.687 181.29 316.729 180.429C316.8 178.994 316.5 177.564 315.857 176.279Z" fill="#0066E0"/>
<path opacity="0.2" d="M316.729 180.43C316.687 181.29 316.51 182.139 316.202 182.944L312.452 187.299C311.971 187.57 311.463 187.791 310.937 187.96L306.38 188.69L312.973 176.302L298.483 144.598L316.729 180.43Z" fill="black"/>
<path d="M332.5 217.1C331.773 216.604 331.163 215.955 330.713 215.198C330.264 214.441 329.986 213.595 329.899 212.719C329.813 211.844 329.919 210.959 330.211 210.129C330.503 209.299 330.974 208.543 331.59 207.914L322.053 188.764L333.094 190.107L340.458 208.087C341.447 209.192 341.995 210.62 342 212.102C342.005 213.583 341.466 215.015 340.485 216.126C339.504 217.237 338.149 217.95 336.678 218.129C335.206 218.309 333.72 217.942 332.5 217.1Z" fill="#FFB8B8"/>
<path d="M293.836 151.207L301.072 150.209C301.072 150.209 301.77 161.11 305.231 162.762C308.692 164.414 307.525 164.686 307.933 166.435C308.341 168.184 310.188 170.827 312.93 172.032C315.671 173.237 328.141 203.541 328.141 203.541L338.641 201.094C337.669 198.463 337.03 195.721 336.736 192.932C336.367 188.715 331.586 178.766 330.011 177.288C328.436 175.811 329.059 173.208 328.242 169.71C327.426 166.212 327.993 169.455 326.632 163.626C325.272 157.796 309.979 122.858 309.338 117.475C308.697 112.093 301.192 108.924 301.192 108.924L295.358 110.284L293.836 151.207Z" fill="#0066E0"/>
</svg>
