<svg width="616" height="722" viewBox="0 0 616 722" fill="none" xmlns="http://www.w3.org/2000/svg">
<path d="M79.5895 9.66407C78.8557 7.26358 77.4362 5.12994 75.5057 3.52556C73.5752 1.92118 71.2179 0.916048 68.7237 0.633785C68.6673 0.625832 68.6138 0.636332 68.5577 0.632712C68.4851 0.61054 68.4111 0.593494 68.3362 0.581703C56.4678 -0.952184 42.7678 4.7241 37.8215 15.9758C36.6146 14.3302 35.0253 13.0031 33.1908 12.1091C31.3562 11.2151 29.3317 10.7812 27.2919 10.8447C24.6618 11.02 22.1496 12.0016 20.0972 13.6558C18.0449 15.31 16.5523 17.5565 15.8225 20.0894C15.7448 20.3995 15.7678 20.7262 15.8883 21.0222C16.0088 21.3182 16.2204 21.5682 16.4925 21.7359C17.2764 22.4002 18.205 22.8716 19.204 23.1123C21.3593 23.5689 23.5224 23.9872 25.6931 24.3672C29.9288 25.1084 34.1866 25.7077 38.4666 26.165C47.1545 27.0961 55.8964 27.4265 64.6298 27.154C67.5386 27.0633 70.3437 26.9668 73.0088 25.6831C74.9477 24.7254 76.6041 23.2799 77.8154 21.4885C78.9567 19.7667 79.707 17.8158 80.0134 15.773C80.3199 13.7302 80.1752 11.645 79.5895 9.66407Z" fill="#EDEDED"/>
<path d="M25.6503 44.2675C24.9164 41.8671 23.497 39.7335 21.5665 38.1291C19.636 36.5248 17.2788 35.5196 14.7846 35.2373C14.7281 35.2294 14.6746 35.2398 14.6184 35.2362C14.5459 35.2141 14.4719 35.197 14.397 35.1852C2.52867 33.6513 -11.1714 39.3276 -16.1178 50.5793C-17.3246 48.9336 -18.914 47.6065 -20.7485 46.7125C-22.583 45.8186 -24.6076 45.3847 -26.6473 45.4483C-29.2775 45.6235 -31.7897 46.6051 -33.842 48.2593C-35.8943 49.9135 -37.387 52.16 -38.1168 54.693C-38.1944 55.003 -38.1713 55.3297 -38.0508 55.6257C-37.9304 55.9218 -37.7188 56.1717 -37.4467 56.3394C-36.6628 57.0037 -35.7342 57.4751 -34.7353 57.7158C-32.58 58.1724 -30.4169 58.5906 -28.2462 58.9707C-24.0105 59.7119 -19.7526 60.3112 -15.4726 60.7686C-6.78462 61.6996 1.95725 62.03 10.6907 61.7575C13.5994 61.6668 16.4044 61.5703 19.0696 60.2865C21.0085 59.3288 22.6649 57.8833 23.8763 56.092C25.0175 54.3702 25.7678 52.4193 26.0742 50.3765C26.3807 48.3336 26.236 46.2485 25.6503 44.2675Z" fill="#EDEDED"/>
<path d="M275.311 447.074C274.654 448.038 272.927 449.184 272.254 450.132L272.972 447.954L272.727 447.45L271.198 444.392L232.278 365.956L232.263 365.941L166.286 233.038V233.023L164.772 229.981V229.966L132.12 164.187L130.576 161.068C131.738 161.099 132.899 161.145 134.061 161.206L135.621 164.34L168.182 229.966L168.197 229.981L169.71 233.023V233.038L234.006 362.562V362.578L235.519 365.62V365.635L274.439 444.01L274.959 445.065L275.311 447.074Z" fill="#3F3D56"/>
<path d="M270.97 233.039H-20.3035C-19.5235 232.015 -18.7293 230.99 -17.9038 229.981H268.57C269.395 230.99 270.19 232.015 270.97 233.039Z" fill="#3F3D56"/>
<path d="M307.872 362.578C307.78 363.602 307.673 364.626 307.535 365.635H232.921V362.578H307.872Z" fill="#3F3D56"/>
<path d="M273.679 444.391H-10.7485V447.448H273.679V444.391Z" fill="#3F3D56"/>
<path d="M273.431 447.075H273.783V446.57C273.676 446.746 273.559 446.914 273.431 447.075ZM271.077 232.663C270.297 231.639 269.503 230.615 268.677 229.606C252.44 209.234 232.042 192.561 208.847 180.7C185.651 168.84 160.192 162.067 134.169 160.831C133.008 160.77 131.846 160.724 130.684 160.694C128.941 160.648 127.198 160.617 125.441 160.617C100.159 160.604 75.1484 165.832 51.9891 175.973C28.8298 186.113 8.02458 200.945 -9.11304 219.532C-10.1677 220.648 -11.1769 221.779 -12.1704 222.911C-14.1118 225.097 -15.9871 227.328 -17.7962 229.606C-18.6216 230.615 -19.4159 231.639 -20.1959 232.663C-46.0298 266.342 -59.3551 307.953 -57.891 350.374C-56.427 392.794 -40.2647 433.387 -12.1704 465.205C-11.1769 466.336 -10.1677 467.467 -9.11304 468.583C9.36095 488.59 32.0628 504.226 57.3406 514.355C82.6184 524.483 109.836 528.849 137.014 527.135C164.191 525.42 190.645 517.668 214.449 504.443C238.254 491.218 258.81 472.852 274.623 450.682C275.297 449.735 275.969 448.787 276.626 447.824C293.579 423.263 304.231 394.909 307.643 365.26C307.781 364.251 307.887 363.227 307.979 362.203C308.575 356.241 308.875 350.193 308.881 344.058C308.928 303.77 295.635 264.601 271.077 232.663ZM304.57 365.26C301.243 393.719 291.124 420.96 275.067 444.69C274.654 445.317 274.226 445.944 273.783 446.57C273.676 446.746 273.559 446.914 273.431 447.075C273.324 447.243 273.202 447.411 273.08 447.579C257.486 469.86 237.05 488.322 213.305 501.58C189.56 514.838 163.122 522.549 135.973 524.135C108.823 525.72 81.6671 521.139 56.5404 510.734C31.4136 500.33 8.96818 484.373 -9.11314 464.058C-10.1678 462.897 -11.1919 461.735 -12.1705 460.542C-39.0511 428.872 -54.1519 388.88 -54.9125 347.347C-55.6731 305.814 -42.0467 265.297 -16.3437 232.663C-15.5331 231.639 -14.7232 230.615 -13.8828 229.606C-13.3319 228.918 -12.7669 228.246 -12.1705 227.573C-11.1919 226.381 -10.1678 225.219 -9.11314 224.057C7.77425 205.055 28.4976 189.849 51.6905 179.441C74.8835 169.033 100.019 163.659 125.44 163.674C127.719 163.674 129.981 163.72 132.228 163.812C133.405 163.843 134.567 163.904 135.728 163.965C160.607 165.387 184.919 171.955 207.13 183.254C229.34 194.552 248.965 210.335 264.764 229.606C265.604 230.615 266.415 231.639 267.225 232.663C296.07 269.343 309.582 315.773 304.922 362.203C304.814 363.227 304.708 364.252 304.57 365.26ZM273.431 447.075H273.783V446.57C273.676 446.746 273.559 446.914 273.431 447.075Z" fill="#CCCCCC"/>
<path d="M102.321 102.448C102.321 103.288 102.294 104.122 102.24 104.948C101.934 109.716 100.73 114.382 98.6902 118.702C98.6744 118.739 98.6558 118.773 98.6401 118.807C98.5451 119.007 98.4476 119.208 98.3475 119.405C97.7409 120.627 97.0679 121.815 96.3316 122.963C92.9683 128.234 88.3583 132.596 82.9092 135.662C77.46 138.729 71.3394 140.406 65.0883 140.545L65.4652 162.217L70.3799 159.63L71.2574 161.298L65.5021 164.328L66.2057 204.579L66.2135 205.116L62.4136 205.962L62.4214 205.422L63.6178 140.548C58.5862 140.476 53.6191 139.405 49.0048 137.397C44.3905 135.389 40.221 132.485 36.7384 128.853C36.4986 128.605 36.2614 128.349 36.0294 128.096L36.0031 128.067C33.1014 124.903 30.7548 121.272 29.0619 117.326C29.0988 117.368 29.1383 117.408 29.1753 117.45C13.4723 77.9883 22.6081 59.6947 47.2476 68.3343C47.3794 68.2684 47.5138 68.2052 47.6456 68.1393C56.2636 63.9882 66.1267 63.2266 75.2799 66.0053C84.4331 68.784 92.2082 74.9002 97.0641 83.1417C97.2961 83.5317 97.5202 83.9296 97.7362 84.3302C100.753 89.892 102.329 96.1204 102.321 102.448Z" fill="#EDEDED"/>
<path d="M147.132 68.8821C146.673 76.4533 144.714 83.8578 141.369 90.6657C134.933 103.69 123.637 113.565 109.557 117.249C109.534 117.262 109.507 117.267 109.481 117.265C105.938 118.189 102.302 118.707 98.6427 118.809H98.3369C97.9548 118.824 97.5726 118.824 97.1904 118.824C96.9306 118.824 96.6707 118.824 96.4108 118.809C83.3029 118.606 70.8002 113.257 61.6022 103.916C52.4042 94.5753 47.2487 81.9916 47.2488 68.8821V68.3318C47.2717 65.1446 47.7347 61.9757 48.6246 58.9151C48.6246 58.8999 48.6398 58.8846 48.6398 58.8693C50.3001 53.5508 53.2946 48.7459 57.338 44.9126C67.3508 35.0068 83.2031 28.7851 97.1904 18.9405C127.825 -2.61381 150.327 18.8335 147.132 68.8821Z" fill="#EDEDED"/>
<path opacity="0.2" d="M141.369 90.6657C134.933 103.69 123.637 113.565 109.557 117.249C109.534 117.262 109.507 117.267 109.481 117.265C105.948 118.142 102.328 118.624 98.6886 118.702H98.337C97.695 118.717 97.0529 118.717 96.4109 118.702C83.2677 118.374 70.7821 112.884 61.6559 103.42C52.5297 93.9562 47.4968 81.2795 47.6463 68.1331C47.6929 65.0372 48.0203 61.9519 48.6247 58.9152C48.6247 58.9 48.6399 58.8847 48.6399 58.8694C50.3002 53.5508 53.2947 48.746 57.338 44.9126C55.9801 51.3903 55.9233 58.0733 57.1709 64.5731C58.4185 71.073 60.9456 77.26 64.6054 82.7746C68.2652 88.2892 72.9846 93.0213 78.4893 96.6959C83.9941 100.37 90.1743 102.914 96.6708 104.179C97.1446 104.271 97.6186 104.363 98.0924 104.439C99.4682 104.668 100.844 104.837 102.235 104.944C109.402 105.525 116.609 104.55 123.364 102.086C130.119 99.6215 136.261 95.7257 141.369 90.6657Z" fill="black"/>
<path d="M98.883 149.985L106.423 146.016L105.273 143.83L98.8323 147.22L98.3482 119.407V119.404L98.3366 118.815V118.71L98.0865 104.441L97.7361 84.3316L97.4675 68.8804H97.3268L97.064 83.142V83.1455L96.6767 104.184L96.4093 118.7L96.4081 118.821L96.3309 122.963L94.8024 206.047L94.792 206.595L99.8928 208.027L99.8836 207.474L98.883 149.985Z" fill="#3F3D56"/>
<path d="M280.816 248.372C249.113 242.02 217.31 236.257 185.12 232.731C154.598 229.141 123.819 228.251 93.1405 230.071C65.4344 231.94 37.4909 236.322 11.463 246.313C-8.59372 254.011 -29.9731 265.658 -40.807 285.083C-51.2503 303.807 -47.1771 325.4 -35.8056 342.675C-22.1233 363.462 -0.787804 377.705 21.3941 388.116C46.6502 399.97 73.664 407.653 100.712 414.188C114.43 417.502 128.223 420.498 142.016 423.478C144.894 424.1 146.123 419.68 143.236 419.056C115.42 413.045 87.5231 407.015 60.3979 398.314C35.2964 390.263 9.60836 379.948 -10.9475 363.041C-27.5773 349.363 -43.3887 329.385 -42.4072 306.67C-41.4177 283.772 -22.2052 267.784 -3.37442 257.943C20.1588 245.644 46.8959 239.653 73.0951 236.522C103.094 233.18 133.347 232.768 163.425 235.294C203.624 238.353 243.229 245.448 282.682 253.396" fill="#0066E0"/>
<path d="M311.558 259.555C304.965 254.911 297.521 251.612 289.652 249.845C281.783 248.078 273.643 247.878 265.697 249.257C257.751 250.636 250.155 253.567 243.341 257.882C236.528 262.197 230.631 267.811 225.987 274.405C206.458 302.136 186.863 374.852 200.695 416.978C241.955 373.396 305.341 368.868 326.409 345.126C348.92 319.756 339.289 279.083 311.558 259.555Z" fill="#0066E0"/>
<path d="M275.363 322.348C286.424 322.348 295.391 313.381 295.391 302.32C295.391 291.258 286.424 282.291 275.363 282.291C264.301 282.291 255.334 291.258 255.334 302.32C255.334 313.381 264.301 322.348 275.363 322.348Z" fill="white"/>
<path d="M183.764 438.79C191.009 438.79 196.882 432.917 196.882 425.672C196.882 418.427 191.009 412.554 183.764 412.554C176.519 412.554 170.646 418.427 170.646 425.672C170.646 432.917 176.519 438.79 183.764 438.79Z" fill="#0066E0"/>
<path opacity="0.2" d="M296.791 297.698C298.117 299.97 298.983 302.48 299.339 305.086C299.695 307.692 299.534 310.342 298.866 312.886C298.198 315.43 297.035 317.817 295.444 319.912C293.853 322.006 291.865 323.767 289.594 325.093C287.322 326.419 284.812 327.285 282.206 327.641C279.6 327.997 276.95 327.836 274.406 327.168C271.862 326.5 269.475 325.337 267.38 323.746C265.286 322.155 263.525 320.167 262.199 317.896C265.774 321.032 270.349 322.794 275.104 322.865C279.859 322.937 284.484 321.314 288.152 318.287C291.82 315.26 294.291 311.026 295.123 306.344C295.954 301.662 295.092 296.836 292.691 292.731C294.317 294.155 295.701 295.832 296.791 297.698Z" fill="#231F20"/>
<path opacity="0.2" d="M326.446 345.22C305.379 368.962 241.992 373.491 200.733 417.072C199.445 413.086 198.454 409.011 197.767 404.879C239.006 365.26 298.864 360.253 319.219 337.313C337.437 316.782 334.601 286.23 318.159 264.972C340.709 285.874 347.076 321.971 326.446 345.22Z" fill="#231F20"/>
<path d="M542.435 707.507H527.485L520.373 649.842H542.438L542.435 707.507Z" fill="#FFB6B6"/>
<path d="M546.248 721.999L498.042 721.997V721.388C498.043 716.411 500.019 711.639 503.538 708.12C507.057 704.602 511.829 702.625 516.805 702.625H516.807L525.612 695.944L542.041 702.626L546.249 702.626L546.248 721.999Z" fill="white"/>
<path d="M484.5 698.086L469.916 701.379L450.276 646.696L471.8 641.837L484.5 698.086Z" fill="#FFB6B6"/>
<path d="M491.411 711.383L444.389 722L444.255 721.405C443.159 716.551 444.036 711.461 446.693 707.254C449.35 703.046 453.57 700.067 458.424 698.97L458.425 698.97L465.543 690.514L483.04 693.412L487.145 692.486L491.411 711.383Z" fill="white"/>
<path d="M561.371 354.97C568.38 376.111 567.639 399.058 559.686 423.687L556.286 562.353C561.907 568.538 565.434 593.76 556.776 611.82C545.214 635.936 553.179 669.287 545.006 685.286H521.301L515.475 620.147L510.344 612.802L509.564 554.048C506.415 546.594 502.767 539.201 509.171 530.565L509 520.36L508.09 465.961L472.339 518.239C471.324 530.07 465.275 536.27 457.268 540.277L468.34 589.144C487.705 605.719 482.969 631.371 483.289 655.118L489.638 683.141L460.462 685.749L447.587 647.747L433.111 624.329L407.934 530.709L425.492 489.959L432.668 473.303L472.743 380.292L561.371 354.97Z" fill="#0052B3"/>
<path d="M313.692 279.574C314.861 280.741 316.271 281.638 317.824 282.2C319.377 282.763 321.034 282.979 322.679 282.832C324.324 282.685 325.917 282.179 327.345 281.35C328.773 280.521 330.002 279.388 330.946 278.033L369.594 288.897L363.25 269.022L327.522 261.753C325.14 260.319 322.314 259.809 319.581 260.319C316.847 260.829 314.396 262.324 312.691 264.521C310.986 266.717 310.147 269.463 310.331 272.238C310.516 275.012 311.711 277.623 313.692 279.574Z" fill="#FFB8B8"/>
<path d="M345.301 263.523L383.024 263.246C393.198 260.402 403.922 260.16 414.214 262.54L416.216 263.003L431.958 261.218C441.344 242.457 458.759 225.495 482.138 209.869C485.664 207.028 489.751 204.965 494.131 203.817C498.511 202.67 503.085 202.462 507.551 203.21C512.017 203.957 516.274 205.641 520.042 208.152C523.81 210.663 527.004 213.944 529.412 217.778C533.761 224.719 535.292 233.06 533.692 241.093C532.092 249.126 527.481 256.243 520.804 260.988L449.565 302.872C443.314 306.547 436.215 308.531 428.965 308.63L428.792 308.72L388.154 293.494L367.25 290.834L338.903 282.596L345.301 263.523Z" fill="#0066E0"/>
<path d="M496.647 175.493C516.304 175.493 532.239 159.558 532.239 139.901C532.239 120.245 516.304 104.31 496.647 104.31C476.991 104.31 461.056 120.245 461.056 139.901C461.056 159.558 476.991 175.493 496.647 175.493Z" fill="#FFB8B8"/>
<path d="M529.886 162.475C532.524 158.711 534.395 152.683 535.5 148.276C536.979 142.475 537.222 136.427 536.214 130.526C535.206 124.624 532.969 119 529.648 114.018C528.423 111.988 526.666 110.33 524.569 109.224C522.415 108.263 519.576 108.492 518.075 110.311C518.07 108.715 517.738 107.137 517.1 105.674C516.462 104.211 515.531 102.894 514.364 101.805C512.011 99.6395 509.187 98.0515 506.114 97.1673C500.194 95.3621 493.896 95.1933 487.887 96.6788C481.879 98.1643 476.385 101.249 471.989 105.605C470.271 107.352 470.884 98.6197 468.977 100.158C467.129 101.81 464.708 102.674 462.232 102.564C459.795 102.305 455.314 110.987 455.288 108.537C452.725 111.106 451.595 121.938 452.397 125.477C453.199 129.016 465.128 127.452 468.548 128.665C470.813 129.469 473.274 129.496 475.62 130.019C479.792 131.097 483.425 133.665 485.832 137.238C488.24 140.811 489.256 145.141 488.689 149.413C490.19 147.394 492.007 145.632 494.07 144.193C495.109 143.482 496.303 143.03 497.553 142.874C498.802 142.718 500.07 142.863 501.252 143.296C502.319 143.869 503.258 144.653 504.011 145.602C504.763 146.55 505.314 147.642 505.629 148.811C506.406 151.1 506.707 153.529 507.498 155.812C509.82 162.513 511.018 169.546 517.489 171.134C522.596 172.388 526.284 167.614 529.886 162.475Z" fill="#2F2E41"/>
<path d="M564.408 347.915L560.5 340.099C555.716 310.462 550.99 282.82 557.41 257.955C557.814 236.249 551.105 215.857 532.477 204.722L524.073 199.696L519.82 188.906L480.65 189.863L480.535 204.007L466.506 226.382V226.474L467.382 348.226L471.255 360.791L465.411 375.407L468.512 384.733L545.733 372.387L554.713 370.946C555.75 370.614 556.75 370.178 557.699 369.644C560.921 367.854 563.446 365.032 564.869 361.632C564.949 361.436 565.019 361.252 565.088 361.056C565.693 359.469 566.044 357.796 566.125 356.099C566.265 353.269 565.674 350.45 564.408 347.915Z" fill="#0066E0"/>
<path opacity="0.2" d="M566.125 356.099C566.044 357.796 565.694 359.469 565.088 361.056L557.699 369.644C556.75 370.178 555.75 370.615 554.713 370.947L545.733 372.388L558.725 347.961L530.171 285.448L566.125 356.099Z" fill="black"/>
<path d="M597.203 428.404C595.769 427.426 594.568 426.146 593.682 424.654C592.797 423.162 592.249 421.494 592.078 419.767C591.907 418.04 592.117 416.297 592.693 414.66C593.268 413.023 594.196 411.532 595.41 410.293L576.616 372.532L598.374 375.182L612.885 410.633C614.832 412.811 615.913 415.627 615.923 418.549C615.933 421.47 614.87 424.294 612.937 426.484C611.004 428.675 608.335 430.08 605.435 430.434C602.535 430.788 599.606 430.065 597.203 428.404Z" fill="#FFB8B8"/>
<path d="M521.015 298.48L535.272 296.51C535.272 296.51 536.648 318.005 543.468 321.263C550.288 324.521 547.989 325.057 548.793 328.505C549.597 331.954 553.236 337.165 558.638 339.541C564.04 341.918 588.613 401.669 588.613 401.669L609.303 396.844C607.389 391.656 606.128 386.25 605.551 380.751C604.824 372.437 595.401 352.818 592.298 349.906C589.194 346.993 590.421 341.859 588.813 334.962C587.205 328.065 588.321 334.461 585.64 322.966C582.96 311.471 552.823 242.582 551.56 231.969C550.297 221.355 535.509 215.108 535.509 215.108L524.014 217.788L521.015 298.48Z" fill="#0066E0"/>
</svg>
