<svg width="433" height="101" viewBox="0 0 433 101" fill="none" xmlns="http://www.w3.org/2000/svg">
<path d="M144.702 74.64C141.844 74.64 139.326 74.1493 137.15 73.168C135.017 72.1867 133.353 70.608 132.158 68.432C130.964 66.256 130.366 63.376 130.366 59.792C130.366 55.9947 131.006 52.8587 132.286 50.384C133.566 47.9093 135.316 46.0747 137.534 44.88C139.796 43.6427 142.377 43.024 145.278 43.024C146.388 43.024 147.561 43.1307 148.798 43.344C150.036 43.5573 151.06 43.8347 151.87 44.176V30.864H167.358V74H153.918L153.214 72.016C152.105 72.8267 150.868 73.4667 149.502 73.936C148.18 74.4053 146.58 74.64 144.702 74.64ZM149.182 63.568C149.78 63.568 150.27 63.4827 150.654 63.312C151.038 63.1413 151.444 62.9067 151.87 62.608V55.056C151.102 54.416 150.206 54.096 149.182 54.096C148.244 54.096 147.497 54.5653 146.942 55.504C146.43 56.4427 146.174 57.8293 146.174 59.664C146.174 61.4987 146.43 62.608 146.942 62.992C147.497 63.376 148.244 63.568 149.182 63.568ZM171.834 74V43.664H187.002L187.322 45.392C188.431 44.7947 189.882 44.2613 191.674 43.792C193.508 43.28 195.407 43.024 197.37 43.024V54.416C195.791 54.416 194.02 54.5227 192.058 54.736C190.095 54.9493 188.516 55.2693 187.322 55.696V74H171.834ZM207.742 74.64C205.822 74.64 204.051 74.2987 202.43 73.616C200.808 72.9333 199.507 71.8453 198.526 70.352C197.544 68.8587 197.054 66.9173 197.054 64.528C197.054 61.1147 198.12 58.5333 200.254 56.784C202.43 55.0347 205.758 54.16 210.238 54.16H217.022V53.84C217.022 53.3707 216.574 52.9653 215.678 52.624C214.782 52.24 213.416 52.048 211.582 52.048C209.96 52.048 208.19 52.1973 206.27 52.496C204.392 52.752 202.6 53.136 200.894 53.648V45.328C202.558 44.6027 204.67 44.048 207.23 43.664C209.832 43.2373 212.307 43.024 214.654 43.024C218.024 43.024 220.99 43.4933 223.55 44.432C226.11 45.328 228.115 46.736 229.566 48.656C231.016 50.5333 231.742 52.944 231.742 55.888V74H218.174L217.534 71.824C216.51 72.6347 215.187 73.3173 213.566 73.872C211.987 74.384 210.046 74.64 207.742 74.64ZM213.566 66.192C214.376 66.192 215.038 66.064 215.55 65.808C216.104 65.552 216.595 65.2107 217.022 64.784V61.968H214.206C212.286 61.968 211.326 62.672 211.326 64.08C211.326 65.488 212.072 66.192 213.566 66.192ZM237.88 74V54.8H234.296V43.664H237.88V42.704C237.88 40.2293 238.35 38.032 239.288 36.112C240.27 34.192 241.72 32.6773 243.64 31.568C245.56 30.416 247.95 29.84 250.808 29.84C252.771 29.84 254.499 29.9893 255.992 30.288C257.486 30.544 258.894 30.9707 260.216 31.568V41.168C258.979 40.7413 257.699 40.528 256.376 40.528C254.371 40.528 253.368 41.3813 253.368 43.088V43.664H259.96L259.32 54.8H253.368V74H237.88ZM275.482 74.64C270.832 74.64 267.504 73.5093 265.498 71.248C263.536 68.9867 262.554 65.936 262.554 62.096V54.8H258.906V43.664H262.554V37.712L278.042 34.576V43.664H284.25L283.93 54.8H278.042V61.264C278.042 63.056 279.045 63.952 281.05 63.952C282.373 63.952 283.653 63.7387 284.89 63.312V72.912C283.568 73.4667 282.16 73.8933 280.666 74.192C279.173 74.4907 277.445 74.64 275.482 74.64ZM285.866 74V63.184H297.77V74H285.866ZM299.679 74V65.872L309.855 55.504H299.999V43.664H329.631V52.624L319.967 62.864H330.143V74H299.679ZM335.51 41.168V30.48H352.086V41.168H335.51ZM336.598 74V54.8H332.374L333.654 43.664H352.086V74H336.598ZM370.856 85.264C369.362 85.264 367.677 85.2 365.8 85.072C363.922 84.9867 362.13 84.816 360.424 84.56C358.717 84.3467 357.373 84.0693 356.392 83.728V74.896C357.544 75.28 358.909 75.5787 360.488 75.792C362.066 76.048 363.688 76.2187 365.352 76.304C367.016 76.432 368.53 76.496 369.896 76.496C371.517 76.496 372.946 76.432 374.184 76.304C375.421 76.176 376.04 75.8987 376.04 75.472C376.04 75.1307 375.784 74.9173 375.272 74.832C374.802 74.7893 374.162 74.768 373.352 74.768H366.056C362.514 74.768 359.826 74.2987 357.992 73.36C356.2 72.4213 355.304 70.9067 355.304 68.816C355.304 67.3227 355.752 66.0853 356.648 65.104C357.544 64.08 358.781 63.3333 360.36 62.864C358.653 61.968 357.416 60.88 356.648 59.6C355.88 58.32 355.496 56.6347 355.496 54.544C355.496 50.576 356.946 47.6747 359.848 45.84C362.749 43.9627 366.824 43.024 372.072 43.024C372.84 43.024 373.693 43.0667 374.632 43.152C375.613 43.1947 376.509 43.28 377.32 43.408C378.173 43.4933 378.792 43.5787 379.176 43.664H391.528L391.272 52.816H387.944C388.029 53.072 388.114 53.392 388.2 53.776C388.285 54.1173 388.328 54.4373 388.328 54.736C388.328 57.8507 387.474 60.304 385.768 62.096C384.104 63.8453 381.309 64.72 377.384 64.72C376.957 64.72 376.424 64.72 375.784 64.72C375.144 64.6773 374.589 64.6347 374.12 64.592C373.522 64.6347 372.968 64.7413 372.456 64.912C371.986 65.04 371.752 65.3173 371.752 65.744C371.752 66.0853 371.901 66.32 372.2 66.448C372.498 66.5333 372.904 66.576 373.416 66.576H378.792C381.949 66.576 384.488 67.28 386.408 68.688C388.328 70.0533 389.288 72.2293 389.288 75.216C389.288 78.16 387.837 80.5707 384.936 82.448C382.077 84.3253 377.384 85.264 370.856 85.264ZM372.2 56.4C373.394 56.4 374.205 56.208 374.632 55.824C375.101 55.44 375.336 54.8 375.336 53.904C375.336 52.9653 375.08 52.304 374.568 51.92C374.098 51.4933 373.309 51.28 372.2 51.28C370.109 51.28 369.064 52.1547 369.064 53.904C369.064 54.7573 369.298 55.3973 369.768 55.824C370.237 56.208 371.048 56.4 372.2 56.4ZM392.771 74V43.664H407.299L407.619 45.392C408.729 44.7947 410.222 44.2613 412.099 43.792C414.019 43.28 416.089 43.024 418.307 43.024C421.934 43.024 424.558 43.984 426.179 45.904C427.843 47.7813 428.675 50.64 428.675 54.48V74H413.187V56.464C413.187 55.0987 412.483 54.416 411.075 54.416C410.649 54.416 410.137 54.544 409.539 54.8C408.985 55.056 408.558 55.3547 408.259 55.696V74H392.771Z" fill="#D9D9D9"/>
<path d="M70.701 0H30.2991C13.5922 0 0 13.5928 0 30.3005V70.6995C0 87.4072 13.5922 101 30.2991 101H70.6962C87.4031 101 100.995 87.4072 100.995 70.6995L101 30.3005C101 13.5928 87.408 0 70.701 0ZM90.8972 70.7044C90.8972 81.8445 81.8358 90.9063 70.6962 90.9063L30.2991 90.9016C19.1594 90.9016 10.0981 81.8398 10.0981 70.6996L10.1028 30.3006C10.1028 19.1604 19.1642 10.0987 30.3038 10.0987H70.7009C81.8406 10.0987 90.9019 19.1604 90.9019 30.3006L90.8972 70.7044ZM50.5001 25.2536C36.577 25.2536 25.2525 36.5832 25.2525 50.5024C25.2525 64.4261 36.5815 75.7512 50.5001 75.7512C64.4231 75.7512 75.7477 64.4216 75.7477 50.5024C75.7477 36.5787 64.4233 25.2536 50.5001 25.2536ZM50.5001 65.6527C42.1442 65.6527 35.3505 58.8587 35.3505 50.5024C35.3505 42.1462 42.1442 35.3522 50.5001 35.3522C58.8559 35.3522 65.6496 42.1462 65.6496 50.5024C65.6496 58.8587 58.8559 65.6527 50.5001 65.6527ZM79.3363 21.6648C80.2405 22.6259 80.7991 23.9374 80.7991 25.2535C80.7991 26.5649 80.2405 27.8812 79.3363 28.8375C78.3752 29.7465 77.0591 30.3004 75.7478 30.3004C74.4317 30.3004 73.1202 29.7417 72.164 28.8375C71.255 27.8764 70.7012 26.5649 70.7012 25.2535C70.7012 23.9374 71.2551 22.6259 72.164 21.6696C74.0813 19.7994 77.4141 19.7994 79.3363 21.6648Z" fill="#D9D9D9"/>
</svg>
